<svg xmlns="http://www.w3.org/2000/svg">
<defs>
<font id="GothamSSm-Book" horiz-adv-x="860" >
  <font-face 
    font-family="GothamSSm-Book"
    font-weight="325"
    font-stretch="normal"
    units-per-em="2048"
    panose-1="0 0 0 0 0 0 0 0 0 0"
    ascent="1638"
    descent="-410"
    x-height="1108"
    cap-height="1491"
    bbox="-455 -541 2490 2126"
    underline-thickness="102"
    underline-position="-204"
    unicode-range="U+0020-FB04"
  />
<missing-glyph horiz-adv-x="1024" 
d="M145 -307h734l-25 55l-10 19l-8 18l-33 76l-10 18l-41 92l-11 19l-32 73l-19 39l-24 56l-9 18l-8 19l-10 18l-16 37l-25 55l-51 113l-10 18l-17 37l-8 19l-16 -37l-9 -19l-51 -112l-10 -19l-16 -37l-25 -55l-10 -18l-8 -19l-33 -74l-51 -112l-11 -19l-32 -73l-9 -19
l-10 -18l-24 -58l-9 -18l-8 -18l-10 -19l-16 -37zM922 -156v1540l-35 -75l-8 -19l-9 -18l-8 -19l-10 -18l-8 -21l-8 -18l-9 -18l-8 -19l-10 -18l-16 -39l-17 -37l-51 -113l-10 -18l-8 -19l-9 -18l-16 -39l-10 -18l-8 -19l-9 -18l-16 -39l-10 -19l-8 -18l-52 -113l35 -75
l8 -19l9 -18l8 -19l10 -18l8 -21l8 -18l9 -18l8 -19l10 -18l16 -39l17 -37l51 -113l10 -18l8 -19l9 -18l8 -21l8 -18l10 -18l8 -19l9 -18l16 -39l10 -19l8 -18zM102 1384v-1540l35 76l8 19l9 18l8 18l10 19l16 39l9 18l8 19l10 18l8 18l8 21l9 18l8 19l51 112l27 56l16 39
l10 18l8 19l9 18l8 18l8 21l10 18l8 19l43 94l9 18l-35 76l-8 19l-9 18l-8 18l-10 19l-16 39l-9 18l-8 19l-10 18l-16 39l-9 18l-8 19l-51 113l-10 18l-17 37l-16 39l-10 18l-8 19l-9 18l-8 18l-8 21l-10 18l-8 19l-43 94zM879 1536h-734l25 -55l35 -74l8 -21l8 -18l10 -18
l41 -93l11 -18l32 -74l43 -94l9 -18l8 -19l10 -18l16 -37l25 -55l51 -113l10 -18l17 -37l8 -19l16 37l9 19l51 112l10 19l16 37l25 55l10 18l8 19l84 186l11 18l32 74l9 19l10 18l8 18l33 76l10 19l16 37zM0 1638h1024v-2048h-1024v2048z" />
    <glyph glyph-name="f_f" unicode="ff" horiz-adv-x="1593" 
d="M1034 940h-149v164h149v117l6 69l4 21l5 20l6 21l6 18l8 19l6 16l10 16l9 17l12 14l10 14l12 13l29 24l17 10l16 11l16 8l19 8l18 6l21 6l39 9l45 4h45l22 -2h21l39 -4l43 -11l41 -12v-166l-60 19l-18 4l-37 4l-21 2h-43l-18 -4l-21 -4l-16 -7l-16 -6l-15 -10l-12 -10
l-12 -12l-21 -31l-8 -19l-6 -18l-8 -43l-2 -25v-106h331v-164h-329v-940h-193v940zM246 940h-150v164h150v117l6 69l8 41l6 21l6 18l9 19l6 16l10 16l8 17l23 28l12 13l29 24l32 21l35 16l39 12l19 4l20 5l45 4h45l23 -2h20l21 -2l18 -2l84 -23v-166l-39 12l-20 7l-19 4
l-37 4l-20 2h-43l-39 -8l-16 -7l-17 -6l-14 -10l-25 -22l-20 -31l-15 -37l-8 -43l-2 -25v-106h332v-164h-330v-940h-192v940z" />
    <glyph glyph-name="fi" unicode="fi" horiz-adv-x="1380" 
d="M989 1108h191v-1108h-191v1108zM977 1530h215v-201h-215v201zM246 940h-150v164h150v117l6 69l8 41l6 21l6 18l9 19l6 16l10 16l8 17l23 28l12 13l29 24l32 21l35 16l39 12l19 4l20 5l45 4h45l23 -2h20l21 -2l18 -2l84 -23v-166l-39 12l-20 7l-19 4l-37 4l-20 2h-43
l-39 -8l-16 -7l-17 -6l-14 -10l-25 -22l-20 -31l-15 -37l-8 -43l-2 -25v-106h332v-164h-330v-940h-192v940z" />
    <glyph glyph-name="fl" unicode="fl" horiz-adv-x="1380" 
d="M987 1554h191v-1554h-191v1554zM246 940h-150v164h150v117l6 69l8 41l6 21l6 18l9 19l6 16l10 16l8 17l23 28l12 13l29 24l32 21l35 16l39 12l19 4l20 5l45 4h45l23 -2h20l21 -2l18 -2l84 -23v-166l-39 12l-20 7l-19 4l-37 4l-20 2h-43l-39 -8l-16 -7l-17 -6l-14 -10
l-25 -22l-20 -31l-15 -37l-8 -43l-2 -25v-106h332v-164h-330v-940h-192v940z" />
    <glyph glyph-name="f_f_i" unicode="ffi" horiz-adv-x="2168" 
d="M1776 1108h190v-1108h-190v1108zM1763 1530h215v-201h-215v201zM1034 940h-149v164h149v117l6 69l4 21l5 20l6 21l6 18l8 19l6 16l10 16l9 17l12 14l10 14l12 13l29 24l17 10l16 11l16 8l19 8l18 6l21 6l39 9l45 4h45l22 -2h21l39 -4l43 -11l41 -12v-166l-60 19l-18 4
l-37 4l-21 2h-43l-18 -4l-21 -4l-16 -7l-16 -6l-15 -10l-12 -10l-12 -12l-21 -31l-8 -19l-6 -18l-8 -43l-2 -25v-106h331v-164h-329v-940h-193v940zM246 940h-150v164h150v117l6 69l8 41l6 21l6 18l9 19l6 16l10 16l8 17l23 28l12 13l29 24l32 21l35 16l39 12l19 4l20 5
l45 4h45l23 -2h20l21 -2l18 -2l84 -23v-166l-39 12l-20 7l-19 4l-37 4l-20 2h-43l-39 -8l-16 -7l-17 -6l-14 -10l-25 -22l-20 -31l-15 -37l-8 -43l-2 -25v-106h332v-164h-330v-940h-192v940z" />
    <glyph glyph-name="f_f_l" unicode="ffl" horiz-adv-x="2168" 
d="M1776 1554h190v-1554h-190v1554zM1034 940h-149v164h149v117l6 69l4 21l5 20l6 21l6 18l8 19l6 16l10 16l9 17l12 14l10 14l12 13l29 24l17 10l16 11l16 8l19 8l18 6l21 6l39 9l45 4h45l22 -2h21l39 -4l43 -11l41 -12v-166l-60 19l-18 4l-37 4l-21 2h-43l-18 -4l-21 -4
l-16 -7l-16 -6l-15 -10l-12 -10l-12 -12l-21 -31l-8 -19l-6 -18l-8 -43l-2 -25v-106h331v-164h-329v-940h-193v940zM246 940h-150v164h150v117l6 69l8 41l6 21l6 18l9 19l6 16l10 16l8 17l23 28l12 13l29 24l32 21l35 16l39 12l19 4l20 5l45 4h45l23 -2h20l21 -2l18 -2
l84 -23v-166l-39 12l-20 7l-19 4l-37 4l-20 2h-43l-39 -8l-16 -7l-17 -6l-14 -10l-25 -22l-20 -31l-15 -37l-8 -43l-2 -25v-106h332v-164h-330v-940h-192v940z" />
    <glyph glyph-name=".notdef" horiz-adv-x="1024" 
d="M145 -307h734l-25 55l-10 19l-8 18l-33 76l-10 18l-41 92l-11 19l-32 73l-19 39l-24 56l-9 18l-8 19l-10 18l-16 37l-25 55l-51 113l-10 18l-17 37l-8 19l-16 -37l-9 -19l-51 -112l-10 -19l-16 -37l-25 -55l-10 -18l-8 -19l-33 -74l-51 -112l-11 -19l-32 -73l-9 -19
l-10 -18l-24 -58l-9 -18l-8 -18l-10 -19l-16 -37zM922 -156v1540l-35 -75l-8 -19l-9 -18l-8 -19l-10 -18l-8 -21l-8 -18l-9 -18l-8 -19l-10 -18l-16 -39l-17 -37l-51 -113l-10 -18l-8 -19l-9 -18l-16 -39l-10 -18l-8 -19l-9 -18l-16 -39l-10 -19l-8 -18l-52 -113l35 -75
l8 -19l9 -18l8 -19l10 -18l8 -21l8 -18l9 -18l8 -19l10 -18l16 -39l17 -37l51 -113l10 -18l8 -19l9 -18l8 -21l8 -18l10 -18l8 -19l9 -18l16 -39l10 -19l8 -18zM102 1384v-1540l35 76l8 19l9 18l8 18l10 19l16 39l9 18l8 19l10 18l8 18l8 21l9 18l8 19l51 112l27 56l16 39
l10 18l8 19l9 18l8 18l8 21l10 18l8 19l43 94l9 18l-35 76l-8 19l-9 18l-8 18l-10 19l-16 39l-9 18l-8 19l-10 18l-16 39l-9 18l-8 19l-51 113l-10 18l-17 37l-16 39l-10 18l-8 19l-9 18l-8 18l-8 21l-10 18l-8 19l-43 94zM879 1536h-734l25 -55l35 -74l8 -21l8 -18l10 -18
l41 -93l11 -18l32 -74l43 -94l9 -18l8 -19l10 -18l16 -37l25 -55l51 -113l10 -18l17 -37l8 -19l16 37l9 19l51 112l10 19l16 37l25 55l10 18l8 19l84 186l11 18l32 74l9 19l10 18l8 18l33 76l10 19l16 37zM0 1638h1024v-2048h-1024v2048z" />
    <glyph glyph-name=".null" horiz-adv-x="0" 
 />
    <glyph glyph-name="nonmarkingreturn" horiz-adv-x="655" 
 />
    <glyph glyph-name="space" unicode=" " horiz-adv-x="655" 
 />
    <glyph glyph-name="exclam" unicode="!" horiz-adv-x="614" 
d="M197 246h221v-246h-221v246zM195 1491h225v-107l-2 -20v-21l-4 -40v-21l-2 -20v-21l-4 -43v-20l-2 -21l-3 -20v-21l-2 -20v-21l-4 -41v-20l-4 -41v-21l-2 -20v-21l-4 -43v-20l-4 -41v-21l-4 -41v-20l-2 -20v-21l-4 -41v-20l-4 -43v-21l-2 -20v-21l-2 -20l-3 -21v-20
l-2 -21h-106l-2 21v20l-4 41v21l-2 20v21l-4 43v20l-4 41v21l-2 20v20l-3 21l-2 20v21l-4 41v20l-2 21v22l-4 41v21l-4 41v20l-4 41v21l-2 20v21l-4 41v20l-4 43v21l-2 20v21l-4 40v21l-2 20v107z" />
    <glyph glyph-name="quotedbl" unicode="&#x22;" horiz-adv-x="983" 
d="M430 1491v-10l-6 -21l-6 -18l-25 -78l-24 -78l-31 -98l-55 -176l-37 -117h-103l4 41l43 432l3 21l10 102h227zM860 1491v-10l-6 -21l-6 -18l-25 -78l-30 -98l-7 -19l-12 -39l-4 -20l-6 -21l-6 -18l-6 -21l-43 -135l-31 -98h-103l43 432l3 21l14 143h225z" />
    <glyph glyph-name="numbersign" unicode="#" horiz-adv-x="1507" 
d="M520 532h393l5 21l2 18l8 41l2 19l4 20l2 19l8 41l2 18l8 41l2 18l5 21l4 20l2 19l4 20l2 19l8 41l2 18l4 21h-393l-4 -21l-2 -18l-8 -41l-2 -19l-5 -20l-2 -19l-8 -41l-2 -18l-8 -41l-2 -18l-8 -41l-2 -19l-4 -20l-2 -19l-5 -20l-4 -21l-2 -18zM1325 367h-270l-4 -21
l-2 -20l-5 -21l-4 -20l-2 -21l-8 -41l-2 -20l-8 -39l-2 -21l-8 -41l-2 -20l-4 -21l-5 -20l-2 -21l-4 -20h-174l4 20l2 21l4 20l5 21l2 20l8 41l2 21l8 39l2 20l8 41l2 21l8 41l3 20l4 21h-387l-5 -21l-2 -20l-12 -62l-2 -20l-8 -41l-2 -19l-12 -61l-2 -21l-5 -20l-8 -41
l-2 -21l-4 -20h-174l4 20l2 21l8 41l2 20l4 21l5 20l2 21l8 39l2 20l8 41l2 21l8 41l2 20l4 21h-217v170h248l4 20l2 21l8 40l3 21l4 18l4 21l2 20l8 41l2 21l8 41l2 20l4 21l4 18l3 21l8 41l2 20l4 21h-238v170h269l4 20l2 18l8 41l2 21l4 18l4 21l2 20l4 21l4 18l2 21
l5 20l4 19l2 20l8 41l2 18l4 21h174l-4 -21l-2 -18l-8 -41l-2 -20l-8 -39l-3 -21l-4 -18l-4 -21l-2 -20l-4 -21l-4 -18l-2 -21l-8 -41l-2 -18l-4 -20h387l4 20l2 18l12 62l2 18l12 62l11 59l2 19l12 61l2 18l4 21h172l-4 -21l-2 -18l-8 -41l-2 -20l-8 -39l-2 -21l-9 -39
l-2 -20l-4 -21l-4 -18l-2 -21l-8 -41l-2 -18l-4 -20h219v-170h-248l-4 -21l-2 -20l-12 -62l-2 -18l-4 -21l-5 -20l-2 -21l-12 -61l-2 -21l-8 -41l-2 -18l-12 -61l-3 -21l-4 -20h242v-170z" />
    <glyph glyph-name="dollar" unicode="$" horiz-adv-x="1374" 
d="M369 1106v-23l2 -20l4 -19l6 -18l6 -16l8 -17l13 -16l26 -27l47 -30l35 -19l16 -8l37 -12l21 -9l20 -6l23 -6v467l-25 -2l-47 -8l-20 -4l-39 -15l-35 -18l-16 -12l-13 -11l-16 -16l-27 -35l-10 -18l-6 -21l-6 -18zM1040 373v43l-2 20l-4 21l-6 18l-16 33l-13 16l-26 27
l-51 31l-19 10l-16 6l-17 8l-57 19l-20 6l-23 6v-473l23 2l63 12l37 12l33 15l30 18l29 25l12 16l13 15l10 16l8 18l6 19l4 20zM776 -209h-149v213l-41 4l-21 4l-18 4l-21 4l-18 5l-21 4l-18 6l-18 4l-37 12l-56 23l-18 8l-16 8l-19 8l-16 11l-35 18l-16 12l-17 11l-18 10
l-33 24l-14 13l-33 24l24 33l13 16l12 17l10 16l49 66l70 -58l33 -24l18 -11l17 -12l69 -37l37 -16l19 -6l18 -8l18 -4l21 -7l20 -4l21 -6l20 -2l21 -4v500l-25 6l-22 6l-25 6l-20 8l-23 6l-20 9l-21 6l-18 8l-21 8l-67 33l-31 18l-14 11l-13 8l-14 10l-10 10l-17 13l-24 28
l-12 17l-11 14l-24 53l-17 58l-6 63v45l4 41l8 39l7 18l6 19l16 35l21 32l10 17l24 28l29 29l14 12l17 13l72 41l40 16l37 12l19 7l61 12l41 4l23 2v123h149v-127l23 -2l20 -4l21 -2l20 -4l21 -7l20 -4l37 -12l20 -6l17 -6l88 -43l16 -11l19 -10l84 -57l-23 -33l-10 -16
l-12 -17l-11 -18l-12 -16l-10 -17l-12 -16l-11 -17l-18 15l-16 12l-19 12l-18 13l-35 20l-19 10l-18 11l-55 24l-37 12l-19 7l-18 4l-21 4l-18 4v-490l72 -18l22 -8l23 -6l22 -9l21 -6l18 -8l58 -24l16 -11l31 -16l16 -10l27 -21l14 -8l12 -10l15 -17l14 -14l25 -33l10 -16
l10 -19l16 -36l7 -21l8 -41l4 -45v-45l-2 -23l-2 -20l-4 -18l-4 -21l-15 -37l-6 -18l-10 -19l-21 -32l-10 -17l-24 -28l-15 -15l-14 -12l-14 -14l-17 -13l-72 -41l-59 -24l-20 -6l-19 -4l-20 -7l-41 -8l-23 -2l-20 -2l-23 -2v-211z" />
    <glyph glyph-name="percent" unicode="%" horiz-adv-x="1802" 
d="M1530 340v45l-2 21l-4 18l-2 18l-6 21l-9 20l-8 21l-22 37l-15 16l-30 25l-17 12l-18 8l-17 6l-39 4l-20 -2l-18 -2l-19 -6l-16 -8l-17 -12l-30 -25l-13 -16l-12 -17l-10 -18l-8 -21l-13 -41l-4 -18l-4 -37v-45l2 -20l4 -21l2 -18l6 -19l17 -43l24 -35l13 -16l14 -14
l16 -13l35 -20l19 -6l37 -4l20 2l18 2l19 6l18 10l15 10l16 13l14 14l13 16l12 17l10 18l17 43l8 35l2 21zM1364 -16h-43l-23 2l-20 4l-18 4l-21 6l-18 6l-35 17l-17 10l-16 12l-16 10l-15 15l-14 12l-25 29l-12 16l-20 33l-9 18l-16 39l-12 39l-8 41l-2 20l-3 23v47l3 21
l2 20l8 41l12 41l16 39l9 18l10 17l12 16l10 16l27 31l29 25l32 24l17 11l35 16l39 12l41 8l20 2h43l23 -2l20 -4l18 -4l21 -6l18 -6l37 -16l17 -11l59 -49l14 -14l11 -17l12 -16l20 -33l25 -55l12 -39l8 -41l2 -20l3 -23v-47l-3 -20l-2 -23l-8 -41l-12 -39l-16 -39l-9 -18
l-20 -33l-12 -16l-13 -15l-12 -16l-14 -12l-17 -13l-14 -12l-16 -12l-17 -8l-18 -11l-19 -8l-18 -6l-21 -6l-41 -8zM1362 1491h170l-49 -66l-10 -16l-111 -147l-10 -17l-86 -115l-47 -63l-121 -164l-133 -180l-37 -49l-10 -17l-25 -32l-12 -17l-13 -16l-12 -17l-59 -81
l-47 -66l-13 -16l-10 -17l-25 -33l-71 -100l-13 -16l-12 -17l-59 -82l-10 -16l-37 -49l-13 -16l-12 -17l-10 -16l-12 -17l-13 -16h-170l86 117l37 49l160 215l61 84l37 49l13 16l12 19l49 65l12 17l135 182l13 16l10 17l84 117l49 65l59 82l13 16l10 19l84 115l49 65l10 16
l37 52l25 32l10 17zM272 1151v-45l2 -21l5 -20l2 -18l22 -62l37 -51l14 -14l17 -13l16 -10l16 -8l19 -6l18 -2l21 -2l39 4l18 6l19 10l45 35l24 33l19 39l8 22l8 37l4 37v45l-2 20l-4 19l-2 18l-6 21l-17 43l-12 18l-10 19l-29 28l-16 13l-17 12l-18 8l-16 6l-21 2l-18 2
l-21 -2l-18 -2l-19 -6l-16 -8l-33 -25l-14 -14l-12 -14l-13 -19l-10 -18l-8 -21l-6 -22l-6 -19l-5 -18zM477 745h-43l-20 3l-41 8l-39 12l-35 16l-47 33l-14 14l-15 13l-24 28l-13 17l-20 33l-25 57l-6 18l-6 21l-8 41l-2 20l-2 23v47l4 41l8 41l12 41l25 57l20 33l13 16
l12 17l12 14l45 37l17 12l16 10l18 9l19 8l18 6l21 6l41 8l20 2h43l23 -2l39 -8l39 -12l18 -8l33 -19l33 -24l28 -25l13 -14l24 -33l21 -33l24 -55l6 -21l6 -18l5 -21l4 -20l2 -20l2 -23v-47l-4 -41l-4 -21l-5 -20l-12 -41l-16 -39l-8 -18l-21 -33l-12 -17l-27 -30l-28 -25
l-33 -24l-35 -19l-18 -8l-39 -12l-39 -8z" />
    <glyph glyph-name="ampersand" unicode="&#x26;" horiz-adv-x="1499" 
d="M571 143h43l21 2l20 5l41 8l21 6l39 16l20 10l49 31l49 37l31 29l17 14l14 16l-86 91l-31 28l-14 17l-29 28l-14 17l-29 28l-14 17l-29 28l-14 17l-14 14l-17 14l-86 91l-22 -9l-21 -10l-20 -8l-21 -10l-16 -11l-19 -10l-30 -22l-15 -13l-24 -24l-11 -12l-24 -37l-19 -35
l-12 -37l-4 -20l-2 -19v-47l8 -41l6 -20l9 -19l8 -20l10 -17l12 -18l29 -29l16 -14l35 -25l41 -16l37 -12l20 -5l19 -2zM903 1141v41l-8 39l-6 18l-8 18l-9 17l-24 29l-17 12l-14 12l-16 8l-37 15l-39 8h-43l-23 -4l-20 -4l-21 -7l-18 -8l-16 -10l-17 -12l-16 -13l-27 -32
l-10 -17l-8 -18l-6 -19l-8 -38v-48l4 -20l4 -18l6 -21l6 -18l18 -33l29 -43l12 -14l43 -52l17 -18l26 10l25 8l47 21l21 12l20 10l51 37l27 27l12 14l10 14l9 15l8 16l6 15l8 32zM598 -20h-45l-23 2l-20 2l-23 2l-20 2l-21 4l-20 6l-20 4l-19 8l-22 6l-21 11l-20 8l-19 10
l-18 12l-19 11l-49 41l-14 14l-12 16l-15 17l-22 34l-11 19l-16 37l-18 53l-5 20l-6 60v47l2 23l2 20l5 20l6 21l4 20l24 58l33 53l39 45l43 37l49 37l37 20l18 13l21 8l41 20l22 8l-30 37l-13 19l-14 18l-10 19l-23 34l-16 35l-8 19l-13 39l-6 20l-4 21l-4 40v48l2 20l8 41
l4 18l7 21l16 37l20 35l39 47l15 14l49 37l18 10l21 10l18 11l41 14l39 12l21 4l20 2l23 2l22 3h43l21 -3l36 -4l37 -8l37 -12l37 -16l16 -11l19 -10l16 -10l15 -12l28 -27l13 -14l12 -15l39 -67l18 -56l4 -20l4 -39v-47l-4 -41l-4 -21l-18 -55l-8 -18l-21 -33l-24 -31
l-27 -28l-62 -50l-34 -22l-19 -10l-18 -11l-82 -37l-23 -8l29 -28l43 -43l14 -17l29 -28l43 -43l12 -15l29 -28l14 -15l15 -14l14 -17l57 -57l15 -14l30 47l11 16l20 35l39 70l27 55l20 37l8 20l11 19l8 20l20 -10l19 -8l20 -10l19 -11l59 -28l18 -11l-16 -36l-10 -17
l-17 -37l-10 -16l-8 -18l-10 -17l-8 -18l-11 -17l-8 -16l-12 -18l-10 -19l-11 -16l-10 -19l-12 -16l-10 -19l-25 -32l-10 -17l-13 -16l43 -43l15 -14l12 -15l29 -28l14 -15l29 -26l28 -29l15 -14l12 -15l57 -57l-116 -88l-17 -12l-16 -13l-14 15l-15 14l-26 29l-29 28
l-14 15l-13 16l-112 115l-31 -31l-49 -43l-17 -12l-16 -13l-35 -24l-35 -21l-71 -37l-78 -24l-41 -8z" />
    <glyph glyph-name="quotesingle" unicode="'" horiz-adv-x="552" 
d="M432 1491v-10l-6 -21l-6 -18l-25 -78l-30 -98l-31 -99l-6 -18l-6 -21l-43 -135l-31 -98h-105l4 41l43 432l3 21l10 102h229z" />
    <glyph glyph-name="parenleft" unicode="(" horiz-adv-x="944" 
d="M823 -172l-84 -129l-20 10l-74 47l-18 13l-19 12l-16 12l-19 12l-32 25l-17 12l-14 15l-16 12l-86 82l-13 14l-12 15l-14 14l-13 16l-10 15l-12 14l-10 16l-13 15l-32 51l-11 16l-8 19l-10 16l-41 92l-25 76l-4 20l-6 19l-12 61l-12 127v88l12 125l12 62l6 20l4 19l6 20
l19 55l24 58l9 16l8 19l10 18l8 16l11 19l12 16l10 19l10 14l13 16l32 45l13 15l39 43l57 57l14 12l15 15l16 12l14 14l84 62l74 49l18 10l19 12l20 11l84 -129l-20 -13l-74 -53l-18 -14l-17 -12l-16 -15l-19 -14l-14 -14l-47 -41l-14 -15l-13 -16l-14 -14l-12 -15l-15 -14
l-57 -78l-18 -33l-11 -16l-10 -17l-8 -18l-8 -16l-8 -19l-9 -18l-30 -92l-4 -21l-5 -18l-8 -41l-8 -82l-2 -23v-90l8 -86l8 -41l5 -20l4 -21l6 -20l4 -21l6 -18l8 -19l6 -20l25 -55l18 -35l11 -19l12 -16l8 -16l35 -47l10 -15l12 -16l15 -15l12 -14l14 -14l13 -17l14 -14
l16 -14l15 -15l16 -12l14 -14l19 -15l70 -55l36 -24l19 -15z" />
    <glyph glyph-name="parenright" unicode=")" horiz-adv-x="944" 
d="M123 1395l84 129l20 -11l19 -12l18 -10l74 -49l68 -49l16 -13l14 -14l17 -12l14 -15l29 -26l14 -15l29 -26l24 -29l15 -14l22 -31l12 -14l11 -17l12 -14l20 -33l13 -18l10 -17l8 -18l10 -16l41 -93l13 -38l12 -39l4 -19l6 -20l12 -62l4 -41l3 -20l2 -23l2 -20l2 -23v-88
l-2 -20l-2 -23l-2 -20l-3 -21l-4 -41l-8 -41l-4 -18l-6 -21l-4 -18l-12 -39l-7 -18l-6 -21l-24 -55l-17 -35l-10 -18l-8 -17l-10 -18l-13 -17l-20 -32l-35 -47l-10 -15l-12 -14l-15 -14l-24 -29l-86 -84l-17 -12l-14 -15l-33 -24l-16 -13l-19 -12l-16 -12l-111 -72l-20 -10
l-31 49l-33 47l-20 33l20 12l19 15l37 24l34 29l19 12l80 70l28 28l39 45l15 15l12 16l10 15l35 47l10 16l8 16l21 33l8 19l17 34l8 19l30 92l5 18l8 41l4 19l6 61l2 23l2 20v90l-6 66l-2 20l-12 62l-5 20l-6 21l-4 20l-6 19l-8 20l-6 19l-25 55l-10 18l-8 19l-31 51l-12 14
l-10 17l-13 16l-10 14l-12 15l-39 45l-15 14l-28 31l-17 12l-14 15l-33 28l-16 15l-19 12l-16 14l-74 53z" />
    <glyph glyph-name="asterisk" unicode="*" horiz-adv-x="931" 
d="M403 1495h125l-12 -123l-14 -141l51 37l16 10l17 12l16 13l19 12l84 59l16 12l20 -36l13 -17l30 -55l-36 -16l-21 -11l-55 -24l-39 -19l-76 -34l-18 -9l36 -16l21 -8l18 -11l37 -16l58 -24l18 -11l21 -8l36 -16l-20 -37l-10 -17l-13 -18l-20 -37l-33 25l-18 10l-49 37
l-19 10l-49 37l-18 10l-17 12l-16 13l26 -264h-125l3 20l24 244l-16 -13l-17 -12l-18 -10l-49 -37l-19 -10l-32 -25l-17 -12l-18 -10l-33 -25l-31 55l-12 17l-21 37l37 16l21 8l18 11l37 16l21 8l36 16l19 11l39 16l18 8l-18 9l-19 8l-20 10l-37 16l-94 43l-21 11l-37 16
l11 18l10 19l33 53l10 18l33 -24l35 -23l32 -24l19 -12l32 -25l68 -47l-12 123l-12 121z" />
    <glyph glyph-name="plus" unicode="+" horiz-adv-x="1353" 
d="M584 659h-430v181h430v428h186v-428h430v-181h-430v-428h-186v428z" />
    <glyph glyph-name="comma" unicode="," horiz-adv-x="552" 
d="M254 0h-88v246h223v-236l-4 -49l-4 -20l-6 -21l-4 -20l-25 -52l-20 -28l-15 -13l-12 -12l-14 -10l-17 -10l-16 -11l-39 -16l-63 -18l-25 -4l-6 20l-6 23l-9 20l-6 23l25 8l22 8l21 10l18 12l17 13l14 14l12 14l11 15l6 16l6 19l4 18v41z" />
    <glyph glyph-name="hyphen" unicode="-" horiz-adv-x="884" 
d="M139 741h606v-196h-606v196z" />
    <glyph glyph-name="period" unicode="." horiz-adv-x="552" 
d="M166 246h223v-246h-223v246z" />
    <glyph glyph-name="slash" unicode="/" horiz-adv-x="1105" 
d="M942 1700h172l-8 -19l-29 -55l-8 -18l-10 -17l-17 -37l-10 -18l-8 -18l-10 -19l-8 -18l-11 -19l-8 -18l-10 -19l-16 -36l-11 -17l-8 -18l-10 -19l-8 -18l-11 -19l-16 -36l-10 -19l-8 -18l-11 -19l-26 -53l-8 -18l-11 -19l-8 -18l-10 -19l-8 -18l-11 -19l-8 -18l-10 -18
l-16 -37l-29 -54l-8 -18l-10 -18l-17 -37l-10 -19l-8 -18l-11 -19l-8 -18l-10 -18l-8 -19l-8 -16l-11 -19l-8 -18l-10 -19l-8 -18l-10 -18l-9 -19l-10 -18l-16 -37l-11 -19l-8 -18l-10 -16l-8 -19l-10 -18l-17 -37l-10 -19l-8 -18l-10 -18l-9 -19l-10 -18l-8 -19l-27 -53
l-10 -18l-8 -19l-10 -18l-9 -19l-10 -18l-16 -37l-10 -18l-9 -19l-10 -18l-8 -17l-10 -18l-8 -19l-9 -18l-10 -18l-8 -19l-10 -18l-9 -19l-10 -18l-8 -19l-10 -18l-17 -37l-10 -16l-8 -19l-10 -18l-8 -19l-11 -18l-8 -18h-172l8 18l11 18l8 19l10 18l8 19l10 16l17 37l10 18
l8 19l10 18l9 19l10 18l8 19l10 18l17 37l10 18l8 17l10 18l9 19l10 18l16 37l10 18l9 19l10 18l8 19l10 18l8 18l19 35l8 19l10 18l9 19l10 18l8 18l27 56l10 18l8 17l10 18l8 18l11 19l16 37l10 18l9 19l10 18l8 18l10 19l8 18l11 19l8 16l8 19l10 18l8 18l11 19l8 18
l10 19l16 37l11 18l8 18l10 17l8 18l11 19l16 37l10 18l8 18l11 19l8 18l10 19l8 18l11 19l26 53l8 18l11 19l8 18l10 19l16 36l11 19l45 90l8 18l10 19l8 18l11 19l8 18l10 19l8 18l10 18l17 37l10 17l27 55l10 18z" />
    <glyph glyph-name="zero" unicode="0" horiz-adv-x="1546" 
d="M752 154h45l20 2l23 4l39 8l20 6l37 16l18 11l19 10l33 25l14 14l16 14l15 15l12 16l14 16l33 51l20 35l17 37l8 21l12 41l9 20l20 100l8 82v90l-4 41l-2 23l-2 20l-4 21l-12 59l-6 21l-7 20l-6 21l-24 59l-9 19l-41 69l-26 33l-14 16l-46 43l-51 37l-18 8l-19 11l-20 8
l-19 6l-61 12l-20 2h-45l-21 -2l-61 -12l-19 -6l-37 -17l-37 -20l-32 -25l-31 -28l-41 -47l-43 -68l-10 -18l-8 -19l-9 -18l-16 -41l-23 -80l-12 -62l-8 -81v-91l8 -84l4 -20l4 -18l4 -21l5 -20l6 -19l6 -22l8 -21l6 -20l17 -39l10 -19l8 -18l20 -33l13 -16l12 -19l12 -16
l29 -31l49 -41l17 -12l53 -31l20 -8l19 -6l61 -12zM1405 831l4 -40v-86l-4 -41v-21l-4 -20l-4 -41l-8 -39l-5 -19l-4 -20l-6 -19l-4 -18l-6 -18l-6 -21l-15 -39l-24 -55l-49 -84l-13 -17l-10 -16l-12 -14l-12 -17l-29 -28l-43 -43l-49 -37l-17 -10l-16 -11l-35 -20l-18 -8
l-21 -11l-18 -6l-19 -8l-20 -6l-18 -4l-21 -6l-20 -4l-23 -2l-20 -2l-21 -3l-22 -2h-45l-23 2l-20 3l-43 4l-21 4l-18 6l-21 4l-39 12l-37 17l-18 10l-19 8l-51 33l-30 22l-46 41l-28 29l-12 14l-13 17l-14 16l-35 51l-31 56l-16 38l-10 21l-6 18l-9 23l-12 39l-6 18l-20 97
l-3 20l-4 20l-2 21v20l-4 41v86l4 41v21l4 20l2 21l3 20l16 78l6 19l4 18l12 39l9 20l6 19l24 55l11 19l38 65l13 16l10 17l12 14l13 17l71 71l33 25l14 12l19 10l16 11l35 20l18 8l19 11l18 6l19 8l20 6l21 4l18 6l21 4l63 6l23 3h45l20 -3l64 -6l20 -4l21 -6l18 -4l21 -6
l18 -6l57 -25l35 -20l33 -23l16 -10l17 -12l14 -15l16 -12l56 -57l14 -17l10 -14l13 -16l40 -66l19 -35l24 -55l7 -19l8 -18l12 -39l4 -18l6 -21l4 -18l5 -19l8 -39l4 -41l4 -20v-21z" />
    <glyph glyph-name="one" unicode="1" horiz-adv-x="804" 
d="M584 1501v-1501h-195v1300l-80 -24l-18 -6l-21 -6l-18 -7l-41 -12l-78 -24l-20 -7l-7 21l-4 20l-18 60l-4 20l-12 39l20 6l18 9l60 18l20 8l60 19l18 8l60 18l38 15l41 12l19 8l20 6h142z" />
    <glyph glyph-name="two" unicode="2" horiz-adv-x="1300" 
d="M1163 178v-178h-1052v154l92 79l28 27l17 12l14 15l17 12l14 14l92 80l45 39l14 14l17 13l14 14l17 12l14 15l61 53l95 82l49 47l16 14l14 15l15 12l73 76l37 47l31 49l10 18l15 33l12 37l8 41l2 23v40l-2 19l-8 39l-6 16l-6 19l-11 18l-10 19l-24 32l-15 15l-33 24
l-18 12l-39 17l-43 12l-22 4l-23 2h-45l-41 -4l-39 -8l-37 -12l-18 -8l-64 -39l-28 -25l-15 -12l-28 -29l-17 -16l-43 -54l-16 -18l-14 -20l-17 12l-14 12l-17 10l-30 25l-17 12l-16 10l-14 13l-17 12l51 72l15 16l12 16l55 58l43 39l17 10l14 10l16 13l17 8l16 10l35 16
l16 6l19 9l39 12l35 8l18 2l20 4l39 4h21l20 2h45l66 -6l61 -12l41 -12l19 -8l18 -9l19 -8l49 -31l31 -22l14 -12l29 -31l26 -31l10 -18l13 -19l10 -18l16 -37l6 -16l5 -19l6 -18l4 -21l6 -59v-45l-8 -80l-8 -35l-7 -18l-6 -21l-26 -57l-37 -57l-10 -17l-13 -14l-24 -31
l-41 -45l-86 -84l-17 -12l-14 -15l-66 -59l-18 -14l-139 -121l-109 -94l-45 -39l-78 -68h766z" />
    <glyph glyph-name="three" unicode="3" horiz-adv-x="1325" 
d="M190 1317v174h963v-145l-14 -15l-54 -59l-14 -17l-29 -28l-26 -31l-15 -14l-26 -31l-14 -14l-13 -15l-14 -14l-14 -16l-15 -15l-12 -14l-41 -45l-55 -60l-15 -14l-26 -31l-29 -28l-12 -17l-15 -14l41 -4l82 -16l58 -17l61 -24l39 -21l35 -22l16 -11l17 -14l28 -29l15 -14
l24 -33l10 -18l13 -19l8 -16l18 -55l4 -21l5 -20l4 -43v-49l-4 -43l-5 -21l-8 -41l-6 -18l-8 -21l-17 -37l-10 -18l-33 -49l-14 -15l-12 -16l-14 -12l-15 -15l-14 -12l-33 -24l-74 -41l-20 -9l-19 -6l-20 -8l-18 -4l-19 -6l-41 -8l-20 -2l-21 -5h-20l-21 -2h-67l-21 2l-20 3
l-41 4l-80 16l-37 12l-35 13l-16 8l-17 6l-16 10l-18 8l-19 11l-18 12l-66 45l-14 12l-14 15l-15 12l-28 29l-15 14l-12 14l-12 17l16 14l47 43l78 72l14 -17l15 -16l14 -17l14 -14l17 -14l14 -15l47 -36l16 -11l35 -20l17 -8l16 -9l18 -8l39 -12l60 -12l63 -6h43l41 4l21 4
l37 12l43 16l55 39l43 47l12 19l10 18l7 17l6 18l8 37l2 18v45l-4 23l-2 18l-6 19l-9 18l-8 19l-22 30l-13 15l-14 14l-14 12l-17 13l-16 10l-51 25l-58 18l-18 2l-39 8l-41 4h-20l-21 2h-125l-18 62l-6 18l-6 21l-7 20l15 14l12 17l41 45l14 14l13 17l41 45l55 61l41 45
l12 15l29 30l26 31l15 14l26 31l15 14l12 17l27 28l14 17l14 14l13 17l14 14h-703z" />
    <glyph glyph-name="four" unicode="4" horiz-adv-x="1452" 
d="M915 512v715l-12 -17l-26 -30l-13 -17l-14 -16l-12 -17l-27 -30l-12 -17l-27 -30l-12 -17l-15 -16l-24 -31l-39 -49l-14 -14l-25 -33l-41 -47l-24 -33l-15 -14l-24 -33l-15 -16l-24 -31l-15 -17l-39 -47l-65 -80l-12 -16l-13 -14l-26 -33h585zM915 348h-776l-18 62l-6 18
l-6 21l-7 20l-6 20l13 17l14 14l12 17l15 16l51 63l14 15l25 33l26 30l13 17l14 16l12 16l14 15l13 16l12 17l14 14l27 33l12 16l13 14l26 33l15 14l24 33l41 47l12 17l27 30l12 17l13 16l14 15l12 16l15 16l24 31l14 16l13 17l14 14l51 64l15 16l24 31l15 16l24 33l14 14
l39 47l13 17l14 16l12 16l15 15l12 16h172v-989h225v-164h-225v-348h-191v348z" />
    <glyph glyph-name="five" unicode="5" horiz-adv-x="1327" 
d="M1126 1491v-178h-696l-2 -21v-20l-2 -23l-2 -20v-21l-4 -41v-22l-4 -41v-21l-4 -41v-22l-4 -41v-21l-2 -20l-3 -23v-20l-2 -21l41 17l41 12l21 8l22 7l17 2l16 4l19 4l36 4h21l20 2h43l23 -2h20l21 -2l20 -4l19 -2l20 -4l19 -7l20 -4l19 -6l20 -8l21 -6l18 -10l20 -9
l35 -20l49 -37l56 -57l24 -33l21 -35l10 -18l6 -19l8 -18l4 -19l7 -18l4 -18l4 -21l6 -61v-50l-2 -20l-2 -23l-2 -20l-4 -21l-4 -18l-7 -20l-4 -19l-8 -20l-6 -17l-20 -41l-11 -18l-12 -16l-12 -19l-27 -33l-45 -43l-14 -12l-47 -31l-37 -20l-19 -8l-18 -9l-19 -6l-18 -8
l-18 -4l-21 -6l-18 -4l-21 -4l-18 -2l-21 -4l-20 -3h-21l-22 -2h-43l-21 2h-20l-23 3l-20 4l-21 2l-39 8l-20 6l-18 4l-21 6l-18 6l-54 25l-39 20l-53 31l-18 12l-17 13l-18 10l-16 14l-48 39l-30 29l57 63l70 78l65 -57l49 -37l17 -10l16 -13l17 -8l71 -37l21 -8l18 -6
l19 -4l20 -6l18 -4l21 -2l18 -2l21 -2h41l43 4l18 4l21 4l18 4l19 6l39 17l18 10l33 24l16 13l29 28l33 51l16 37l6 19l4 20l4 23l2 20v49l-2 21l-4 20l-18 58l-33 49l-41 43l-16 10l-17 12l-18 11l-19 10l-41 16l-20 4l-18 7l-21 4l-61 6h-45l-23 -2l-20 -2l-23 -2l-20 -2
l-19 -5l-18 -4l-19 -6l-22 -6l-19 -8l-20 -6l-21 -8l-37 -19l-18 -8l-55 37l-72 47l2 20v21l2 20v19l4 41v20l2 21v20l2 21v18l4 41v21l2 20v20l3 21l2 20v19l2 20v21l2 20v21l4 41v18l2 21v20l4 41v21l2 20v19l2 20v20l2 21h868z" />
    <glyph glyph-name="six" unicode="6" horiz-adv-x="1400" 
d="M698 147h45l21 3l20 2l41 8l37 12l21 8l20 10l19 11l32 24l17 15l26 30l13 17l10 16l8 19l10 20l13 39l4 20l4 23l2 20v48l-2 20l-8 41l-15 37l-8 18l-10 17l-37 47l-14 14l-17 12l-16 13l-19 12l-18 10l-41 17l-18 6l-60 12l-41 4h-45l-43 -4l-41 -8l-39 -12l-61 -31
l-35 -25l-14 -14l-17 -14l-12 -17l-12 -14l-23 -35l-16 -37l-6 -18l-8 -39l-3 -19v-47l3 -20l4 -23l12 -41l8 -18l10 -19l11 -18l24 -33l45 -43l35 -24l21 -11l59 -24l61 -12l21 -2zM741 -25h-43l-22 2h-23l-22 5l-21 2l-43 8l-18 4l-21 6l-18 6l-57 25l-37 20l-35 21
l-16 12l-15 14l-16 13l-29 28l-39 49l-35 50l-8 16l-10 16l-8 17l-6 18l-9 19l-6 20l-6 16l-6 19l-4 18l-6 19l-8 41l-2 20l-5 23l-8 73v19l-2 20v23l-2 20v93l2 20v21l6 61l2 18l2 21l5 18l2 21l4 18l4 21l4 18l6 19l4 18l12 41l15 41l24 55l9 19l28 53l10 16l13 17l10 16
l39 47l43 43l31 27l16 12l16 10l17 13l16 10l35 18l35 15l55 18l18 4l21 4l18 4l21 4l20 2h21l22 3h43l23 -3h22l21 -2l20 -4l21 -2l20 -4l19 -6l20 -4l19 -6l16 -6l88 -41l49 -31l19 -10l65 -49l-24 -35l-49 -68l-13 -16l-12 -19l-12 -16l-54 43l-36 25l-19 10l-16 10
l-53 27l-39 12l-60 12l-45 4h-45l-22 -2l-23 -4l-20 -4l-21 -6l-18 -6l-19 -8l-18 -11l-19 -10l-49 -37l-14 -14l-14 -16l-15 -15l-37 -53l-10 -16l-8 -19l-10 -18l-17 -37l-6 -19l-8 -20l-12 -41l-4 -20l-7 -19l-4 -20l-2 -21l-4 -18l-10 -101v-51l12 19l43 47l47 43l17 12
l16 10l16 12l19 11l33 16l18 8l16 6l21 7l59 12l66 6h43l20 -2h21l20 -2l21 -4l18 -4l21 -4l18 -4l21 -7l18 -4l41 -16l18 -8l39 -21l17 -10l51 -37l43 -43l12 -16l15 -17l43 -69l6 -19l8 -18l12 -35l8 -39l2 -20l3 -21l2 -20v-47l-2 -21l-3 -20l-2 -21l-8 -41l-6 -18
l-6 -21l-8 -18l-6 -19l-11 -18l-18 -35l-10 -16l-23 -31l-26 -31l-43 -41l-31 -24l-17 -10l-16 -11l-35 -20l-57 -25l-37 -12l-18 -4l-19 -6l-18 -4l-21 -2l-18 -4l-21 -3h-20z" />
    <glyph glyph-name="seven" unicode="7" horiz-adv-x="1294" 
d="M154 1313v178h1022v-148l-11 -18l-8 -18l-10 -19l-8 -18l-11 -19l-8 -18l-10 -19l-8 -18l-10 -18l-9 -19l-10 -18l-8 -19l-10 -18l-8 -19l-11 -18l-8 -18l-10 -19l-8 -18l-11 -19l-8 -18l-10 -19l-8 -18l-10 -18l-29 -56l-8 -18l-11 -19l-8 -18l-10 -18l-8 -19l-10 -18
l-9 -19l-10 -18l-8 -19l-10 -18l-8 -16l-11 -19l-8 -18l-10 -19l-8 -18l-11 -19l-8 -18l-10 -18l-8 -19l-10 -18l-29 -56l-8 -18l-11 -18l-8 -19l-10 -18l-8 -19l-10 -18l-9 -19l-10 -18l-8 -19l-10 -18l-8 -18l-11 -19l-8 -18l-10 -19l-8 -18l-11 -19l-8 -18l-10 -18
l-8 -19l-10 -18l-9 -19l-10 -18l-8 -19l-10 -18h-221l10 18l8 19l10 18l8 19l11 18l8 17l20 36l8 19l11 18l8 19l10 18l8 19l21 36l8 17l10 18l8 19l11 18l8 19l20 36l9 19l10 18l8 19l10 16l8 19l21 36l8 19l10 18l9 19l10 18l8 19l39 71l8 19l10 18l9 19l10 18l8 18l20 37
l9 19l10 16l8 18l10 19l8 18l21 37l8 19l10 18l9 19l38 71l9 19l10 18l37 74l10 18l8 17l29 55l8 18l10 19h-798z" />
    <glyph glyph-name="eight" unicode="8" horiz-adv-x="1357" 
d="M659 147h41l21 3h20l21 4l18 2l37 8l17 6l22 6l21 8l55 31l35 27l16 14l14 16l13 19l10 18l16 39l8 41v45l-4 19l-2 18l-6 16l-8 19l-8 16l-10 17l-23 28l-14 15l-31 24l-35 23l-80 33l-59 12l-41 4l-23 2h-43l-20 -2l-23 -2l-20 -2l-39 -8l-18 -4l-64 -25l-18 -8
l-19 -13l-16 -10l-17 -12l-14 -12l-12 -15l-15 -14l-10 -14l-10 -17l-8 -16l-8 -19l-9 -34l-4 -19v-45l4 -20l5 -21l16 -39l10 -18l12 -19l15 -16l35 -29l16 -12l37 -20l18 -11l23 -8l22 -6l17 -6l37 -8l18 -2l20 -4h21zM657 840h45l43 4l41 8l37 12l19 8l16 9l16 8l17 10
l14 12l17 13l28 32l13 17l10 18l16 39l8 43v47l-4 21l-4 18l-6 19l-8 18l-10 18l-13 17l-28 29l-17 14l-14 10l-16 10l-33 17l-19 8l-18 6l-21 6l-41 8l-20 2l-23 2h-45l-45 -4l-41 -8l-18 -6l-21 -6l-51 -25l-16 -10l-14 -10l-17 -14l-28 -29l-13 -17l-18 -34l-6 -19
l-4 -20l-5 -19v-47l5 -22l4 -21l16 -39l10 -18l41 -49l17 -13l14 -12l16 -10l17 -8l16 -9l19 -8l20 -6l18 -6l21 -6l20 -4l23 -2zM723 -20h-86l-84 8l-21 4l-57 12l-18 6l-21 6l-41 15l-53 24l-49 31l-31 23l-31 26l-26 29l-25 33l-20 32l-8 19l-9 16l-8 19l-6 20l-8 39
l-4 41v47l4 41l4 21l18 57l11 18l8 17l10 16l12 16l15 17l12 12l12 14l29 25l31 23l34 22l17 8l18 11l21 8l18 8l21 8l-19 8l-67 41l-17 13l-14 12l-16 12l-52 57l-12 17l-10 16l-8 19l-9 18l-6 19l-12 61l-2 22v48l2 22l8 41l12 39l19 37l10 18l25 35l14 14l12 17l33 28
l16 15l66 41l18 8l19 10l20 8l21 7l20 8l19 4l18 6l39 8l19 2l20 4l20 2h21l20 2h41l21 -2h20l21 -2l20 -4l19 -2l39 -8l18 -6l21 -4l18 -8l21 -7l20 -8l18 -10l19 -8l65 -41l33 -29l14 -14l15 -17l14 -14l35 -53l16 -37l7 -20l6 -19l8 -41l2 -22v-45l-4 -41l-4 -19l-6 -18
l-5 -17l-10 -20l-8 -21l-10 -18l-25 -35l-28 -31l-31 -28l-35 -27l-39 -22l-18 -11l-21 -10l21 -8l90 -49l33 -21l57 -49l37 -45l12 -16l16 -35l9 -17l6 -20l6 -18l4 -21l4 -41v-47l-4 -41l-8 -41l-6 -18l-25 -54l-10 -18l-10 -16l-13 -17l-12 -14l-12 -16l-60 -54l-49 -30
l-16 -11l-53 -24l-41 -15l-39 -12l-78 -16z" />
    <glyph glyph-name="nine" unicode="9" horiz-adv-x="1400" 
d="M664 705h45l45 4l20 4l21 6l18 6l21 6l59 31l18 12l17 14l30 29l37 49l11 19l16 37l6 20l4 21l4 18l2 20v48l-2 20l-4 23l-12 41l-6 18l-21 37l-24 33l-29 30l-14 13l-17 10l-14 10l-16 10l-35 17l-19 8l-41 12l-41 8l-20 2l-23 2h-45l-43 -4l-20 -4l-39 -12l-16 -6
l-60 -31l-33 -26l-41 -46l-22 -34l-25 -60l-6 -20l-8 -41l-2 -21v-49l2 -20l4 -23l4 -20l6 -19l9 -18l8 -19l10 -18l25 -33l12 -14l31 -27l16 -12l18 -12l19 -11l41 -16l18 -6l60 -12zM623 154h45l22 2l23 4l20 4l21 6l18 6l21 8l18 9l18 12l17 10l47 39l14 16l15 15l14 16
l25 35l28 51l8 19l9 18l6 18l8 19l18 61l4 21l5 20l8 41l8 84v64l-12 -19l-15 -16l-12 -17l-29 -30l-30 -27l-17 -14l-51 -33l-53 -27l-56 -18l-40 -8l-41 -4l-23 -2h-43l-20 2h-21l-20 2l-21 4l-18 2l-56 12l-77 29l-56 30l-18 11l-33 24l-45 43l-14 15l-25 32l-10 17
l-12 18l-17 37l-16 39l-6 20l-4 21l-5 20l-4 23l-2 20l-2 23v47l6 64l5 18l4 20l6 21l4 18l16 39l17 35l41 68l26 30l12 15l29 26l17 13l14 12l16 12l72 41l39 17l16 6l39 12l60 12l18 2l22 4h21l20 3h48l22 -3h23l22 -4l21 -2l61 -12l55 -18l19 -11l18 -8l37 -20l66 -47
l45 -43l51 -64l12 -18l8 -17l11 -16l16 -33l8 -18l6 -19l9 -20l4 -19l6 -18l4 -19l6 -18l12 -61l4 -23l4 -37l3 -18l2 -19v-20l2 -21v-20l2 -21v-92l-2 -20v-23l-4 -41l-3 -20l-2 -21l-8 -41l-2 -20l-4 -19l-6 -18l-8 -39l-13 -39l-8 -20l-6 -21l-16 -39l-17 -37l-30 -53
l-31 -49l-12 -14l-54 -64l-14 -12l-14 -14l-17 -13l-14 -12l-16 -12l-17 -10l-18 -13l-17 -8l-16 -10l-55 -25l-58 -18l-41 -8l-41 -4l-20 -3l-20 -2h-46l-22 2h-21l-22 3l-21 4l-20 2l-18 4l-21 4l-74 24l-16 9l-21 8l-16 10l-18 8l-19 10l-16 11l-19 10l-16 12l-66 47
l-16 13l25 32l73 103l13 16l37 -28l16 -15l53 -37l17 -10l18 -8l16 -10l19 -6l18 -9l19 -8l20 -6l62 -12z" />
    <glyph glyph-name="colon" unicode=":" horiz-adv-x="575" 
d="M176 246h223v-246h-223v246zM176 1108h223v-244h-223v244z" />
    <glyph glyph-name="semicolon" unicode=";" horiz-adv-x="575" 
d="M264 0h-88v246h223v-236l-4 -49l-4 -20l-6 -21l-4 -20l-8 -19l-17 -33l-20 -28l-27 -25l-47 -31l-18 -8l-21 -8l-63 -18l-25 -4l-6 20l-6 23l-8 20l-6 23l47 16l20 10l35 23l27 28l10 17l6 16l6 19l4 18v41zM176 1108h223v-244h-223v244z" />
    <glyph glyph-name="less" unicode="&#x3c;" horiz-adv-x="1353" 
d="M147 666v168l19 8l18 10l37 16l19 11l16 8l18 8l56 27l18 10l37 16l18 10l19 9l18 10l35 16l19 11l36 16l56 27l18 10l37 16l16 10l37 17l19 10l37 16l18 11l37 16l18 10l19 8l35 19l18 8l18 10l37 17l19 10l37 16l18 11l35 16l18 10l19 8l37 19l18 8v-190l-37 -19
l-37 -16l-20 -11l-37 -16l-19 -10l-55 -27l-18 -8l-21 -8l-18 -10l-37 -17l-18 -10l-37 -16l-19 -11l-18 -8l-21 -8l-55 -27l-18 -8l-19 -10l-37 -16l-18 -11l-21 -8l-18 -8l-18 -10l-37 -17l-19 -10l-37 -16l-20 -11l-37 -16l-18 -10l-19 -8l19 -9l18 -10l37 -16l39 -19
l18 -8l19 -10l37 -16l18 -11l76 -35l18 -10l37 -16l94 -45l19 -8l18 -11l37 -16l18 -10l76 -35l19 -10l55 -27l37 -16l20 -11l37 -16l19 -10l18 -8v-193l-18 8l-19 11l-37 16l-53 27l-18 10l-37 16l-37 19l-19 8l-18 10l-18 8l-35 19l-19 8l-18 10l-37 16l-18 11l-37 16
l-37 19l-19 8l-16 10l-37 16l-18 11l-37 16l-19 10l-90 43l-18 10l-19 9l-18 10l-37 16l-18 11l-37 16l-19 10l-18 8l-35 19l-37 16l-18 10z" />
    <glyph glyph-name="equal" unicode="=" horiz-adv-x="1353" 
d="M176 586h1002v-183h-1002v183zM176 1096h1002v-183h-1002v183z" />
    <glyph glyph-name="greater" unicode="&#x3e;" horiz-adv-x="1353" 
d="M203 1133v190l55 -27l18 -8l19 -10l35 -16l18 -11l37 -16l18 -10l19 -8l37 -19l55 -27l18 -8l19 -10l35 -16l18 -11l37 -16l18 -10l19 -8l37 -19l37 -16l18 -10l18 -9l19 -8l18 -10l35 -16l19 -11l36 -16l56 -29l37 -16l18 -10l18 -9l19 -8l18 -10l35 -16l19 -11l36 -16
l19 -10l18 -8v-168l-37 -19l-36 -16l-37 -19l-17 -8l-18 -10l-37 -16l-18 -11l-37 -16l-56 -29l-36 -16l-37 -19l-17 -8l-18 -10l-37 -16l-18 -11l-37 -16l-56 -27l-18 -10l-37 -16l-18 -11l-35 -16l-19 -10l-55 -27l-18 -8l-56 -27l-18 -10l-37 -16l-35 -19l-18 -8l-19 -10
l-36 -16l-19 -11l-18 -8v191l18 8l19 10l36 16l21 11l37 16l18 10l19 8l37 19l18 8l20 8l19 11l37 16l18 10l19 8l36 19l58 24l18 11l37 16l19 10l55 27l39 16l18 10l37 17l18 10l37 16l21 11l37 16l18 10l19 9l-19 8l-18 10l-37 16l-21 11l-18 8l-19 10l-36 16l-19 11
l-37 16l-20 10l-19 8l-18 11l-37 16l-18 10l-37 17l-19 10l-20 8l-37 19l-18 8l-19 10l-37 16l-18 11l-19 8l-20 10l-37 16l-18 11l-37 16l-19 10l-18 8l-21 11l-36 16z" />
    <glyph glyph-name="question" unicode="?" horiz-adv-x="1163" 
d="M420 246h221v-246h-221v246zM858 1055v45l-4 20l-2 21l-12 39l-21 32l-10 17l-14 16l-15 15l-14 12l-16 12l-17 8l-16 11l-19 8l-20 6l-41 8l-23 4l-22 2h-47l-23 -2l-20 -2l-41 -8l-41 -12l-19 -7l-69 -36l-17 -13l-16 -10l-31 -24l-30 -29l-17 -14l-28 -33l-15 14
l-12 14l-29 27l-26 29l-15 12l-26 29l28 32l15 15l14 16l82 68l18 12l17 10l18 13l51 26l35 15l37 12l21 6l18 4l20 4l21 2l20 4l21 2h22l23 2h45l20 -2h21l20 -2l21 -4l18 -2l21 -4l18 -6l19 -4l37 -12l18 -9l18 -8l68 -41l14 -12l15 -10l30 -31l27 -33l23 -35l10 -18
l16 -37l6 -16l4 -19l7 -18l4 -21l6 -59v-49l-6 -62l-4 -20l-7 -19l-4 -18l-6 -16l-16 -35l-10 -19l-13 -16l-10 -16l-12 -17l-15 -14l-12 -14l-14 -13l-17 -14l-32 -23l-35 -20l-37 -19l-21 -8l-18 -8l-37 -12l-18 -4l-19 -6l-18 -5l-21 -4l-18 -4l-21 -2l-2 -20l-2 -23
l-2 -20l-14 -150h-127l-16 164l-4 18l-3 21l-14 143l10 11l27 2h25l22 2l25 4l22 2l62 12l37 12l34 13l17 8l28 16l15 10l30 25l15 14l22 31l17 35l12 37l4 18z" />
    <glyph glyph-name="at" unicode="@" horiz-adv-x="2103" 
d="M948 297h43l21 2l18 4l21 6l18 6l21 9l34 18l17 10l33 27l43 45l36 53l19 39l8 19l6 18l12 55l2 19l3 20v41l-3 21l-8 41l-6 18l-8 18l-21 35l-24 31l-29 25l-16 12l-35 16l-37 13l-20 4l-21 2h-41l-18 -2l-21 -4l-18 -7l-21 -6l-18 -6l-37 -20l-35 -25l-47 -43l-26 -33
l-11 -18l-12 -17l-10 -18l-8 -20l-9 -19l-6 -16l-12 -58l-4 -41v-45l2 -22l8 -41l8 -19l6 -18l21 -33l12 -16l13 -12l14 -15l14 -10l17 -10l34 -17l19 -6l18 -4l21 -4zM1114 -344h-86l-41 4h-22l-21 4l-41 4l-18 4l-21 4l-20 5l-19 4l-39 12l-20 4l-18 8l-37 12l-37 17
l-21 8l-18 10l-19 8l-16 11l-37 20l-33 21l-32 24l-17 10l-47 39l-28 27l-15 12l-14 17l-15 14l-40 47l-62 86l-20 37l-11 18l-28 58l-8 20l-9 19l-6 18l-8 19l-6 20l-6 18l-4 21l-7 18l-16 80l-10 103v86l10 102l8 41l4 18l4 21l7 20l6 19l4 20l8 19l6 18l8 21l33 73l29 54
l10 16l10 18l13 17l32 47l66 76l27 28l30 27l15 12l14 13l33 24l30 25l70 41l16 10l19 8l18 10l37 17l39 16l18 6l21 6l18 7l41 12l80 16l84 8l23 3h86l20 -3l84 -8l21 -4l20 -2l21 -4l20 -6l39 -8l20 -6l19 -7l18 -6l21 -8l18 -6l60 -27l18 -10l19 -8l53 -31l18 -12l17 -10
l32 -25l17 -10l30 -27l17 -12l14 -14l17 -15l14 -16l14 -14l15 -17l14 -14l24 -33l15 -16l10 -19l25 -35l30 -53l11 -18l32 -78l7 -19l6 -20l6 -18l6 -21l16 -80l4 -41v-20l2 -21v-65l-8 -82l-4 -19l-2 -18l-8 -37l-6 -16l-4 -17l-8 -22l-9 -21l-10 -20l-8 -19l-21 -36
l-12 -17l-12 -14l-10 -15l-15 -16l-16 -14l-14 -15l-68 -43l-16 -8l-23 -8l-41 -12l-43 -8l-20 -2h-48l-43 4l-22 4l-18 4l-21 4l-18 8l-17 6l-16 8l-35 23l-16 12l-17 15l-14 14l-25 33l-10 16l-8 18l-43 -45l-66 -51l-34 -22l-19 -11l-16 -8l-19 -8l-39 -12l-41 -8l-45 -4
h-45l-45 4l-20 4l-41 12l-41 16l-19 9l-18 10l-33 24l-16 13l-14 14l-17 14l-37 52l-20 36l-8 21l-9 18l-6 19l-12 59l-2 23l-2 20v43l2 21l6 59l8 37l19 55l16 37l8 21l10 18l11 16l10 19l63 78l50 43l32 24l37 23l39 20l39 17l39 12l18 4l21 4l41 4h45l22 -2l23 -4l20 -2
l21 -6l35 -12l35 -17l32 -22l17 -15l14 -14l16 -14l13 -17l12 -14l12 -16l11 -17l12 62l16 79l21 -2l20 -4l21 -2l20 -4l19 -2l20 -4l21 -2l20 -4l-4 -21l-2 -18l-12 -61l-2 -19l-5 -20l-4 -21l-2 -18l-12 -62l-2 -18l-12 -62l-2 -18l-4 -21l-5 -20l-2 -18l-12 -62l-2 -18
l-8 -41l-2 -19l-4 -16v-16l-4 -27v-43l8 -39l6 -16l8 -17l12 -14l13 -12l12 -13l16 -10l17 -8l20 -6l41 -8h43l19 2l18 4l19 6l16 6l18 8l35 21l31 26l29 35l10 14l20 37l8 19l11 20l6 23l8 22l8 35l4 16l4 19l4 39l3 20l2 23v63l-2 21v22l-5 21l-2 20l-12 62l-12 41l-6 18
l-17 41l-8 21l-10 16l-8 18l-21 35l-10 19l-59 81l-15 15l-12 16l-14 15l-15 14l-14 16l-59 49l-33 25l-17 10l-16 13l-16 10l-19 10l-16 10l-19 8l-18 11l-37 16l-18 10l-19 6l-39 15l-18 6l-19 4l-18 6l-41 8l-39 9l-102 10h-86l-84 -8l-21 -4l-20 -3l-39 -8l-21 -6
l-18 -4l-18 -6l-21 -6l-18 -8l-19 -7l-37 -16l-20 -10l-19 -8l-71 -41l-97 -74l-16 -14l-43 -43l-14 -17l-13 -14l-12 -17l-26 -30l-11 -19l-12 -16l-10 -16l-41 -72l-8 -21l-9 -18l-8 -18l-8 -21l-6 -18l-8 -19l-6 -18l-5 -19l-6 -20l-16 -78l-10 -100v-82l10 -103l16 -78
l6 -18l5 -20l6 -19l8 -18l6 -19l33 -75l20 -37l31 -52l35 -49l14 -16l12 -16l13 -15l14 -14l14 -17l15 -12l45 -41l33 -26l34 -23l17 -10l18 -12l37 -21l19 -8l18 -10l41 -19l72 -24l18 -7l18 -6l21 -4l18 -4l21 -4l18 -4l101 -10l22 -2h86l23 2h20l64 6l18 4l21 2l94 20
l18 7l19 6l18 8l21 6l18 8l18 6l19 9l18 10l21 8l73 41l13 -18l12 -21l12 -18l-18 -11l-19 -10l-16 -10l-18 -10l-19 -8l-18 -11l-58 -24l-18 -6l-20 -9l-37 -12l-21 -8l-18 -4l-19 -6l-57 -13l-20 -4l-21 -2l-18 -4l-64 -6h-20z" />
    <glyph glyph-name="A" unicode="A" horiz-adv-x="1699" 
d="M530 561h631l-65 150l-19 37l-24 57l-41 92l-8 21l-41 92l-9 18l-16 39l-27 55l-65 150l-8 -19l-9 -18l-8 -18l-24 -58l-25 -55l-67 -150l-9 -18l-8 -18l-24 -58l-41 -94l-19 -37l-41 -92zM758 1501h184l16 -37l9 -18l8 -21l10 -18l16 -37l58 -131l10 -18l49 -113l8 -21
l9 -18l8 -18l67 -150l9 -18l8 -21l10 -18l41 -92l33 -76l10 -19l8 -18l8 -21l41 -92l8 -20l9 -19l10 -18l16 -37l9 -18l40 -95l19 -38l24 -56l9 -18l32 -76l19 -37l8 -18l33 -76h-209l-16 37l-41 92l-25 55l-63 146l-25 55h-778l-49 -111l-33 -73l-6 -17l-41 -92l-41 -92
h-203l16 37l9 18l8 21l10 18l33 74l16 39l17 37l10 18l57 131l8 21l11 18l32 74l33 76l59 131l43 94l25 55l8 21l8 18l11 19l24 55l41 94l51 113l9 18l8 21l8 18l10 18l8 19l58 131l10 18z" />
    <glyph glyph-name="B" unicode="B" horiz-adv-x="1554" 
d="M408 668v-492h503l68 6l41 8l39 11l16 6l49 24l33 23l14 14l15 17l12 16l10 18l9 19l6 20l8 43v50l-8 41l-6 18l-9 18l-10 17l-12 16l-15 17l-14 14l-18 12l-15 8l-14 9l-14 8l-35 12l-19 6l-59 12l-22 3l-23 4h-25l-24 2h-481zM408 1315v-477h440l45 4l20 2l21 4l20 6
l19 4l18 6l19 8l16 9l16 8l17 10l16 12l15 15l14 16l10 16l19 37l6 21l4 20l4 23v51l-4 23l-4 20l-9 18l-8 19l-10 18l-14 17l-31 28l-14 11l-47 24l-35 12l-21 5l-20 4l-68 6h-454zM213 1491h668l22 -2h23l22 -2l21 -4l20 -2l41 -8l19 -5l36 -12l41 -16l21 -10l18 -11
l19 -10l16 -10l33 -25l14 -14l41 -51l12 -19l21 -39l12 -37l8 -36l2 -21l3 -20v-47l-3 -23l-2 -23l-4 -20l-6 -18l-4 -19l-10 -22l-8 -21l-23 -37l-26 -33l-13 -14l-30 -26l-17 -13l-16 -10l-17 -12l-16 -8l-18 -11l-17 -8l55 -18l17 -9l35 -16l34 -18l19 -13l16 -10l31 -26
l16 -15l13 -14l24 -33l21 -35l8 -18l6 -19l6 -16l4 -18l4 -21l2 -20l3 -21v-45l-3 -20l-2 -21l-8 -39l-4 -18l-6 -19l-8 -18l-29 -53l-12 -17l-43 -47l-17 -14l-18 -12l-16 -13l-35 -20l-37 -19l-41 -16l-43 -12l-18 -6l-19 -5l-39 -8l-82 -8l-22 -2h-715v1491z" />
    <glyph glyph-name="C" unicode="C" horiz-adv-x="1595" 
d="M942 -25h-65l-23 2h-20l-21 3l-20 2l-21 4l-20 2l-21 4l-18 4l-21 6l-18 6l-21 6l-37 13l-75 34l-37 21l-17 12l-67 47l-14 15l-31 26l-43 45l-62 84l-20 35l-10 19l-11 18l-39 96l-18 58l-16 79l-6 62l-3 20v88l3 21l6 61l16 80l18 58l39 96l41 74l49 65l27 33l43 43
l17 14l16 12l14 15l51 35l19 12l37 20l18 11l19 10l20 8l18 8l19 6l20 9l39 12l101 20l43 4h22l21 3h67l21 -3l43 -4l18 -2l21 -2l18 -4l21 -2l20 -6l18 -4l95 -31l18 -8l21 -8l73 -41l19 -12l49 -37l16 -15l17 -12l32 -29l17 -14l-57 -65l-72 -80l-33 28l-14 15l-68 49
l-35 22l-16 11l-18 8l-17 10l-35 16l-18 7l-37 12l-37 8l-20 4l-21 2l-20 4h-23l-20 2h-43l-64 -6l-41 -8l-18 -4l-21 -6l-37 -13l-36 -16l-17 -10l-18 -8l-17 -11l-16 -12l-16 -10l-58 -51l-41 -45l-45 -64l-10 -18l-8 -19l-10 -18l-9 -19l-6 -18l-8 -21l-12 -38l-6 -21
l-4 -20l-5 -21l-2 -20l-2 -23l-2 -20l-2 -23v-47l2 -20v-21l2 -18l4 -21l2 -18l5 -19l4 -20l6 -19l4 -18l6 -19l8 -16l6 -20l9 -19l10 -18l8 -19l21 -34l24 -33l10 -15l41 -45l43 -39l31 -24l33 -21l90 -43l18 -6l21 -6l59 -12l41 -4l23 -2h41l20 2h21l20 2l19 4l18 2l18 4
l21 6l20 4l41 15l37 16l19 10l18 8l18 13l52 34l14 13l45 35l14 14l15 12l14 15l43 -43l14 -15l15 -12l57 -57l-14 -15l-17 -14l-28 -29l-17 -12l-14 -14l-64 -50l-67 -41l-16 -8l-19 -8l-18 -10l-19 -6l-18 -8l-39 -13l-41 -12l-41 -8l-18 -4l-62 -6l-22 -3z" />
    <glyph glyph-name="D" unicode="D" horiz-adv-x="1681" 
d="M410 1311v-1131h356l20 2h23l20 2l21 4l20 2l39 9l76 24l21 8l36 19l17 8l18 10l17 13l16 10l47 37l29 28l26 33l15 17l12 16l41 76l8 20l6 19l9 18l4 20l6 21l4 18l4 21l2 20l4 21v22l2 21v47l-2 22v21l-4 20l-2 21l-8 41l-6 18l-4 21l-9 18l-6 21l-24 53l-11 16l-10 19
l-10 16l-12 14l-11 17l-39 43l-14 14l-47 37l-16 10l-17 13l-35 20l-36 16l-21 11l-55 18l-21 4l-18 6l-21 4l-20 3l-21 4l-20 2h-23l-20 2h-356zM213 0v1491h573l105 -10l41 -8l20 -5l39 -8l74 -24l20 -11l41 -16l74 -41l19 -12l65 -49l45 -43l68 -78l33 -51l10 -19l10 -16
l10 -19l8 -20l11 -19l6 -18l8 -18l12 -37l4 -19l7 -20l8 -39l2 -19l4 -20l4 -41v-20l2 -21v-45l-2 -20v-21l-4 -41l-4 -20l-2 -21l-4 -18l-4 -21l-7 -18l-4 -19l-6 -18l-6 -21l-8 -18l-6 -16l-11 -21l-38 -74l-23 -34l-10 -17l-39 -47l-43 -45l-15 -12l-14 -15l-14 -12
l-31 -22l-16 -13l-68 -41l-18 -10l-35 -16l-21 -8l-18 -9l-18 -6l-19 -8l-18 -6l-19 -4l-20 -6l-19 -4l-20 -5l-41 -8l-82 -8l-23 -2h-573z" />
    <glyph glyph-name="E" unicode="E" horiz-adv-x="1443" 
d="M213 1491h1085v-178h-888v-473h792v-178h-792v-484h899v-178h-1096v1491z" />
    <glyph glyph-name="F" unicode="F" horiz-adv-x="1413" 
d="M213 1491h1083v-180h-886v-494h790v-180h-790v-637h-197v1491z" />
    <glyph glyph-name="G" unicode="G" horiz-adv-x="1685" 
d="M1325 633h-430v174h621v-604l-29 -25l-31 -22l-16 -13l-35 -20l-16 -12l-37 -21l-19 -10l-18 -8l-19 -11l-20 -10l-21 -8l-18 -8l-18 -6l-19 -9l-18 -6l-21 -6l-18 -4l-21 -6l-41 -8l-20 -2l-21 -4l-20 -2l-23 -2l-20 -3l-23 -2h-88l-22 2l-21 3l-41 4l-20 4l-21 2l-18 4
l-21 4l-18 6l-18 4l-37 12l-19 7l-16 8l-21 8l-20 10l-18 8l-72 43l-49 37l-17 15l-14 14l-14 12l-43 45l-50 66l-10 18l-12 17l-10 18l-8 19l-11 18l-24 59l-6 19l-7 18l-12 39l-4 19l-6 20l-4 21l-2 18l-4 20l-6 62l-3 20v88l3 21l6 59l4 21l4 18l4 21l4 18l6 21l4 18
l6 18l9 19l6 20l16 39l49 92l49 68l41 47l43 43l17 12l16 15l33 24l16 13l19 10l73 41l21 10l76 29l18 4l21 6l82 16l20 2l23 2h20l23 3h69l21 -3l106 -10l21 -4l22 -6l21 -4l43 -12l18 -7l21 -6l55 -24l18 -10l19 -9l16 -10l19 -10l16 -10l16 -13l17 -10l33 -25l16 -14
l16 -12l-12 -14l-12 -17l-37 -43l-39 -45l-12 -16l-13 -15l-16 15l-33 24l-16 13l-17 12l-71 41l-19 8l-16 10l-33 13l-18 6l-35 8l-21 4l-18 4l-20 4l-43 4h-23l-23 2h-43l-61 -6l-41 -8l-18 -4l-39 -12l-56 -27l-55 -33l-35 -24l-30 -29l-17 -14l-26 -31l-13 -17l-12 -14
l-10 -16l-13 -17l-10 -16l-8 -18l-35 -74l-6 -21l-8 -18l-4 -21l-6 -20l-4 -21l-5 -20l-2 -20l-4 -21v-20l-2 -23v-45l2 -20v-21l4 -41l4 -20l5 -19l8 -39l6 -18l4 -19l8 -18l6 -21l9 -18l8 -18l10 -19l10 -16l10 -19l23 -32l10 -15l41 -45l43 -39l17 -12l16 -10l16 -13
l17 -10l18 -8l19 -10l18 -8l18 -9l35 -12l19 -4l20 -6l19 -2l39 -8l20 -2h20l23 -2h43l21 2h22l21 4l20 2l61 12l21 6l18 6l21 9l20 6l21 10l20 8l56 29l16 10l16 12l17 11l14 12v342z" />
    <glyph glyph-name="H" unicode="H" horiz-adv-x="1634" 
d="M213 1491h197v-649h815v649h198v-1491h-198v659h-815v-659h-197v1491z" />
    <glyph glyph-name="I" unicode="I" horiz-adv-x="653" 
d="M227 1491h199v-1491h-199v1491z" />
    <glyph glyph-name="J" unicode="J" horiz-adv-x="1198" 
d="M809 1491h201v-1018l-2 -22v-23l-2 -20l-5 -23l-2 -20l-4 -21l-6 -20l-4 -19l-12 -37l-8 -20l-31 -60l-10 -18l-13 -16l-12 -17l-43 -45l-63 -47l-17 -8l-16 -10l-19 -9l-18 -6l-21 -8l-18 -6l-61 -12l-68 -6h-43l-20 2h-21l-18 2l-21 4l-18 2l-35 8l-21 6l-18 6l-72 33
l-16 10l-19 10l-18 13l-16 14l-19 12l-14 17l-16 14l-44 49l-14 17l-24 37l14 14l16 14l62 55l14 15l31 28l14 -18l12 -18l15 -19l28 -31l29 -28l45 -35l17 -10l14 -10l18 -9l35 -12l21 -4l18 -4l41 -4h43l20 2l41 8l19 8l16 6l35 21l31 24l14 17l12 12l11 14l10 17l16 33
l13 38l8 41l4 23l4 49v1018z" />
    <glyph glyph-name="K" unicode="K" horiz-adv-x="1552" 
d="M213 1491h197v-848l14 14l14 17l101 102l12 17l29 28l28 31l129 133l15 14l14 17l29 28l14 15l12 16l43 43l58 60l43 45l57 59l57 59l13 17l43 43l28 31l29 28l14 17l15 14h252l-15 -14l-28 -31l-15 -14l-100 -103l-17 -14l-28 -31l-43 -43l-15 -14l-28 -31l-43 -43
l-15 -14l-14 -17l-57 -57l-15 -14l-14 -17l-102 -102l-43 -43l-43 -45l24 -33l15 -16l36 -50l27 -30l100 -131l15 -17l24 -32l64 -80l12 -17l27 -32l37 -50l51 -63l12 -17l27 -32l24 -33l27 -33l24 -33l52 -63l24 -33l15 -16l24 -33h-244l-36 49l-15 14l-61 82l-64 80
l-12 17l-25 30l-12 17l-14 16l-101 129l-12 17l-61 79l-27 31l-24 33l-37 49l-15 14l-37 50l-88 -89l-116 -118l-15 -17l-14 -14l-16 -14l-15 -15l-14 -16l-14 -14v-410h-197v1491z" />
    <glyph glyph-name="L" unicode="L" horiz-adv-x="1329" 
d="M213 1491h197v-1311h823v-180h-1020v1491z" />
    <glyph glyph-name="M" unicode="M" horiz-adv-x="1865" 
d="M213 1491h203l22 -35l56 -84l12 -16l10 -19l35 -49l10 -18l35 -51l10 -17l45 -67l13 -17l10 -16l10 -19l23 -32l57 -86l10 -17l12 -16l11 -19l12 -16l10 -16l12 -17l11 -18l12 -17l10 -16l13 -18l10 -17l12 -16l10 -17l13 -18l10 -16l33 51l12 16l45 68l10 18l35 49
l10 19l13 16l32 51l13 17l32 51l13 16l10 19l45 67l10 17l45 67l13 17l10 18l12 17l10 16l13 16l10 19l12 16l10 17l13 18l10 16l45 68h205v-1491h-197v1167l-12 -16l-10 -18l-25 -33l-10 -19l-25 -32l-10 -19l-25 -35l-10 -16l-59 -86l-10 -16l-13 -17l-12 -18l-10 -17
l-13 -16l-12 -18l-10 -17l-12 -18l-13 -17l-22 -34l-13 -17l-22 -35l-23 -32l-12 -19l-12 -16l-10 -17l-25 -34l-10 -19l-25 -33l-10 -18l-25 -33l-10 -18l-12 -17h-8l-13 17l-10 18l-24 33l-11 18l-82 119l-45 68l-12 16l-22 35l-13 16l-22 35l-13 16l-92 138l-35 51
l-12 16l-45 68l-12 16l-10 19l-25 32l-10 19l-12 16v-1163h-193v1491z" />
    <glyph glyph-name="N" unicode="N" horiz-adv-x="1699" 
d="M213 1491h182l13 -16l51 -64l24 -33l27 -32l61 -80l76 -97l15 -16l61 -82l27 -31l36 -49l88 -112l15 -17l61 -80l15 -16l61 -82l27 -31l200 -258l15 -16l24 -33v1145h195v-1491h-162l-37 49l-14 14l-12 17l-37 49l-13 16l-14 15l-49 65l-12 17l-13 16l-14 14l-12 17
l-62 82l-14 14l-61 82l-15 14l-24 33l-50 66l-14 14l-49 65l-12 17l-13 16l-14 15l-61 81l-15 15l-73 98l-15 14l-74 99l-14 14l-24 33l-37 49l-15 14l-36 50v-1174h-193v1491z" />
    <glyph glyph-name="O" unicode="O" horiz-adv-x="1826" 
d="M893 156h45l20 2l23 2l20 2l62 12l39 12l76 33l51 31l47 37l29 26l26 29l12 16l13 15l12 16l10 17l11 16l20 37l16 37l9 18l6 21l8 18l4 20l6 21l8 41l2 20l5 21v22l2 21v49l-2 20l-3 23l-4 41l-8 41l-24 82l-9 18l-8 19l-20 37l-11 16l-20 35l-12 16l-13 14l-12 17
l-43 43l-14 12l-17 12l-14 13l-16 12l-51 31l-76 35l-39 12l-62 12l-20 2l-23 2l-20 2h-45l-64 -6l-61 -12l-21 -6l-18 -6l-20 -9l-19 -6l-18 -10l-19 -8l-51 -31l-47 -37l-29 -26l-12 -15l-14 -14l-37 -47l-10 -17l-11 -16l-20 -37l-25 -55l-6 -21l-8 -18l-4 -20l-6 -21
l-4 -20l-5 -21l-2 -20l-4 -21v-22l-2 -21v-49l8 -84l5 -21l4 -20l18 -61l8 -19l6 -20l11 -19l8 -18l41 -70l37 -47l28 -29l29 -26l47 -37l51 -31l76 -35l39 -12l61 -12zM954 -25h-86l-20 2l-21 3l-39 4l-20 4l-18 2l-21 4l-18 6l-21 4l-37 12l-18 7l-17 6l-18 8l-20 8
l-76 41l-17 12l-18 11l-33 24l-16 14l-17 13l-59 57l-63 82l-23 35l-39 74l-16 38l-6 19l-9 18l-6 21l-4 18l-6 19l-12 59l-4 18l-6 62l-3 20v86l3 21l6 61l16 78l12 37l6 21l7 18l8 18l24 58l31 55l35 53l24 33l15 14l28 33l13 12l14 15l29 24l16 15l15 10l16 12l16 10
l17 13l16 10l18 10l17 8l18 11l19 8l18 10l19 6l16 8l18 7l37 12l21 4l18 4l21 4l18 4l21 4l59 6l20 3h86l21 -3l41 -4l18 -2l21 -4l20 -2l19 -4l18 -6l21 -4l37 -12l73 -29l76 -41l16 -12l19 -11l33 -24l16 -15l33 -26l28 -29l15 -14l39 -49l24 -33l13 -16l30 -56l8 -18
l11 -19l8 -18l8 -21l6 -18l8 -18l7 -21l4 -18l6 -19l16 -78l8 -81v-86l-8 -82l-16 -78l-6 -19l-7 -18l-6 -21l-12 -36l-27 -58l-41 -74l-36 -51l-13 -16l-14 -14l-55 -60l-60 -49l-49 -35l-16 -10l-35 -18l-18 -11l-56 -24l-16 -8l-55 -19l-99 -20l-18 -2l-21 -2l-20 -3z
" />
    <glyph glyph-name="P" unicode="P" horiz-adv-x="1439" 
d="M410 690h370l23 2l59 6l19 4l55 17l37 16l35 19l30 22l15 15l16 14l25 33l12 18l10 18l8 21l13 41l4 20l2 23v49l-2 23l-8 41l-5 20l-16 35l-8 16l-10 17l-39 43l-15 12l-16 10l-16 8l-17 11l-16 8l-19 8l-36 12l-41 8l-23 5l-68 6h-378v-621zM213 1491h590l22 -2h23
l43 -4l61 -12l21 -5l18 -6l21 -4l18 -8l60 -25l34 -18l17 -10l16 -13l17 -10l30 -26l29 -29l14 -16l13 -17l43 -74l6 -18l8 -18l4 -21l6 -18l4 -21l4 -18l6 -64v-49l-2 -20l-2 -23l-2 -20l-12 -58l-12 -37l-8 -18l-19 -35l-10 -16l-10 -19l-39 -47l-27 -28l-31 -25l-18 -12
l-16 -13l-74 -41l-39 -16l-62 -18l-20 -7l-39 -8l-20 -2l-21 -4l-43 -4h-20l-21 -2h-364v-512h-197v1491z" />
    <glyph glyph-name="Q" unicode="Q" horiz-adv-x="1826" 
d="M893 156h43l20 2h19l20 2l19 4l18 2l37 8l18 6l21 6l74 33l18 10l17 11l16 12l-76 65l-45 39l-14 15l-17 12l-59 51l-61 53l12 15l14 14l12 14l15 15l12 16l12 14l15 15l12 14l14 14l13 15l14 -15l47 -40l14 -15l31 -26l92 -84l62 -56l14 -14l12 16l11 17l20 37l25 55
l6 20l8 21l4 16l16 76l2 21l3 18v20l2 21v47l-2 20l-3 23l-4 41l-8 41l-24 82l-9 18l-8 19l-20 37l-11 16l-20 35l-12 16l-13 14l-12 17l-43 43l-14 12l-17 12l-14 13l-16 12l-51 31l-76 35l-39 12l-62 12l-20 2l-23 2l-20 2h-45l-64 -6l-61 -12l-21 -6l-18 -6l-20 -9
l-19 -6l-18 -10l-19 -8l-51 -31l-47 -37l-29 -26l-12 -15l-14 -14l-37 -47l-10 -17l-11 -16l-20 -37l-25 -55l-6 -21l-8 -18l-4 -20l-6 -21l-4 -20l-5 -21l-2 -20l-4 -21v-22l-2 -21v-49l8 -84l5 -21l4 -20l18 -61l8 -19l6 -20l11 -19l8 -18l41 -70l37 -47l28 -29l29 -26
l47 -37l51 -31l76 -35l39 -12l61 -12zM952 -25h-84l-20 2l-21 3l-39 4l-20 4l-18 2l-21 4l-18 6l-21 4l-37 12l-18 7l-17 6l-18 8l-20 8l-76 41l-17 12l-18 11l-33 24l-16 14l-17 13l-59 57l-63 82l-23 35l-39 74l-16 38l-6 19l-9 18l-6 21l-4 18l-6 19l-12 59l-4 18l-6 62
l-3 20v86l3 21l6 61l16 78l12 37l6 21l7 18l8 18l24 58l31 55l35 53l24 33l15 14l28 33l13 12l14 15l29 24l16 15l15 10l16 12l16 10l17 13l16 10l18 10l17 8l18 11l19 8l18 10l19 6l16 8l18 7l37 12l21 4l18 4l21 4l18 4l21 4l59 6l20 3h86l21 -3l41 -4l18 -2l21 -4l20 -2
l19 -4l18 -6l21 -4l37 -12l73 -29l76 -41l16 -12l19 -11l33 -24l16 -15l33 -26l28 -29l15 -14l39 -49l24 -33l13 -16l30 -56l8 -18l11 -19l8 -18l8 -21l6 -18l8 -18l7 -21l4 -18l6 -19l16 -78l8 -81v-66l-2 -20v-23l-4 -41l-4 -18l-2 -21l-8 -41l-6 -18l-4 -21l-7 -18
l-6 -19l-16 -39l-6 -18l-8 -18l-11 -17l-8 -18l-20 -35l-31 -49l-25 -31l17 -14l14 -13l17 -14l16 -12l14 -14l17 -13l16 -14l14 -14l64 -54l-88 -96l-15 -14l-28 -33l-15 12l-14 15l-16 12l-29 26l-14 15l-17 12l-43 41l-16 12l-14 15l-15 12l-16 -12l-17 -11l-16 -12
l-16 -10l-17 -8l-18 -11l-35 -18l-18 -8l-76 -27l-19 -6l-18 -4l-20 -6l-19 -4l-18 -2l-21 -4l-18 -2l-21 -2l-20 -3z" />
    <glyph glyph-name="R" unicode="R" horiz-adv-x="1556" 
d="M410 737h458l64 6l20 5l21 4l20 6l62 24l35 21l16 12l43 41l20 33l11 16l8 19l6 18l6 21l4 20l2 21v49l-2 20l-4 21l-4 18l-12 37l-10 16l-9 17l-24 28l-15 15l-14 12l-43 29l-16 8l-19 6l-16 6l-19 6l-41 8l-20 5l-68 6h-460v-574zM213 1491h670l24 -2h21l45 -4l20 -4
l21 -2l20 -4l19 -7l20 -4l37 -12l41 -16l18 -11l21 -10l35 -22l16 -11l31 -26l41 -43l35 -49l10 -19l24 -57l7 -19l12 -63l4 -43v-49l-2 -23l-2 -20l-2 -23l-4 -20l-19 -58l-8 -20l-10 -21l-10 -18l-13 -18l-12 -19l-12 -16l-15 -17l-57 -51l-33 -20l-16 -11l-35 -18l-18 -8
l-19 -6l-20 -9l-21 -6l-18 -6l-23 -6l-20 -4l24 -33l37 -49l13 -16l12 -19l49 -65l86 -115l10 -18l49 -66l37 -49l86 -117l37 -49h-237l-62 82l-10 16l-12 17l-13 16l-12 19l-86 114l-10 17l-49 65l-50 66l-71 100l-37 49h-397v-561h-197v1491z" />
    <glyph glyph-name="S" unicode="S" horiz-adv-x="1380" 
d="M371 1116v-24l2 -19l8 -35l6 -16l8 -14l8 -17l13 -14l30 -27l13 -10l47 -25l59 -24l17 -6l16 -4l16 -7l19 -4l18 -6l21 -6l20 -4l23 -6l22 -4l23 -6l24 -7l74 -18l23 -8l22 -6l62 -23l55 -24l16 -11l33 -16l29 -20l14 -11l12 -8l43 -43l13 -16l10 -15l10 -18l10 -16
l7 -19l8 -18l6 -21l8 -41l4 -45v-49l-4 -41l-12 -59l-6 -19l-9 -18l-6 -17l-10 -20l-12 -18l-10 -19l-15 -16l-12 -17l-47 -45l-49 -35l-37 -20l-58 -25l-41 -12l-18 -6l-41 -8l-20 -2l-21 -4l-22 -2h-21l-22 -2h-64l-102 10l-99 20l-20 6l-55 19l-37 16l-19 6l-18 11l-19 8
l-16 10l-18 8l-19 10l-16 13l-17 10l-18 12l-66 49l-32 29l14 16l12 17l15 14l12 17l27 32l14 15l12 16l15 16l32 -28l17 -13l16 -14l16 -12l17 -10l16 -13l33 -20l84 -43l18 -8l19 -6l18 -7l21 -6l18 -6l41 -8l21 -2l22 -4l21 -2h22l23 -2h45l45 4l20 4l21 2l55 18l16 9
l33 16l31 24l27 29l12 17l10 16l6 16l6 19l9 39v47l-5 22l-4 21l-6 20l-10 19l-12 16l-17 18l-18 17l-51 31l-64 28l-18 4l-35 13l-62 18l-24 6l-23 4l-24 6l-23 5l-22 6l-23 4l-61 18l-19 4l-55 19l-16 8l-21 6l-39 19l-18 10l-17 8l-32 20l-47 37l-17 17l-14 16l-25 35
l-28 55l-7 19l-8 39l-4 22l-4 43v51l2 23l12 61l7 21l16 39l20 36l13 17l12 18l12 15l15 16l32 29l15 12l16 10l14 13l54 28l37 17l20 6l18 6l19 4l18 6l21 4l18 2l21 4l20 2h21l20 2h68l88 -8l20 -4l21 -2l41 -8l37 -12l18 -4l72 -29l35 -17l51 -30l16 -11l19 -10l65 -49
l-61 -84l-13 -16l-12 -19l-25 -32l-16 14l-53 37l-70 41l-33 16l-18 6l-16 8l-19 7l-18 6l-21 4l-18 6l-19 2l-41 8l-18 2h-20l-21 2h-43l-41 -4l-41 -8l-18 -4l-41 -16l-37 -21l-14 -10l-19 -17l-16 -16l-13 -18l-12 -19l-8 -20l-6 -23l-4 -20z" />
    <glyph glyph-name="T" unicode="T" horiz-adv-x="1384" 
d="M594 1309h-494v182h1184v-182h-493v-1309h-197v1309z" />
    <glyph glyph-name="U" unicode="U" horiz-adv-x="1632" 
d="M188 1491h199v-879l2 -22v-23l2 -22l12 -64l5 -20l4 -19l6 -18l8 -18l6 -19l17 -33l18 -30l10 -15l12 -14l13 -12l12 -15l14 -14l31 -25l33 -20l37 -16l18 -9l19 -6l20 -4l21 -6l20 -4l68 -6h47l65 6l21 4l18 4l58 18l16 9l18 8l33 20l14 11l17 12l14 12l14 14l11 13
l12 12l21 29l8 16l10 14l6 19l8 16l6 19l7 18l6 19l12 61l2 23l4 20v25l2 22v889h197v-897l-6 -68l-4 -41l-5 -20l-4 -21l-4 -18l-6 -20l-4 -19l-12 -35l-25 -59l-18 -37l-11 -18l-12 -17l-10 -16l-12 -17l-13 -14l-12 -16l-57 -52l-31 -24l-33 -21l-18 -10l-53 -24l-19 -7
l-18 -8l-19 -4l-18 -6l-39 -8l-18 -4l-21 -4l-61 -6l-21 -3h-86l-20 3l-62 6l-78 16l-18 6l-19 4l-16 8l-22 7l-19 10l-20 8l-19 10l-37 23l-18 10l-16 12l-17 15l-16 12l-15 16l-14 13l-12 14l-12 16l-13 15l-20 32l-13 17l-8 18l-10 19l-8 18l-8 21l-9 20l-6 16l-6 19
l-4 18l-6 19l-4 18l-4 21l-2 20l-4 21l-4 41l-3 20l-2 23v909z" />
    <glyph glyph-name="V" unicode="V" horiz-adv-x="1613" 
d="M84 1491h219l8 -18l6 -19l25 -57l6 -19l25 -57l6 -18l16 -37l39 -95l6 -20l25 -55l6 -19l16 -39l9 -18l6 -19l24 -57l6 -18l17 -37l8 -19l6 -20l8 -19l9 -18l30 -76l6 -18l17 -37l8 -20l6 -19l25 -55l6 -21l24 -55l15 -39l16 -37l6 -18l25 -58l6 -18l25 -57l6 -19l8 -18
l16 37l6 20l25 55l6 19l25 57l6 19l8 18l8 21l9 18l6 18l16 37l8 21l6 18l17 37l8 19l6 20l16 37l9 18l6 19l16 39l39 94l8 18l6 19l9 18l16 39l6 18l8 19l9 18l8 19l6 20l47 113l8 18l6 19l9 18l8 21l8 18l6 19l25 57l6 18l24 56l6 20l17 37h213l-25 -55l-6 -21l-41 -92
l-16 -39l-6 -18l-41 -95l-9 -18l-8 -18l-6 -19l-8 -18l-49 -113l-6 -20l-49 -113l-9 -18l-6 -19l-24 -55l-33 -76l-6 -18l-8 -19l-9 -18l-32 -76l-9 -18l-6 -19l-57 -133l-6 -18l-8 -19l-25 -55l-8 -21l-17 -37l-6 -18l-24 -57l-33 -74l-6 -18l-8 -21l-25 -55h-176l-25 55
l-6 21l-24 55l-33 76l-6 18l-25 55l-33 76l-6 19l-24 57l-33 74l-6 20l-41 92l-8 21l-9 18l-63 150l-6 18l-17 37l-32 76l-9 18l-6 19l-16 39l-8 18l-25 55l-8 21l-6 18l-8 19l-41 94l-9 18l-6 19l-24 57l-33 74l-6 18l-8 21z" />
    <glyph glyph-name="W" unicode="W" horiz-adv-x="2379" 
d="M98 1491h215l13 -39l8 -18l6 -21l6 -18l6 -21l13 -39l8 -18l6 -21l12 -36l6 -21l6 -18l9 -21l6 -18l6 -21l6 -18l6 -21l8 -18l7 -19l6 -20l6 -18l6 -21l6 -18l27 -78l6 -21l8 -18l12 -39l7 -18l6 -21l6 -18l8 -21l6 -18l25 -78l8 -19l6 -20l6 -18l6 -21l6 -18l9 -21
l6 -18l24 -78l9 -19l6 -20l6 -18l6 -21l6 -18l6 -21l9 -18l6 -21l6 -18l6 18l6 21l6 18l6 21l9 18l36 117l7 20l6 19l8 20l24 78l7 18l6 21l6 18l6 21l8 18l6 21l7 18l6 21l6 18l18 59l15 37l6 21l6 18l6 21l6 18l6 21l13 39l8 18l24 78l25 78l8 20l12 39l7 18l6 21l6 18
l6 21l6 18l6 21l8 18l13 39l6 21l6 18h164l6 -18l6 -21l6 -18l6 -21l9 -18l6 -21l6 -18l6 -21l6 -18l6 -21l7 -18l12 -39l8 -20l18 -58l31 -98l8 -18l13 -39l6 -21l6 -18l6 -21l6 -18l6 -21l9 -18l12 -39l6 -18l6 -21l6 -18l6 -21l7 -18l6 -21l8 -18l6 -21l6 -18l6 -21
l31 -96l8 -20l43 -135l6 -21l9 -18l6 -21l6 -18l6 -21l6 -18l6 18l6 21l9 18l6 21l6 18l6 21l21 57l12 39l6 18l8 21l6 18l6 21l7 18l6 21l6 18l33 96l8 21l6 18l6 21l6 18l6 21l9 18l12 39l6 18l6 21l8 18l13 39l6 21l6 18l8 21l12 38l7 19l6 18l8 21l6 18l25 78l20 57
l6 21l6 18l9 21l6 18l6 21l6 18l6 21l8 18l13 39h207l-15 -39l-6 -18l-6 -21l-8 -18l-19 -58l-8 -20l-12 -37l-15 -39l-6 -20l-8 -19l-6 -18l-6 -21l-8 -18l-19 -58l-8 -20l-6 -18l-6 -21l-8 -18l-7 -19l-6 -20l-8 -19l-12 -39l-8 -18l-13 -39l-6 -20l-8 -19l-6 -18l-6 -21
l-9 -18l-12 -39l-8 -19l-6 -20l-6 -18l-8 -19l-19 -59l-8 -19l-6 -18l-6 -21l-9 -18l-6 -21l-6 -18l-8 -18l-6 -21l-6 -18l-9 -21l-18 -57l-8 -19l-6 -20l-6 -18l-9 -19l-12 -39l-8 -20l-12 -37l-9 -21l-6 -18l-6 -21l-6 -18l-8 -18l-6 -21l-15 -39l-6 -18h-168l-12 39
l-27 77l-8 21l-6 18l-6 21l-6 18l-9 19l-12 41l-6 18l-6 21l-8 18l-6 21l-7 18l-6 20l-8 19l-12 39l-6 18l-9 21l-18 59l-8 19l-6 20l-13 37l-6 20l-8 21l-6 18l-6 21l-6 18l-9 21l-6 18l-6 21l-6 18l-8 20l-12 39l-7 19l-6 20l-8 19l-18 59l-9 19l-6 20l-6 18l-6 21l-8 18
l-6 21l-13 39l-8 18l-6 21l-6 18l-6 -18l-6 -21l-9 -18l-6 -21l-6 -18l-6 -21l-8 -18l-6 -21l-7 -18l-12 -39l-8 -20l-18 -58l-7 -20l-8 -19l-18 -59l-8 -18l-13 -39l-6 -21l-6 -18l-8 -21l-6 -18l-6 -21l-7 -18l-6 -21l-8 -18l-18 -59l-9 -19l-24 -78l-27 -77l-8 -21
l-6 -18l-6 -21l-13 -39l-8 -18l-6 -21l-6 -18l-6 -21l-21 -57l-12 -39l-8 -20l-12 -39h-168l-6 18l-9 21l-6 18l-6 21l-8 18l-6 18l-6 21l-15 39l-12 37l-8 20l-13 39l-8 19l-12 38l-8 19l-12 39l-15 39l-6 18l-6 21l-8 18l-13 39l-8 18l-6 21l-6 18l-8 19l-6 20l-7 19
l-6 20l-8 19l-12 38l-8 19l-7 20l-6 19l-8 18l-6 21l-6 18l-8 19l-6 20l-7 18l-6 21l-8 18l-12 39l-8 19l-7 20l-6 19l-8 18l-6 21l-21 57l-6 18l-6 21l-8 18l-6 21l-6 18l-8 19l-7 20l-6 19l-8 20l-12 37l-15 39l-12 39l-8 18l-6 21l-6 18l-9 21z" />
    <glyph glyph-name="X" unicode="X" horiz-adv-x="1562" 
d="M1462 0h-231l-25 33l-10 16l-121 164l-10 16l-12 17l-37 49l-10 16l-62 80l-10 17l-96 131l-25 32l-10 17l-25 33l-73 -101l-13 -16l-108 -152l-13 -16l-145 -201l-98 -135h-228l123 166l13 16l10 17l73 98l37 49l13 16l73 101l37 49l37 49l10 17l25 32l111 150l-37 49
l-13 16l-73 101l-123 166l-13 16l-110 149l-12 19l-37 49l-49 66l-13 16l-24 35l-37 49h233l37 -49l10 -17l25 -32l12 -17l13 -16l12 -17l72 -98l71 -100l10 -17l25 -32l37 -49l10 -17l62 -82l34 -49l37 49l10 17l25 32l12 17l13 16l12 17l72 98l34 51l37 49l47 66l25 32
l10 17l62 82l34 49h228l-49 -66l-13 -16l-24 -35l-111 -147l-12 -19l-98 -131l-13 -16l-24 -35l-111 -147l-86 -117l49 -66l13 -16l73 -100l47 -66l13 -16l73 -101l25 -32l12 -17l37 -49l49 -68l25 -32l10 -17l62 -82l36 -51z" />
    <glyph glyph-name="Y" unicode="Y" horiz-adv-x="1542" 
d="M870 0h-198v590l-13 16l-10 19l-24 32l-11 19l-12 16l-10 17l-25 34l-10 17l-25 35l-10 16l-47 68l-12 16l-10 18l-13 17l-22 35l-23 32l-12 19l-12 16l-11 17l-12 16l-12 18l-10 17l-13 16l-22 35l-12 16l-93 138l-12 16l-22 35l-13 16l-10 17l-12 16l-11 18l-24 33
l-10 19l-13 16h236l12 -16l10 -19l13 -16l10 -19l57 -84l11 -18l12 -16l22 -35l13 -17l10 -18l12 -16l10 -17l13 -18l10 -17l12 -18l13 -17l22 -34l10 -17l13 -18l10 -17l12 -16l10 -18l13 -17l22 -35l12 -16l11 -18l45 -68l12 -16l10 -19l13 -16l10 -19l12 -16l12 16l11 19
l12 16l10 19l25 32l10 19l12 16l10 17l25 34l10 19l13 16l10 17l12 18l35 51l10 17l12 18l13 16l45 70l10 17l25 34l10 17l12 16l10 19l13 16l12 18l10 17l13 16l10 19l24 32l11 19l12 16l10 19l12 16h230l-13 -16l-10 -19l-47 -67l-10 -17l-25 -33l-10 -18l-25 -33
l-69 -102l-10 -17l-13 -16l-10 -18l-47 -68l-12 -16l-11 -17l-12 -16l-22 -35l-13 -16l-12 -17l-10 -18l-82 -119l-10 -16l-25 -33l-10 -19l-25 -32l-32 -51l-25 -33l-10 -19l-13 -16v-594z" />
    <glyph glyph-name="Z" unicode="Z" horiz-adv-x="1499" 
d="M150 0v137l24 33l14 14l37 49l27 31l24 33l52 63l24 33l27 31l24 33l52 63l75 96l64 78l12 17l15 16l24 33l12 14l13 17l14 16l12 16l37 47l90 113l13 14l24 33l14 17l13 14l24 33l52 63l24 33l27 31l37 49l14 14l25 33h-910v174h1172v-137l-25 -33l-14 -14l-37 -50
l-27 -30l-24 -33l-25 -31l-14 -16l-49 -64l-15 -16l-24 -33l-64 -80l-12 -14l-12 -16l-15 -17l-24 -33l-51 -63l-13 -14l-24 -33l-15 -16l-12 -17l-12 -14l-13 -17l-126 -159l-15 -17l-12 -16l-51 -64l-13 -14l-36 -49l-15 -16l-49 -64l-27 -31l-36 -49l-15 -14l-24 -33h940
v-174h-1202z" />
    <glyph glyph-name="bracketleft" unicode="[" horiz-adv-x="962" 
d="M205 1491h622v-150h-440v-1468h440v-149h-622v1767z" />
    <glyph glyph-name="backslash" unicode="\" horiz-adv-x="1105" 
d="M-8 1700h174l8 -19l29 -55l8 -18l10 -17l17 -37l10 -18l8 -18l10 -19l8 -18l11 -19l16 -37l10 -18l8 -18l11 -17l8 -18l27 -56l10 -18l8 -18l10 -19l8 -18l11 -19l16 -37l10 -16l8 -18l11 -19l16 -37l10 -18l9 -19l10 -18l8 -18l27 -56l10 -16l8 -19l10 -18l8 -18l11 -19
l16 -37l10 -18l8 -19l11 -18l35 -72l10 -18l8 -19l10 -18l8 -18l11 -19l16 -37l10 -18l8 -19l11 -18l18 -35l17 -37l10 -18l8 -19l10 -18l8 -18l11 -19l16 -37l10 -18l8 -17l11 -18l8 -18l27 -56l10 -18l8 -19l10 -18l17 -37l10 -18l8 -17l10 -18l8 -19l11 -18l16 -37
l10 -18l8 -19l11 -18l8 -19l10 -18l17 -37l10 -16l8 -19l10 -18l8 -19l11 -18l8 -18h-172l-8 18l-11 18l-8 19l-10 18l-8 19l-10 16l-17 37l-10 18l-8 19l-11 18l-8 19l-10 18l-8 19l-10 18l-9 18l-8 19l-10 18l-8 17l-10 18l-9 19l-10 18l-16 37l-11 18l-8 19l-10 18l-8 19
l-27 53l-10 18l-8 19l-10 18l-9 19l-10 18l-27 55l-8 19l-10 18l-8 17l-29 55l-16 37l-10 18l-9 19l-10 18l-8 18l-27 56l-10 16l-8 19l-29 55l-8 18l-27 56l-10 18l-8 18l-10 17l-8 18l-11 19l-16 37l-29 55l-8 18l-10 19l-8 18l-11 19l-26 53l-8 18l-11 19l-8 18l-10 19
l-16 36l-11 19l-26 53l-11 19l-16 36l-10 19l-8 18l-11 19l-8 18l-10 19l-8 18l-11 18l-16 37l-10 17l-8 18l-11 19l-8 18l-10 18z" />
    <glyph glyph-name="bracketright" unicode="]" horiz-adv-x="962" 
d="M133 -127h442v1468h-442v150h625v-1767h-625v149z" />
    <glyph glyph-name="asciicircum" unicode="^" horiz-adv-x="1081" 
d="M469 1495h143l37 -49l74 -98l12 -17l37 -49l10 -18l49 -66l37 -49l74 -98h-162l-24 32l-78 99l-37 51l-63 82l-15 16l-24 33l-13 -16l-12 -17l-63 -82l-15 -16l-12 -16l-12 -19l-52 -65l-24 -33l-27 -33l-12 -16h-158l123 163l12 17l13 16l12 17l10 18l74 98l12 17z" />
    <glyph glyph-name="underscore" unicode="_" horiz-adv-x="1294" 
d="M4 -186h1286v-154h-1286v154z" />
    <glyph glyph-name="grave" unicode="`" horiz-adv-x="1081" 
d="M698 1268h-147l-14 14l-15 12l-28 29l-117 109l-17 14l-28 29l-15 12l-14 14l19 8l38 19l56 24l39 19l37 16l10 -16l12 -17l10 -18l23 -33l20 -33l76 -118l23 -33l10 -19l12 -16z" />
    <glyph glyph-name="a" unicode="a" horiz-adv-x="1253" 
d="M535 125h40l62 6l37 8l78 31l18 10l16 10l17 13l43 41l10 14l21 35l8 16l12 37l4 21l2 18v117l-16 6l-37 8l-19 6l-40 8l-39 9l-84 8l-23 2h-70l-45 -4l-20 -2l-41 -8l-51 -19l-17 -8l-14 -8l-12 -8l-19 -15l-14 -14l-23 -33l-8 -16l-8 -19l-8 -41v-24l2 -25l4 -22l6 -21
l8 -18l11 -19l28 -32l47 -33l17 -8l18 -7l37 -12l21 -2l20 -4zM1085 0h-186v158l-51 -58l-14 -12l-17 -12l-16 -13l-17 -12l-36 -20l-50 -23l-36 -12l-21 -6l-41 -8l-20 -2l-23 -3l-22 -2h-41l-21 2l-18 3l-39 4l-37 8l-39 12l-21 8l-18 8l-18 11l-19 10l-16 10l-17 12
l-16 13l-29 28l-24 31l-23 37l-8 16l-12 33l-6 19l-4 20l-3 19l-2 20v47l2 21l3 20l4 21l18 55l8 16l11 19l12 18l26 33l15 16l33 27l49 31l37 16l20 8l59 17l62 12l20 2l23 2h22l23 2h67l21 -2h23l92 -10l43 -8l20 -5l23 -4l61 -18v61l-2 25l-8 43l-6 20l-8 19l-9 18
l-10 17l-12 16l-12 14l-15 15l-14 12l-14 10l-17 8l-16 9l-19 8l-18 6l-21 6l-20 4l-23 4l-45 4h-47l-20 -2h-21l-39 -4l-20 -4l-19 -2l-16 -4l-18 -4l-39 -12l-39 -15l-19 -6l-18 -8l-21 -8l-18 -8l-6 18l-8 20l-13 39l-8 19l-6 18l-8 21l-6 18l37 17l18 6l18 8l39 12l19 8
l18 6l19 5l20 6l53 12l19 4l102 10h70l24 -2h23l23 -4l22 -2l23 -4l20 -4l21 -6l18 -4l39 -15l16 -8l19 -8l30 -18l31 -23l14 -12l25 -25l23 -28l20 -31l16 -33l9 -16l12 -37l6 -21l4 -18l4 -21l8 -88v-696z" />
    <glyph glyph-name="b" unicode="b" horiz-adv-x="1435" 
d="M727 145h41l23 2l20 3l20 4l21 6l18 6l58 24l18 11l33 24l31 29l39 47l30 59l15 39l12 41l4 21l6 67v50l-4 45l-12 61l-6 21l-7 18l-30 61l-10 19l-27 33l-12 16l-17 14l-14 15l-33 24l-37 21l-37 16l-20 6l-41 8l-21 5l-20 2h-41l-20 -2l-21 -5l-41 -8l-20 -8l-19 -6
l-55 -31l-33 -24l-45 -43l-33 -45l-20 -33l-8 -19l-9 -16l-8 -21l-12 -38l-8 -41l-4 -43v-50l4 -45l8 -41l6 -20l6 -18l8 -19l9 -18l8 -19l20 -33l21 -30l12 -15l45 -43l33 -24l37 -21l37 -16l20 -8l41 -8l21 -5zM377 0h-193v1554h193v-657l10 16l12 17l25 28l12 17l29 26
l14 15l31 24l14 13l19 10l32 20l19 9l39 16l20 6l56 12l18 2l21 2l20 3h41l18 -3l21 -2l18 -2l58 -12l39 -12l18 -8l18 -9l19 -8l53 -30l16 -13l17 -12l31 -27l14 -14l12 -14l15 -15l45 -61l30 -53l17 -37l8 -19l12 -37l4 -18l6 -20l5 -21l2 -20l4 -21l2 -20v-23l2 -22v-50
l-2 -22v-23l-2 -20l-4 -21l-2 -20l-5 -21l-6 -20l-4 -18l-6 -21l-6 -18l-8 -17l-8 -20l-9 -19l-10 -18l-10 -16l-10 -19l-33 -47l-12 -14l-15 -15l-12 -14l-45 -41l-17 -12l-16 -13l-53 -30l-19 -8l-18 -9l-18 -8l-39 -12l-37 -8l-21 -4l-18 -2l-21 -3l-18 -2h-41l-23 2
l-18 3l-20 2l-56 12l-20 6l-39 16l-37 17l-33 20l-16 13l-17 10l-28 24l-12 15l-17 16l-43 51l-12 19v-201z" />
    <glyph glyph-name="c" unicode="c" horiz-adv-x="1232" 
d="M711 -25h-45l-23 2l-20 3l-21 2l-63 12l-58 18l-39 17l-16 10l-18 8l-19 10l-49 35l-45 39l-41 43l-12 14l-13 17l-20 33l-12 18l-19 35l-24 55l-13 39l-4 21l-6 20l-4 18l-8 84v45l8 84l4 21l6 18l4 21l6 20l15 39l16 37l19 35l32 51l25 31l14 16l15 15l12 14l61 51
l17 12l35 21l18 10l18 8l19 10l39 15l18 6l21 6l63 12l41 4l23 3h45l20 -3h21l20 -2l21 -4l18 -4l21 -2l61 -18l55 -25l19 -8l49 -31l16 -12l15 -10l71 -64l13 -14l-15 -14l-12 -15l-29 -28l-12 -17l-29 -28l-12 -15l-14 -14l-15 14l-14 15l-16 12l-15 14l-30 23l-17 12
l-16 10l-17 13l-53 24l-18 6l-21 6l-22 4l-21 3l-22 2h-47l-23 -2l-20 -5l-23 -4l-41 -12l-39 -18l-37 -23l-16 -12l-45 -43l-14 -17l-15 -16l-12 -18l-10 -19l-11 -18l-10 -21l-8 -20l-12 -37l-6 -21l-2 -18l-5 -21l-4 -40v-46l4 -43l5 -18l2 -20l18 -58l8 -20l10 -21
l35 -55l13 -16l30 -31l17 -14l16 -15l16 -12l37 -23l21 -8l18 -8l35 -12l39 -8l20 -3l21 -2h43l22 2l21 3l20 4l21 6l18 6l21 6l35 18l16 9l18 12l17 10l16 12l15 13l16 12l14 14l17 15l14 14l14 -14l60 -58l45 -43l-43 -45l-43 -39l-17 -14l-16 -10l-16 -12l-17 -11
l-37 -20l-18 -8l-19 -11l-20 -6l-21 -8l-40 -12l-21 -2l-18 -4l-21 -4l-20 -3h-21z" />
    <glyph glyph-name="d" unicode="d" horiz-adv-x="1435" 
d="M666 145h41l20 2l21 5l40 8l58 24l18 11l19 10l32 24l33 29l13 14l34 45l9 17l10 16l8 19l10 18l19 57l8 41l4 45v50l-4 43l-8 41l-13 38l-6 21l-10 16l-8 19l-10 16l-9 17l-22 30l-12 15l-13 14l-33 29l-32 24l-19 10l-18 11l-19 10l-18 6l-21 8l-40 8l-21 5l-20 2h-41
l-23 -2l-20 -3l-21 -4l-39 -12l-18 -6l-37 -18l-19 -11l-32 -24l-15 -13l-43 -47l-12 -16l-31 -59l-8 -21l-18 -59l-2 -21l-4 -22l-2 -23l-3 -22v-50l3 -22l2 -23l12 -61l6 -18l8 -19l8 -22l31 -58l12 -18l15 -17l14 -14l14 -16l15 -15l33 -24l18 -10l16 -11l21 -8l18 -8
l19 -6l41 -8l20 -5zM1059 1554h190v-1554h-190v211l-10 -16l-25 -29l-12 -16l-41 -44l-15 -12l-14 -14l-16 -12l-15 -13l-51 -30l-18 -9l-21 -8l-18 -8l-21 -6l-55 -12l-18 -2l-21 -3l-20 -2h-41l-19 2l-20 3l-19 2l-18 4l-21 4l-18 4l-39 12l-55 25l-19 10l-32 20l-19 13
l-14 12l-17 12l-30 29l-27 29l-35 45l-20 32l-10 19l-11 18l-24 56l-6 18l-7 18l-4 19l-6 20l-2 21l-8 41l-2 20v23l-2 22v50l2 22v23l2 20l4 21l2 20l4 21l6 20l4 18l13 39l24 56l29 53l10 16l23 31l39 43l30 29l17 12l14 12l51 33l74 35l21 6l18 6l18 4l21 4l18 4l41 4
l19 3h41l20 -3l21 -2l18 -2l55 -12l21 -6l18 -8l21 -6l18 -11l19 -8l32 -20l17 -13l16 -10l29 -24l51 -56l12 -16l13 -14l10 -15v647z" />
    <glyph glyph-name="e" unicode="e" horiz-adv-x="1284" 
d="M672 971h-43l-23 -2l-22 -4l-21 -7l-20 -6l-19 -8l-39 -20l-16 -11l-16 -14l-17 -12l-43 -47l-24 -37l-21 -41l-8 -21l-6 -18l-6 -21l-6 -18l-5 -20l-4 -23l-2 -20h670l-4 41l-8 38l-6 19l-5 18l-6 19l-10 20l-8 21l-10 18l-37 53l-17 15l-14 14l-16 14l-35 23l-19 10
l-53 19l-20 4zM700 -25h-45l-20 2l-21 3l-41 4l-18 4l-20 4l-56 18l-39 17l-20 8l-37 20l-53 37l-17 14l-30 29l-15 12l-24 31l-13 15l-10 16l-12 16l-21 35l-32 74l-13 37l-4 18l-6 19l-4 20l-2 18l-4 21l-2 20v21l-2 22v45l2 23v20l4 21l2 20l12 62l6 20l15 39l6 19l16 37
l11 16l8 18l10 17l12 16l10 17l25 28l12 17l31 28l14 15l52 39l34 22l19 8l37 19l55 18l59 12l41 4l21 3h43l22 -3l43 -4l60 -12l39 -12l37 -17l18 -10l20 -10l68 -47l14 -14l17 -15l39 -47l12 -16l22 -35l11 -19l28 -59l15 -41l12 -41l12 -61l2 -21l4 -20l3 -21v-22l2 -21
v-51l-5 -31h-858l2 -20l4 -21l5 -18l4 -18l12 -37l6 -17l39 -67l37 -45l14 -13l17 -14l36 -25l39 -20l37 -14l19 -4l18 -5l21 -4l36 -4h43l62 6l18 4l19 5l18 6l17 4l51 24l16 11l19 10l32 24l47 41l15 15l28 -27l31 -24l15 -15l14 -12l14 -14l15 -13l-43 -45l-15 -14
l-16 -12l-64 -50l-18 -10l-16 -10l-19 -8l-16 -10l-19 -7l-18 -8l-37 -12l-61 -12l-23 -2l-23 -5h-22z" />
    <glyph glyph-name="f" unicode="f" horiz-adv-x="804" 
d="M246 940h-150v164h150v117l6 69l8 41l6 21l6 18l9 19l6 16l10 16l8 17l23 28l12 13l29 24l32 21l35 16l39 12l19 4l20 5l45 4h45l23 -2h20l21 -2l18 -2l84 -23v-166l-39 12l-20 7l-19 4l-37 4l-20 2h-43l-39 -8l-16 -7l-17 -6l-14 -10l-25 -22l-20 -31l-15 -37l-8 -43
l-2 -25v-106h332v-164h-330v-940h-192v940z" />
    <glyph glyph-name="g" unicode="g" horiz-adv-x="1435" 
d="M662 254h40l41 4l41 8l21 6l20 9l21 6l18 8l19 10l49 33l31 27l26 30l10 15l13 16l20 37l8 18l7 21l6 20l8 41l2 21v49l-2 22l-8 41l-6 21l-7 20l-8 19l-20 37l-13 16l-36 45l-15 14l-16 13l-68 43l-18 8l-21 8l-41 12l-20 4l-21 5l-41 4h-40l-41 -4l-21 -5l-20 -4
l-37 -12l-21 -8l-35 -17l-32 -20l-15 -12l-28 -27l-13 -14l-22 -31l-21 -35l-16 -37l-6 -20l-12 -62l-3 -22v-49l3 -23l12 -61l6 -19l16 -37l31 -51l12 -14l15 -14l14 -15l45 -37l16 -10l17 -8l18 -10l19 -6l18 -9l21 -6l18 -4l21 -4zM1059 1108h190v-928l-2 -24v-25l-4 -22
l-2 -23l-12 -63l-12 -41l-7 -19l-8 -18l-6 -19l-10 -16l-8 -19l-43 -61l-15 -12l-12 -15l-43 -36l-14 -13l-33 -20l-37 -19l-37 -16l-18 -6l-21 -6l-18 -6l-19 -5l-61 -12l-86 -8h-88l-103 10l-61 12l-18 5l-21 4l-18 6l-76 24l-55 25l-19 8l-18 10l-17 11l-18 8l-35 22
l10 19l31 55l10 21l21 36l10 19l16 -12l35 -21l37 -20l35 -17l37 -16l18 -6l21 -9l18 -4l19 -6l20 -4l59 -12l39 -4h21l22 -2h45l66 6l41 8l39 12l18 9l17 6l32 18l17 12l28 23l13 12l24 29l11 16l10 17l8 16l8 18l12 39l5 21l4 20l4 23l2 22l2 25v141l-12 -16l-13 -14
l-12 -17l-14 -14l-15 -12l-12 -15l-31 -26l-14 -13l-16 -12l-50 -31l-49 -24l-37 -13l-59 -12l-63 -6h-44l-75 8l-21 4l-18 6l-19 5l-18 6l-18 8l-19 6l-37 16l-49 31l-16 12l-17 11l-14 14l-43 41l-27 31l-10 16l-12 16l-21 35l-10 19l-16 37l-13 36l-4 19l-6 18l-4 21
l-8 82v49l8 82l4 20l6 19l4 20l31 74l41 70l25 32l26 29l43 41l17 10l32 23l33 20l19 8l18 9l19 8l36 12l19 4l18 6l21 4l37 4l20 2l18 3h44l22 -3l43 -4l21 -4l18 -4l20 -4l37 -12l17 -6l34 -17l84 -59l33 -27l29 -28l12 -17l15 -14l12 -16v190z" />
    <glyph glyph-name="h" unicode="h" horiz-adv-x="1331" 
d="M184 1554h193v-632l10 16l25 33l28 33l29 28l16 12l17 15l18 12l19 10l18 11l21 10l20 8l23 6l59 12l20 2l23 3h45l20 -3l41 -4l58 -12l16 -6l19 -6l55 -29l16 -10l17 -12l28 -27l15 -12l12 -17l25 -30l10 -19l10 -16l25 -58l4 -18l6 -18l8 -37l2 -21l4 -20v-21l2 -20
v-717h-192v666l-4 45l-4 22l-5 21l-12 37l-8 18l-18 33l-13 16l-10 14l-14 15l-17 14l-33 21l-18 10l-18 8l-21 6l-20 4l-23 4l-22 2h-47l-21 -2l-41 -8l-37 -12l-37 -16l-32 -23l-15 -12l-26 -29l-13 -16l-12 -17l-10 -18l-8 -19l-9 -18l-8 -18l-12 -56l-4 -41v-651h-193
v1554z" />
    <glyph glyph-name="i" unicode="i" horiz-adv-x="591" 
d="M201 1108h190v-1108h-190v1108zM188 1530h215v-201h-215v201z" />
    <glyph glyph-name="j" unicode="j" horiz-adv-x="591" 
d="M201 1108h190v-1182l-4 -47l-8 -43l-12 -37l-9 -16l-10 -16l-8 -17l-12 -12l-11 -14l-14 -13l-49 -30l-37 -15l-63 -12l-23 -2h-45l-18 2h-17l-53 8v158l18 -4l23 -2h37l20 2l21 4l18 6l17 10l14 10l10 15l17 30l8 41v1176zM188 1530h215v-201h-215v201z" />
    <glyph glyph-name="k" unicode="k" horiz-adv-x="1236" 
d="M184 1554h193v-1030l100 105l15 14l26 31l14 14l43 45l43 45l15 17l29 28l28 31l15 14l28 31l15 14l28 31l15 14l26 31l43 43l14 17l29 28l15 17l14 14h239l-28 -29l-15 -14l-28 -31l-29 -28l-14 -15l-15 -14l-28 -31l-29 -28l-14 -15l-15 -14l-28 -31l-43 -43l-15 -14
l-28 -31l-43 -43l-15 -14l-28 -31l-43 -43l24 -33l49 -65l84 -115l74 -98l10 -17l25 -32l12 -17l111 -147l10 -17l74 -98h-230l-61 82l-59 82l-37 49l-146 195l-71 98l-15 -14l-14 -17l-14 -14l-17 -15l-14 -14l-43 -45l-14 -16l-15 -15l-16 -14l-14 -14l-15 -17l-14 -14
v-297h-193v1554z" />
    <glyph glyph-name="l" unicode="l" horiz-adv-x="591" 
d="M201 1554h190v-1554h-190v1554z" />
    <glyph glyph-name="m" unicode="m" horiz-adv-x="2041" 
d="M184 1108h193v-180l10 16l12 14l13 17l12 14l12 17l43 41l15 12l34 22l19 11l18 8l43 16l37 8l21 4l20 2l21 3h45l24 -3l21 -2l43 -8l18 -6l21 -6l16 -8l18 -8l17 -9l16 -10l17 -14l16 -12l43 -43l25 -31l10 -19l10 -16l10 -18l13 18l14 16l12 17l45 47l17 14l16 15
l53 34l33 17l55 18l21 4l18 4l23 4l20 2l23 3h45l24 -3l21 -2l63 -12l21 -6l18 -6l19 -8l35 -19l16 -10l14 -12l17 -13l14 -12l14 -14l11 -15l12 -14l10 -14l10 -17l11 -16l16 -35l6 -18l6 -21l6 -18l4 -21l5 -20l4 -23l6 -67v-717h-193v666l-4 47l-8 43l-12 39l-6 18l-9 18
l-30 46l-15 12l-14 14l-31 21l-35 16l-20 6l-18 4l-21 4l-22 2h-44l-18 -2l-55 -12l-17 -6l-41 -21l-34 -26l-17 -17l-24 -28l-11 -17l-10 -18l-8 -18l-6 -19l-6 -16l-6 -19l-5 -20l-6 -60v-657h-192v670l-4 45l-8 41l-19 57l-8 16l-10 17l-21 28l-14 15l-29 24l-16 11
l-35 16l-18 6l-41 8l-21 2h-43l-18 -2l-21 -4l-18 -4l-19 -6l-16 -6l-35 -19l-31 -22l-39 -41l-12 -16l-20 -35l-15 -37l-12 -37l-4 -18l-4 -37l-2 -21v-651h-193v1108z" />
    <glyph glyph-name="n" unicode="n" horiz-adv-x="1331" 
d="M184 1108h193v-186l10 16l25 33l28 33l29 28l16 12l17 15l18 12l19 10l18 11l21 10l20 8l23 6l59 12l20 2l23 3h45l20 -3l41 -4l58 -12l16 -6l19 -6l55 -29l16 -10l17 -12l28 -27l15 -12l12 -17l25 -30l10 -19l10 -16l25 -58l4 -18l6 -18l8 -37l2 -21l4 -20v-21l2 -20
v-717h-192v666l-4 45l-4 22l-5 21l-12 37l-8 18l-18 33l-13 16l-10 14l-14 15l-17 14l-33 21l-18 10l-18 8l-21 6l-20 4l-23 4l-22 2h-47l-21 -2l-41 -8l-37 -12l-37 -16l-32 -23l-15 -12l-26 -29l-13 -16l-12 -17l-10 -18l-8 -19l-9 -18l-8 -18l-12 -56l-4 -41v-651h-193
v1108z" />
    <glyph glyph-name="o" unicode="o" horiz-adv-x="1400" 
d="M682 145h41l22 2l19 3l41 8l37 12l37 16l55 35l47 43l12 17l15 16l10 18l12 19l10 18l9 21l10 20l6 17l4 20l6 19l4 18l6 61v45l-4 41l-4 21l-4 18l-4 21l-6 18l-6 21l-17 35l-41 65l-24 29l-31 30l-16 13l-37 24l-19 11l-20 10l-18 8l-37 12l-39 8l-19 3l-20 2h-41
l-23 -2l-59 -11l-37 -12l-37 -18l-55 -35l-16 -13l-31 -30l-27 -33l-35 -55l-16 -41l-8 -19l-4 -18l-11 -39l-6 -59v-46l4 -40l9 -39l4 -21l6 -18l8 -19l6 -18l8 -17l41 -65l41 -43l17 -16l16 -13l55 -35l37 -18l37 -12l21 -4l18 -4l21 -3zM719 -25h-41l-21 2h-20l-21 3
l-20 4l-18 4l-21 2l-18 6l-19 4l-37 12l-16 8l-21 9l-18 10l-18 8l-35 21l-33 24l-14 12l-17 13l-43 43l-24 28l-25 33l-20 35l-11 16l-10 19l-24 55l-13 39l-4 21l-6 20l-4 18l-8 84v45l8 84l4 21l6 18l4 21l6 20l41 94l11 17l10 18l61 80l43 43l17 12l14 13l51 35l37 20
l19 8l18 10l18 7l56 18l18 4l21 4l18 4l21 4l20 2h21l20 3h41l20 -3h21l20 -2l58 -12l18 -4l55 -18l19 -7l18 -10l19 -8l37 -20l32 -23l17 -10l16 -12l14 -15l17 -12l14 -14l12 -15l15 -14l24 -31l23 -33l10 -18l10 -16l17 -37l10 -19l21 -57l4 -21l6 -20l4 -20l8 -84v-46
l-8 -83l-4 -21l-6 -18l-4 -21l-7 -20l-8 -19l-6 -18l-27 -58l-10 -16l-10 -18l-12 -17l-13 -16l-10 -17l-55 -57l-15 -14l-81 -60l-37 -20l-37 -16l-19 -9l-55 -18l-78 -16l-20 -3h-21z" />
    <glyph glyph-name="p" unicode="p" horiz-adv-x="1435" 
d="M727 145h41l23 2l20 3l20 4l21 6l18 6l58 24l18 11l33 24l31 29l39 47l30 59l15 39l12 41l4 21l6 67v50l-4 45l-12 61l-6 21l-7 18l-30 61l-10 19l-27 33l-12 16l-17 14l-14 15l-33 24l-37 21l-37 16l-20 6l-41 8l-21 5l-20 2h-41l-20 -2l-21 -5l-41 -8l-20 -8l-19 -6
l-55 -31l-33 -24l-45 -43l-33 -45l-20 -33l-8 -19l-9 -16l-8 -21l-12 -38l-8 -41l-4 -43v-50l4 -45l8 -41l6 -20l6 -18l8 -19l9 -18l8 -19l20 -33l21 -30l12 -15l45 -43l33 -24l37 -21l37 -16l20 -8l41 -8l21 -5zM184 1108h193v-211l10 16l12 17l25 28l12 17l29 26l14 15
l31 24l14 13l19 10l32 20l19 9l39 16l20 6l56 12l18 2l21 2l20 3h41l18 -3l21 -2l18 -2l58 -12l39 -12l18 -8l18 -9l19 -8l53 -30l16 -13l17 -12l31 -27l14 -14l12 -14l15 -15l45 -61l30 -53l17 -37l8 -19l12 -37l4 -18l6 -20l5 -21l2 -20l4 -21l2 -20v-23l2 -22v-50l-2 -22
v-23l-2 -20l-4 -21l-2 -20l-5 -21l-6 -20l-4 -18l-6 -21l-6 -18l-8 -17l-8 -20l-9 -19l-10 -18l-10 -16l-10 -19l-33 -47l-12 -14l-15 -15l-12 -14l-45 -41l-17 -12l-16 -13l-53 -30l-19 -8l-18 -9l-18 -8l-39 -12l-37 -8l-21 -4l-18 -2l-21 -3l-18 -2h-41l-23 2l-18 3
l-20 2l-56 12l-20 6l-39 16l-37 17l-33 20l-16 13l-17 10l-28 24l-12 15l-17 16l-43 51l-12 19v-541h-193v1448z" />
    <glyph glyph-name="q" unicode="q" horiz-adv-x="1435" 
d="M666 145h41l20 2l21 5l40 8l58 24l18 11l19 10l32 24l33 29l13 14l34 45l9 17l10 16l8 19l10 18l19 57l8 41l4 45v50l-4 43l-8 41l-13 38l-6 21l-10 16l-8 19l-10 16l-9 17l-22 30l-12 15l-13 14l-33 29l-32 24l-19 10l-18 11l-19 10l-18 6l-21 8l-40 8l-21 5l-20 2h-41
l-23 -2l-20 -3l-21 -4l-39 -12l-18 -6l-37 -18l-19 -11l-32 -24l-15 -13l-43 -47l-12 -16l-31 -59l-8 -21l-18 -59l-2 -21l-4 -22l-2 -23l-3 -22v-50l3 -22l2 -23l12 -61l6 -18l8 -19l8 -22l31 -58l12 -18l15 -17l14 -14l14 -16l15 -15l33 -24l18 -10l16 -11l21 -8l18 -8
l19 -6l41 -8l20 -5zM1059 1108h190v-1448h-190v551l-10 -16l-25 -29l-12 -16l-41 -44l-15 -12l-14 -14l-16 -12l-15 -13l-51 -30l-18 -9l-21 -8l-18 -8l-21 -6l-55 -12l-18 -2l-21 -3l-20 -2h-41l-19 2l-20 3l-19 2l-18 4l-21 4l-18 4l-39 12l-55 25l-19 10l-32 20l-19 13
l-14 12l-17 12l-30 29l-27 29l-35 45l-20 32l-10 19l-11 18l-24 56l-6 18l-7 18l-4 19l-6 20l-2 21l-8 41l-2 20v23l-2 22v50l2 22v23l2 20l4 21l2 20l4 21l6 20l4 18l13 39l24 56l29 53l10 16l23 31l39 43l30 29l17 12l14 12l51 33l74 35l21 6l18 6l18 4l21 4l18 4l41 4
l19 3h41l20 -3l21 -2l18 -2l55 -12l21 -6l18 -8l21 -6l18 -11l19 -8l32 -20l17 -13l16 -10l29 -24l51 -56l12 -16l13 -14l10 -15v201z" />
    <glyph glyph-name="r" unicode="r" horiz-adv-x="882" 
d="M184 1108h193v-277l8 19l10 18l8 19l11 18l12 17l10 16l13 16l12 17l12 14l14 14l15 13l14 14l14 12l17 13l33 20l16 8l16 11l19 8l55 18l21 4l20 2l21 4h63v-202h-35l-43 -4l-20 -5l-41 -8l-21 -6l-18 -8l-21 -8l-18 -8l-66 -48l-28 -28l-25 -29l-12 -16l-10 -17
l-11 -16l-39 -92l-4 -17l-6 -18l-4 -18l-2 -19l-4 -18l-4 -41v-21l-2 -20v-459h-193v1108z" />
    <glyph glyph-name="s" unicode="s" horiz-adv-x="1079" 
d="M575 -20h-40l-19 2h-20l-21 2l-20 4l-19 2l-41 8l-20 6l-21 4l-20 6l-21 9l-20 6l-21 8l-18 8l-21 8l-55 29l-18 12l-68 47l25 35l10 17l25 32l22 35l12 16l19 -12l18 -14l19 -10l18 -13l39 -20l18 -10l37 -17l21 -6l20 -8l64 -19l20 -4l64 -6h43l22 2l41 8l19 7l32 16
l17 10l14 13l25 30l8 17l6 16l2 18l2 21v4l-2 25l-8 22l-10 21l-41 36l-19 13l-14 8l-51 20l-19 9l-102 30l-19 6l-92 29l-39 14l-59 29l-68 47l-26 29l-25 33l-8 14l-8 16l-6 19l-8 37l-3 20v47l3 21l8 39l4 18l6 19l8 18l10 18l25 37l14 17l15 16l30 27l33 20l37 19l18 8
l21 6l16 6l37 8l39 4l18 2l21 2h41l20 -2h21l20 -4l23 -2l41 -8l20 -6l23 -4l20 -6l41 -17l21 -6l20 -10l21 -8l18 -8l37 -21l18 -12l17 -10l-10 -19l-11 -16l-53 -88l-10 -19l-35 21l-18 10l-17 8l-18 10l-19 9l-18 6l-18 8l-80 24l-21 5l-41 4l-18 2h-45l-25 -4l-22 -4
l-39 -13l-19 -10l-14 -10l-16 -15l-15 -16l-10 -16l-6 -19l-4 -18l-2 -21v-4l2 -22l8 -23l12 -18l12 -13l31 -24l35 -19l16 -8l19 -6l18 -8l60 -19l20 -8l60 -18l18 -4l18 -6l17 -7l18 -6l19 -8l18 -6l21 -8l57 -29l18 -12l19 -10l14 -15l16 -12l15 -14l37 -47l16 -39l6 -21
l4 -20l4 -23v-51l-2 -23l-8 -43l-12 -39l-8 -18l-31 -51l-12 -15l-27 -28l-14 -12l-17 -13l-53 -30l-18 -9l-60 -18l-18 -4l-21 -4l-18 -2l-21 -4h-20z" />
    <glyph glyph-name="t" unicode="t" horiz-adv-x="880" 
d="M242 940h-150v168h150v326h190v-326h336v-168h-336v-641l4 -25l4 -20l17 -35l10 -14l12 -12l15 -11l14 -8l16 -8l19 -6l20 -2l19 -4h43l20 2l60 12l18 6l20 8l21 11v-162l-19 -11l-18 -8l-37 -12l-20 -6l-17 -4l-18 -2l-19 -4h-18l-20 -2h-43l-43 4l-60 12l-18 8l-19 6
l-16 8l-33 21l-29 25l-12 14l-12 16l-10 17l-9 18l-8 21l-8 16l-12 59l-4 45v668z" />
    <glyph glyph-name="u" unicode="u" horiz-adv-x="1331" 
d="M168 1108h192v-666l2 -22l3 -23l8 -43l12 -37l8 -18l19 -33l37 -45l16 -14l33 -21l18 -10l19 -8l20 -6l45 -8l23 -2h47l20 2l41 8l19 6l20 8l35 17l16 10l17 12l14 12l27 29l12 14l12 17l29 57l6 16l12 56l4 41v651h191v-1108h-191v186l-12 -16l-10 -16l-27 -33l-28 -29
l-17 -14l-16 -15l-33 -24l-33 -21l-16 -8l-17 -6l-18 -8l-18 -4l-19 -6l-20 -4l-21 -2l-20 -3l-23 -2h-45l-20 2l-21 3l-20 2l-56 12l-18 6l-16 8l-21 8l-18 9l-33 20l-33 25l-14 14l-12 14l-15 15l-12 14l-12 16l-21 35l-16 37l-6 21l-7 18l-6 18l-8 37l-8 82v717z" />
    <glyph glyph-name="v" unicode="v" horiz-adv-x="1271" 
d="M78 1108h209l8 -18l37 -95l6 -18l8 -21l8 -18l6 -18l9 -19l8 -20l6 -19l16 -37l15 -39l6 -18l16 -37l6 -18l17 -39l6 -19l8 -18l8 -21l6 -18l9 -18l8 -19l6 -18l8 -21l6 -18l8 -19l9 -18l6 -18l8 -21l8 -18l6 -19l9 -18l8 -21l6 -18l8 -19l6 -18l17 -39l6 -18l8 -19l8 19
l6 18l8 21l9 18l6 18l16 37l6 21l9 18l8 19l6 18l8 21l8 18l6 18l17 37l6 21l16 37l6 18l9 18l8 21l6 18l8 19l6 18l8 21l9 18l6 19l16 36l6 21l9 18l8 19l6 18l16 39l6 19l9 18l8 18l6 21l16 37l6 18l9 19l8 20l6 19l8 18h205l-41 -94l-6 -19l-33 -75l-24 -58l-9 -18
l-24 -58l-127 -303l-17 -37l-32 -75l-9 -19l-8 -20l-6 -19l-24 -57l-25 -55l-33 -76l-8 -21l-6 -18l-17 -37l-16 -39l-8 -18h-170l-41 94l-6 18l-8 21l-25 55l-57 133l-88 209l-9 19l-6 18l-32 76l-9 18l-32 76l-9 19l-8 20l-55 131l-8 21l-8 18l-9 18l-16 39l-6 19l-17 37
l-16 39z" />
    <glyph glyph-name="w" unicode="w" horiz-adv-x="1849" 
d="M92 1108h201l6 -18l6 -21l6 -18l6 -21l7 -18l36 -117l7 -18l36 -117l7 -19l36 -116l37 -115l6 -21l37 -114l6 -21l7 -18l6 -21l6 -18l6 -21l6 -18l6 18l6 21l15 39l6 18l6 21l6 18l6 21l7 18l6 21l8 18l24 78l19 59l8 19l12 39l25 77l8 19l12 39l25 78l8 20l12 39l7 18
l6 21l6 18l6 21l21 57l6 21l6 18h162l6 -18l6 -21l6 -18l27 -78l18 -59l8 -19l6 -20l37 -117l8 -19l37 -116l9 -19l30 -98l6 -18l9 -21l6 -18l6 -21l6 -18l6 -21l6 -18l6 -21l15 -39l6 -18l6 -21l6 -18l19 57l6 21l6 18l31 97l6 20l6 18l55 175l15 38l36 117l7 19l6 18
l30 98l7 19l6 18l6 21l6 18l6 21l6 18l6 21l7 18h196l-6 -18l-6 -21l-8 -18l-6 -21l-7 -18l-12 -39l-8 -19l-12 -39l-13 -38l-8 -19l-12 -39l-21 -57l-6 -21l-12 -36l-8 -21l-6 -18l-6 -21l-7 -18l-6 -19l-8 -20l-12 -37l-6 -21l-15 -38l-12 -37l-6 -21l-21 -57l-18 -58
l-21 -57l-6 -20l-8 -19l-12 -39l-6 -18l-6 -21l-9 -18l-6 -21l-12 -36l-6 -21l-8 -18l-13 -39h-170l-12 39l-8 20l-12 39l-7 19l-6 20l-8 18l-6 21l-6 18l-6 21l-9 18l-6 21l-6 18l-6 21l-6 18l-21 59l-12 39l-8 19l-12 39l-7 20l-6 19l-8 20l-12 39l-6 18l-6 21l-9 18
l-6 21l-6 18l-6 21l-8 18l-6 21l-7 18l-6 21l-6 18l-8 21l-12 38l-6 -20l-15 -39l-6 -18l-6 -21l-21 -57l-6 -21l-6 -18l-8 -21l-6 -18l-6 -21l-13 -38l-8 -19l-18 -59l-8 -19l-19 -59l-8 -19l-6 -20l-6 -18l-6 -21l-9 -18l-6 -21l-6 -18l-6 -21l-21 -57l-6 -21l-6 -18
l-8 -20l-18 -58l-9 -20l-12 -39h-170l-6 18l-6 21l-8 18l-19 57l-6 21l-8 18l-6 21l-13 37l-12 39l-33 96l-8 20l-12 37l-6 21l-6 18l-9 21l-24 75l-6 21l-9 18l-18 58l-6 18l-33 96l-8 21l-6 18l-6 21l-7 18l-6 19l-8 20l-31 96l-8 19l-12 39l-6 18l-6 21l-9 18l-6 21z" />
    <glyph glyph-name="x" unicode="x" horiz-adv-x="1243" 
d="M930 1108h211l-49 -66l-27 -32l-123 -164l-137 -180l-27 -33l-24 -33l-13 -16l-12 -17l62 -82l12 -14l49 -65l12 -17l74 -98l59 -80l86 -115l13 -14l24 -33l37 -49h-217l-25 33l-34 49l-37 47l-47 66l-13 16l-34 49l-13 16l-12 17l-10 16l-13 17l-12 14l-24 33l-13 16
l-10 17l-25 32l-24 -32l-10 -17l-37 -49l-12 -14l-13 -17l-10 -16l-49 -66l-10 -16l-50 -66l-71 -96l-10 -16l-25 -33h-211l61 82l113 149l125 166l49 66l76 100l-184 248l-76 98l-37 49l-12 19l-86 115l-13 16h215l50 -66l36 -51l37 -49l13 -16l12 -17l10 -18l74 -98
l74 -101l49 66l24 35l49 65l13 16l73 101z" />
    <glyph glyph-name="y" unicode="y" horiz-adv-x="1280" 
d="M995 1108h203l-8 -18l-6 -21l-25 -55l-6 -21l-16 -37l-31 -77l-6 -19l-17 -37l-6 -20l-16 -37l-8 -21l-6 -18l-9 -18l-8 -21l-6 -18l-25 -58l-6 -18l-16 -39l-6 -18l-25 -58l-6 -18l-16 -39l-9 -19l-6 -18l-16 -39l-6 -18l-8 -21l-9 -18l-8 -19l-6 -18l-8 -21l-8 -18
l-6 -18l-25 -58l-6 -20l-8 -19l-9 -18l-6 -19l-24 -57l-6 -20l-9 -19l-8 -20l-10 -21l-16 -39l-11 -16l-8 -19l-18 -30l-15 -19l-12 -18l-14 -16l-13 -17l-28 -29l-19 -12l-18 -14l-41 -19l-21 -8l-55 -12l-41 -4h-43l-45 4l-41 8l-18 4l-21 6l-18 7l-19 6l-59 26l57 129
l9 19l20 -11l18 -8l21 -6l18 -6l41 -8l23 -2h24l23 2l20 2l21 6l18 8l17 10l16 11l23 24l12 15l35 57l22 47l-24 55l-8 21l-25 55l-76 168l-49 113l-10 20l-8 19l-82 186l-9 18l-8 19l-10 20l-41 92l-24 58l-41 94l-19 37l-57 131h209l8 -18l88 -209l8 -21l8 -18l6 -19
l9 -18l8 -21l16 -36l8 -21l25 -55l6 -21l25 -55l8 -21l16 -36l8 -21l9 -18l6 -19l8 -18l8 -21l8 -18l9 -18l41 -97l6 -18l16 -37l8 -21l8 -18l15 39l6 18l8 19l21 57l8 19l6 18l8 21l6 18l8 18l7 21l8 18l6 19l8 18l6 21l23 57l6 18l8 19l21 57l8 19l6 18l8 21l6 18l8 18
l7 21l8 18l6 19l8 18l6 21l9 18l6 19l8 20l6 18l8 19l6 18l9 21l6 18l8 19l6 18l8 21z" />
    <glyph glyph-name="z" unicode="z" horiz-adv-x="1204" 
d="M150 948v160h935v-127l-147 -170l-12 -16l-15 -15l-12 -16l-14 -14l-13 -17l-14 -14l-12 -17l-15 -14l-12 -16l-14 -15l-12 -16l-121 -139l-13 -17l-14 -14l-12 -16l-15 -15l-12 -16l-14 -14l-12 -17l-15 -14l-12 -17l-53 -61l-121 -139h706v-162h-960v127l94 109l12 16
l15 14l12 17l14 14l13 16l14 15l12 16l15 14l12 17l94 108l12 17l15 14l12 16l14 15l13 16l14 14l12 17l94 108l13 17l14 14l12 17l15 14l12 16l14 15l13 16l14 14l12 17l27 30l14 17l53 61h-681z" />
    <glyph glyph-name="braceleft" unicode="{" horiz-adv-x="1046" 
d="M125 537v147h82l26 2l46 8l20 6l18 7l17 8l28 20l13 13l10 12l8 14l15 33l12 37l4 22l2 21l2 24v107l-2 22v78l6 66l4 22l4 19l6 20l7 19l6 18l8 18l10 17l25 33l14 16l43 37l55 33l23 12l70 29l36 12l21 4l18 6l23 6l20 4l23 4l22 7l25 4l6 -21l4 -22l6 -21l4 -20l7 -23
l4 -20l-23 -6l-22 -7l-21 -6l-20 -8l-37 -12l-33 -12l-35 -17l-18 -12l-17 -10l-16 -11l-25 -24l-12 -15l-10 -16l-16 -37l-5 -18l-4 -17l-4 -36v-21l-2 -20v-80l2 -21v-108l-2 -25l-8 -45l-4 -20l-6 -19l-8 -18l-9 -17l-10 -16l-24 -29l-48 -37l-18 -12l-39 -18l-22 -9
l-23 -8l21 -8l20 -6l37 -18l49 -31l27 -23l12 -12l10 -14l8 -15l11 -16l18 -57l4 -23l2 -22l2 -25v-107l-2 -22v-80l2 -20v-21l4 -37l9 -35l16 -36l10 -17l12 -14l13 -12l12 -13l33 -20l18 -12l21 -11l14 -6l33 -12l37 -12l20 -9l66 -18l-4 -21l-7 -22l-4 -21l-6 -20l-4 -23
l-6 -20l-25 4l-22 6l-23 4l-20 4l-41 13l-21 4l-53 18l-31 12l-81 43l-19 13l-29 24l-14 13l-27 32l-12 17l-10 16l-8 19l-6 18l-7 18l-6 21l-4 18l-4 23l-6 65v78l2 25v104l-4 45l-4 21l-12 37l-7 16l-16 31l-10 14l-27 21l-14 10l-17 8l-18 6l-20 6l-23 4l-23 5l-26 2h-82
z" />
    <glyph glyph-name="bar" unicode="|" horiz-adv-x="679" 
d="M260 1700h160v-1972h-160v1972z" />
    <glyph glyph-name="braceright" unicode="}" horiz-adv-x="1046" 
d="M922 684v-147h-82l-27 -2l-22 -5l-23 -4l-39 -12l-16 -8l-15 -10l-14 -11l-10 -10l-12 -14l-9 -15l-8 -16l-18 -53l-4 -21l-2 -22l-3 -23v-39l3 -20v-70l2 -20v-58l-2 -22l-3 -23l-2 -20l-4 -23l-4 -18l-4 -21l-8 -18l-6 -18l-8 -19l-35 -49l-15 -16l-28 -25l-17 -12
l-16 -13l-18 -10l-21 -10l-20 -12l-23 -11l-49 -18l-37 -12l-18 -4l-21 -6l-20 -7l-23 -4l-20 -4l-25 -6l-22 -4l-7 20l-4 23l-12 41l-4 22l-6 21l45 12l20 6l21 9l37 12l47 18l71 43l15 13l12 12l12 14l11 17l8 18l12 37l6 53l2 21v122l-2 21v80l4 41l2 18l5 19l6 16l6 18
l8 19l8 16l10 17l25 30l18 17l37 26l17 9l55 24l20 6l-77 33l-37 23l-35 28l-35 47l-8 19l-8 16l-6 21l-4 16l-5 16l-6 60v80l2 22v121l-8 74l-12 37l-8 18l-11 16l-12 15l-12 12l-15 12l-51 33l-35 17l-32 12l-37 12l-21 8l-43 13l-22 6l6 20l4 23l12 41l4 22l7 21l22 -4
l25 -7l20 -4l23 -4l41 -12l18 -4l37 -12l16 -7l33 -12l23 -10l59 -33l33 -24l28 -25l15 -16l24 -33l11 -17l8 -18l6 -18l8 -19l8 -39l4 -22l2 -21l3 -22l2 -23v-55l-2 -23v-69l-3 -21v-39l3 -24l2 -21l4 -22l12 -37l6 -16l8 -17l9 -14l12 -12l10 -13l29 -20l16 -8l19 -7
l20 -6l45 -8l27 -2h82z" />
    <glyph glyph-name="asciitilde" unicode="~" horiz-adv-x="1038" 
d="M266 500l-110 32l6 25l8 23l6 20l8 21l33 67l8 12l11 13l14 14l16 14l17 11l18 8l23 6l20 2l25 2h20l21 -4l18 -4l21 -6l79 -31l19 -8l16 -6l19 -9l16 -6l23 -6l20 -4l18 -2l21 2l18 4l15 6l14 13l18 22l19 35l8 22l19 -6l18 -4l39 -12l18 -4l19 -6l-6 -25l-25 -63
l-6 -19l-35 -61l-25 -27l-16 -12l-16 -10l-19 -9l-20 -6l-45 -4h-21l-41 8l-39 15l-20 6l-41 16l-35 17l-33 12l-22 6l-21 4l-20 2l-25 -2l-22 -8l-17 -14l-10 -11l-10 -14l-8 -16l-11 -19z" />
    <glyph glyph-name="uni00A0" unicode="&#xa0;" horiz-adv-x="655" 
 />
    <glyph glyph-name="exclamdown" unicode="&#xa1;" horiz-adv-x="614" 
d="M420 0h-225v106l2 21v20l4 41v21l2 20v21l4 43v20l4 41v21l2 20v21l4 41v20l4 41v21l2 20l2 23v20l2 21v20l4 41v21l5 40v21l2 20v21l4 41v20l4 43v21l2 20v21l4 41v20l2 21h106l2 -21v-20l3 -21l2 -20v-21l2 -20v-21l4 -43v-20l4 -41v-21l2 -20v-21l4 -40v-21l4 -41v-20
l4 -41v-23l2 -20v-21l4 -41v-20l4 -41v-21l2 -20v-21l3 -20l2 -21v-20l4 -43v-21l2 -20v-21l4 -41v-20l2 -21v-106zM197 1491h221v-246h-221v246z" />
    <glyph glyph-name="cent" unicode="&#xa2;" horiz-adv-x="1253" 
d="M319 780v-45l3 -20l4 -41l8 -39l12 -37l8 -16l6 -19l11 -16l20 -35l25 -33l43 -43l14 -12l16 -12l17 -11l18 -10l19 -8l8 41l16 80l2 20l4 19l5 20l12 62l20 100l4 18l4 21l3 20l4 21l32 160l5 20l4 21l4 18l2 20l12 62l12 59h-26l-23 -2l-20 -4l-23 -4l-39 -12l-20 -8
l-37 -21l-19 -12l-16 -12l-45 -43l-14 -17l-15 -16l-43 -76l-8 -20l-12 -37l-6 -21l-2 -18l-4 -21l-2 -20zM674 348h51l23 2l20 2l20 4l21 6l20 7l19 6l18 8l19 10l18 8l17 13l65 47l14 14l17 14l14 15l14 -15l15 -12l14 -14l17 -14l14 -15l29 -26l14 -15l-43 -45l-17 -14
l-14 -15l-49 -38l-33 -23l-35 -20l-34 -17l-19 -8l-37 -12l-20 -6l-21 -5l-20 -4l-88 -8h-45l-23 2l-4 -18l-4 -21l-2 -18l-4 -21l-8 -36l-4 -21l-2 -18l-9 -39h-153l20 102l2 19l8 41l5 20l8 41l-41 16l-19 9l-36 20l-54 37l-18 14l-17 15l-14 14l-16 14l-29 33l-25 35
l-12 14l-20 33l-8 18l-25 52l-18 57l-7 18l-4 21l-4 18l-8 82v45l8 84l4 21l6 18l5 21l6 20l6 18l24 58l11 18l8 17l33 51l24 31l14 16l15 14l12 15l62 51l16 12l18 10l17 11l18 10l19 8l18 10l18 6l21 9l18 6l21 6l63 12l41 4l23 2h47l20 105l5 22l8 41h151l-4 -20l-12 -64
l-6 -22l-17 -84l19 -6l18 -7l19 -6l37 -16l18 -10l16 -11l35 -20l66 -53l47 -45l-15 -15l-41 -43l-67 -71l-16 14l-15 16l-16 13l-15 14l-16 12l-14 13l-21 12l-18 12l-19 10l-20 9l-21 8l-4 -21l-12 -59l-2 -19l-12 -61l-4 -18l-4 -21l-5 -20l-12 -60l-2 -18l-12 -62
l-12 -59l-5 -18l-8 -41l-2 -19l-24 -121l-9 -39l-4 -20l-2 -18l-12 -62l-4 -18z" />
    <glyph glyph-name="sterling" unicode="&#xa3;" horiz-adv-x="1388" 
d="M150 786h174v242l2 21v20l4 41l4 18l12 58l19 57l28 60l13 16l10 18l26 33l43 41l17 10l16 13l33 20l37 16l18 9l19 6l16 6l37 8l20 4l19 2l20 4h21l22 2h41l21 -2h20l21 -2l18 -2l37 -8l18 -2l56 -18l18 -7l49 -24l54 -35l30 -27l17 -14l14 -14l12 -15l29 -30l12 -17
l13 -16l-17 -12l-16 -15l-17 -12l-16 -14l-18 -13l-17 -14l-16 -12l-17 -15l-16 -12l-41 47l-59 54l-17 12l-14 12l-16 8l-19 11l-16 8l-21 6l-18 4l-43 8l-23 2h-45l-22 -2l-23 -4l-39 -12l-20 -8l-17 -11l-18 -10l-16 -12l-15 -15l-24 -28l-21 -33l-8 -16l-8 -19l-12 -41
l-5 -20l-4 -23l-4 -49v-242h574v-170h-574v-442h735v-174h-1107v119l18 4l20 6l19 4l20 6l19 4l20 7l19 4l20 6l19 4v452h-174v170z" />
    <glyph glyph-name="yen" unicode="&#xa5;" horiz-adv-x="1476" 
d="M215 715h369l-13 16l-32 51l-13 17l-32 51l-13 16l-10 17l-12 18l-13 17l-10 16l-12 16l-10 19l-13 16l-10 16l-12 17l-10 18l-13 17l-10 16l-12 16l-10 19l-13 16l-12 17l-10 16l-13 16l-10 19l-12 16l-10 17l-13 16l-10 18l-12 17l-10 16l-13 17l-67 102l-13 16l-10 17
l-12 18l-10 17l-13 16h232l90 -139l10 -17l13 -18l77 -121l13 -18l10 -17l33 -53l12 -16l10 -19l12 -16l11 -19l12 -16l10 -18l12 -17l11 -18l12 -17l10 -18l13 -16l10 -19l12 -16l10 -19l13 -16l10 -19l22 -34l23 34l10 17l12 16l11 17l10 18l12 16l10 17l13 18l53 84
l12 17l11 18l12 16l20 35l13 17l10 16l12 16l10 19l23 33l10 18l88 135l33 51l45 68h223l-12 -16l-10 -17l-13 -18l-10 -17l-24 -32l-11 -19l-12 -16l-10 -17l-12 -16l-11 -18l-69 -101l-13 -16l-10 -19l-12 -16l-10 -16l-13 -17l-22 -35l-13 -16l-10 -16l-12 -17l-10 -18
l-25 -33l-22 -35l-35 -49l-10 -18l-13 -17l-10 -16l-12 -16l-10 -19l-13 -16l-12 -17l-10 -16l-13 -18l-10 -17l-12 -16h373v-150h-430v-178h430v-149h-430v-238h-191v238h-428v149h428v178h-428v150z" />
    <glyph glyph-name="section" unicode="&#xa7;" horiz-adv-x="1361" 
d="M817 569h39l23 2l20 4l21 5l18 6l16 6l17 8l16 10l17 13l14 14l12 16l8 17l4 18l2 19v4l-2 16l-4 16l-8 17l-12 14l-35 29l-22 14l-31 12l-17 9l-16 6l-20 6l-21 8l-22 6l-25 6l-25 9l-26 6l-23 6l-41 8l-37 8l-16 4l-16 2l-21 2l-20 5h-19l-18 2h-39l-23 -2l-41 -9
l-20 -6l-16 -6l-17 -8l-14 -8l-19 -15l-14 -14l-12 -16l-8 -17l-5 -18l-2 -19v-4l5 -24l10 -23l12 -16l14 -15l35 -24l53 -25l21 -6l33 -12l39 -12l88 -23l41 -8l37 -8l16 -4l39 -5l18 -4h21zM1106 274v-26l-2 -21l-4 -20l-13 -39l-18 -35l-10 -16l-27 -31l-16 -14l-17 -13
l-16 -10l-14 -10l-51 -25l-56 -18l-20 -4l-23 -4l-65 -6l-25 -2h-45l-22 2h-21l-41 4l-18 4l-21 4l-18 4l-21 4l-18 6l-19 4l-18 6l-35 17l-39 16l-18 10l-17 11l-51 30l-47 37l-14 15l-15 12l-14 14l14 15l17 14l14 14l14 17l60 57l14 -14l17 -13l14 -14l33 -25l18 -10
l17 -12l34 -19l39 -18l19 -8l39 -12l20 -5l23 -4l20 -4l43 -4h47l25 2l22 4l19 4l18 5l19 6l14 8l14 10l17 14l14 19l10 16l6 21l2 20v4l-2 19l-6 18l-8 17l-12 14l-41 31l-35 16l-82 31l-18 4l-19 6l-18 4l-41 12l-23 4l-22 7l-23 6l-20 4l-21 6l-20 4l-21 6l-18 6l-19 4
l-16 7l-18 6l-17 4l-14 6l-23 8l-88 41l-14 8l-14 11l-21 14l-18 14l-29 33l-10 18l-17 37l-8 39v49l8 41l7 19l18 35l27 30l16 15l31 22l16 10l37 17l41 16l20 6l23 6l22 5l-18 10l-35 24l-16 15l-15 12l-12 14l-10 17l-12 18l-11 21l-6 18l-6 21l-2 20l-2 23v26l2 21l4 20
l12 39l19 35l10 16l12 17l48 43l30 18l15 8l18 8l16 9l37 12l21 6l18 4l23 4l65 6l25 2h47l20 -2h21l41 -4l41 -8l18 -4l21 -4l18 -6l19 -4l18 -6l18 -9l19 -6l18 -10l19 -8l86 -51l14 -13l31 -24l14 -15l29 -26l-117 -117l-14 14l-17 13l-14 14l-33 25l-18 10l-17 12
l-18 10l-18 8l-19 11l-18 8l-21 8l-18 6l-21 6l-20 7l-21 2l-22 4l-43 4h-47l-23 -2l-22 -4l-21 -2l-18 -7l-17 -6l-28 -16l-19 -16l-14 -17l-10 -18l-6 -21l-2 -20v-4l2 -19l4 -18l10 -15l12 -16l17 -14l22 -15l16 -10l17 -8l84 -31l18 -4l19 -6l18 -4l43 -12l23 -4l22 -7
l23 -6l20 -4l21 -6l20 -4l21 -6l18 -6l19 -4l16 -7l18 -6l17 -4l37 -14l18 -8l18 -9l52 -24l14 -8l53 -39l29 -33l10 -16l17 -39l8 -39v-49l-4 -21l-4 -18l-7 -21l-18 -35l-25 -30l-30 -25l-17 -12l-35 -19l-59 -24l-45 -12l-23 -5l19 -10l35 -24l14 -15l29 -26l12 -17
l29 -57l6 -21l2 -20z" />
    <glyph glyph-name="dieresis" unicode="&#xa8;" horiz-adv-x="1081" 
d="M242 1485h213v-217h-213v217zM627 1485h213v-217h-213v217z" />
    <glyph glyph-name="copyright" unicode="&#xa9;" horiz-adv-x="1783" 
d="M926 344h-45l-23 2l-20 2l-39 8l-21 6l-37 15l-18 8l-35 21l-14 10l-17 10l-43 39l-47 59l-20 35l-8 19l-9 18l-8 18l-6 19l-12 59l-4 41v45l4 41l4 21l4 18l4 21l6 18l8 21l9 16l8 18l10 19l21 33l38 45l27 26l31 23l16 10l19 10l16 10l18 9l19 8l18 6l21 6l41 8l41 4
h47l45 -4l41 -8l18 -4l19 -6l16 -6l16 -8l68 -41l47 -37l14 -15l-14 -16l-43 -47l-14 -14l-15 -17l-16 15l-49 36l-19 11l-16 12l-39 16l-41 8l-22 5h-45l-23 -5l-22 -4l-21 -6l-20 -8l-37 -20l-17 -13l-16 -14l-14 -14l-27 -35l-12 -19l-19 -39l-12 -36l-2 -19l-4 -18
l-2 -19v-45l2 -18l4 -19l2 -18l12 -35l19 -41l24 -35l29 -32l16 -15l37 -24l21 -9l18 -10l23 -6l20 -4l23 -4h47l22 4l21 2l41 12l18 11l17 8l53 37l35 30l14 -14l12 -14l15 -13l14 -14l12 -14l15 -15l-50 -45l-16 -12l-18 -12l-17 -13l-35 -20l-18 -8l-16 -8l-19 -7l-39 -8
l-22 -4zM1589 725v45l-2 21v20l-2 18l-2 21l-4 20l-2 19l-4 18l-6 21l-4 18l-19 55l-16 37l-8 21l-11 18l-10 19l-10 16l-10 18l-13 17l-10 16l-12 17l-27 32l-14 15l-12 16l-17 14l-28 27l-17 12l-49 37l-18 10l-17 11l-37 20l-20 8l-19 11l-18 6l-18 8l-19 6l-18 4l-21 6
l-57 13l-21 4l-41 4h-20l-21 2h-41l-22 -2h-21l-40 -4l-21 -4l-39 -9l-20 -4l-56 -18l-20 -6l-37 -17l-18 -10l-19 -8l-18 -10l-19 -13l-18 -10l-33 -24l-16 -13l-17 -12l-14 -14l-16 -13l-15 -14l-28 -31l-25 -32l-12 -17l-13 -16l-53 -90l-24 -56l-13 -38l-6 -19l-4 -18
l-6 -19l-2 -20l-8 -39l-2 -21l-2 -18v-21l-2 -20v-45l2 -21v-20l4 -41l4 -18l4 -21l2 -18l6 -19l4 -20l12 -37l7 -19l8 -16l16 -39l41 -72l12 -16l11 -18l39 -47l28 -29l15 -17l14 -12l14 -14l49 -37l17 -12l71 -41l21 -8l18 -9l37 -16l19 -6l18 -4l39 -11l21 -4l18 -4
l20 -4l41 -4h21l22 -2h41l23 2h20l41 4l21 4l18 4l21 4l39 11l55 18l37 17l39 20l18 8l17 13l18 10l65 49l15 14l16 13l43 45l49 65l13 16l10 19l10 16l10 19l11 18l24 58l12 36l7 19l4 18l6 21l4 18l2 21l4 18l4 41v21zM1663 770v-45l-2 -20v-21l-4 -41l-4 -20l-2 -21
l-4 -20l-29 -97l-6 -18l-17 -39l-10 -20l-8 -19l-10 -18l-13 -19l-20 -37l-51 -65l-29 -33l-29 -29l-14 -12l-14 -14l-31 -25l-66 -45l-32 -20l-19 -9l-18 -10l-55 -24l-21 -6l-18 -9l-21 -6l-18 -6l-101 -20l-22 -2l-21 -3h-20l-23 -2h-43l-20 2h-23l-20 3l-21 2l-20 4
l-21 2l-20 4l-21 6l-20 4l-18 6l-21 6l-18 6l-37 17l-41 16l-90 53l-35 25l-16 14l-17 13l-31 28l-14 15l-16 14l-41 49l-37 49l-10 19l-13 18l-20 37l-8 19l-11 18l-16 39l-6 18l-6 21l-13 37l-6 20l-8 39l-2 20l-4 21l-4 41v20l-2 21v45l2 20v21l4 41l4 20l2 21l4 20l6 19
l4 20l7 19l12 39l33 77l30 56l13 18l10 19l24 32l15 17l12 16l29 33l28 29l15 12l14 14l14 12l17 13l16 10l17 12l16 10l16 13l33 20l19 8l18 11l55 24l21 6l18 9l21 6l18 6l100 20l23 2l20 2h21l22 3h41l23 -3h20l43 -4l21 -4l18 -2l21 -4l20 -6l21 -4l18 -6l21 -6l37 -15
l20 -6l19 -10l20 -8l55 -31l37 -23l33 -24l16 -14l17 -13l16 -14l14 -14l17 -15l14 -14l12 -16l29 -33l37 -49l10 -19l12 -18l21 -37l8 -19l10 -18l17 -39l6 -18l24 -78l5 -19l4 -20l2 -21l4 -20l4 -41v-20z" />
    <glyph glyph-name="ordfeminine" unicode="&#xaa;" horiz-adv-x="847" 
d="M129 717h559v-107h-559v107zM563 1104v47l-20 6l-23 6l-24 4l-39 4l-23 3h-47l-59 -13l-17 -8l-14 -8l-18 -17l-13 -18l-8 -20l-2 -23v-4l2 -23l8 -20l10 -19l33 -24l19 -6l16 -6l41 -4h21l57 12l33 16l16 12l14 13l15 16l10 17l6 18l4 18zM678 879h-117v79l-14 -16
l-17 -14l-16 -15l-18 -12l-19 -10l-18 -8l-19 -6l-18 -7l-19 -4l-22 -2h-41l-23 4l-20 2l-21 7l-20 6l-18 10l-17 8l-16 12l-15 13l-14 14l-10 16l-10 19l-11 18l-6 19l-4 45v4l4 47l6 20l9 19l10 18l12 17l14 14l17 14l14 9l33 16l37 12l18 4l21 4l20 2l23 3h43l20 -3h19
l16 -2l18 -2l37 -8l19 -6l18 -4v12l-2 23l-2 20l-6 21l-8 16l-10 14l-13 15l-16 10l-35 16l-22 4l-23 5h-43l-21 -2l-18 -3l-33 -8l-18 -6l-17 -4l-18 -8l-18 -6l-19 -8l-6 20l-8 18l-6 21l-8 18l-7 21l88 35l56 12l63 6h45l23 -2l22 -4l19 -2l39 -12l16 -9l16 -8l29 -20
l12 -13l13 -12l10 -14l10 -17l8 -16l7 -16l6 -19l4 -20l4 -23l2 -20v-391z" />
    <glyph glyph-name="guillemotleft" unicode="&#xab;" horiz-adv-x="1224" 
d="M109 545v18l24 33l51 66l15 16l88 115l12 14l12 16l51 66l15 16l24 33l13 16l12 17l39 49l16 -10l19 -9l16 -10l19 -8l32 -20l19 -9l16 -10l-37 -51l-10 -16l-12 -17l-13 -16l-61 -84l-10 -19l-86 -116l-35 -52l-12 -16l12 -16l12 -19l72 -100l12 -19l25 -32l10 -19
l25 -33l36 -51l13 -16l22 -35l13 -16l12 -19l12 -16l-16 -10l-19 -9l-16 -10l-35 -18l-16 -10l-19 -9l-16 -10l-25 33l-14 16l-49 66l-15 14l-36 49l-103 131l-24 33l-15 14l-37 50l-14 16zM600 545v18l12 17l27 32l12 17l13 16l12 17l63 81l15 17l24 33l64 79l12 17l64 82
l14 16l24 33l17 -10l18 -9l17 -10l18 -8l33 -20l18 -9l17 -10l-13 -16l-24 -35l-10 -16l-25 -33l-12 -19l-49 -65l-11 -19l-49 -65l-12 -19l-25 -32l-10 -17l-37 -51l37 -51l96 -135l11 -19l24 -33l12 -18l50 -68l10 -16l12 -16l12 -19l13 -16l-17 -10l-18 -9l-68 -38
l-18 -9l-17 -10l-24 33l-64 82l-14 14l-100 131l-64 82l-14 14l-12 17l-13 16l-12 17l-27 32z" />
    <glyph glyph-name="registered" unicode="&#xae;" horiz-adv-x="862" 
d="M362 1268v-119h89l22 2l16 6l17 8l14 19l4 24v2l-4 25l-14 18l-17 9l-16 6h-111zM362 1085v-129h-79v381h194l21 -4l18 -4l19 -6l14 -6l16 -10l15 -15l12 -14l8 -18l4 -23l2 -23v-2l-2 -20l-4 -18l-8 -19l-10 -16l-13 -15l-32 -20l-19 -6l12 -19l13 -16l12 -19l14 -16
l13 -18l12 -19l12 -16l12 -19h-96l-20 33l-13 17l-10 16l-10 14l-10 17l-13 16l-10 16h-74zM410 807h41l36 4l19 4l37 12l18 7l55 30l50 41l12 17l27 32l20 37l8 21l8 18l7 23l8 41l2 22v47l-2 23l-8 41l-7 22l-8 21l-8 18l-20 37l-13 18l-14 15l-12 16l-33 29l-17 12
l-36 21l-19 10l-55 18l-19 4l-18 2l-18 3h-43l-23 -3l-23 -4l-40 -12l-21 -8l-55 -31l-17 -12l-16 -14l-29 -31l-26 -33l-11 -18l-10 -19l-16 -41l-6 -20l-11 -43l-2 -23v-47l2 -22l5 -21l4 -20l6 -23l8 -18l8 -21l21 -37l12 -16l43 -45l16 -14l17 -13l37 -20l20 -10l16 -7
l37 -12l19 -4zM453 766h-45l-21 2l-63 12l-58 25l-37 20l-32 23l-43 43l-15 14l-33 51l-10 19l-8 18l-8 21l-6 18l-8 41l-5 21l-2 22v43l2 23l5 20l8 41l6 19l8 20l8 18l31 54l12 16l43 45l15 12l16 15l16 10l19 10l18 11l19 10l20 6l19 8l63 12l21 2h45l20 -2l64 -12l18 -8
l20 -6l19 -10l18 -11l19 -10l16 -10l17 -12l14 -15l16 -12l13 -17l14 -14l12 -16l21 -35l10 -18l16 -39l6 -19l5 -20l8 -41l2 -23v-43l-2 -22l-8 -41l-5 -21l-6 -18l-8 -21l-8 -18l-10 -19l-21 -34l-12 -17l-27 -30l-30 -27l-17 -12l-16 -13l-37 -20l-57 -25l-41 -8l-23 -4z
" />
    <glyph glyph-name="macron" unicode="&#xaf;" horiz-adv-x="1081" 
d="M199 1454h684v-149h-684v149z" />
    <glyph glyph-name="degree" unicode="&#xb0;" horiz-adv-x="999" 
d="M709 1149v45l-4 20l-5 19l-16 39l-10 16l-12 17l-13 16l-16 12l-15 15l-18 10l-16 10l-41 12l-43 4l-23 -2l-20 -2l-21 -6l-18 -6l-37 -20l-14 -15l-15 -12l-14 -16l-10 -17l-11 -16l-16 -39l-8 -39v-45l4 -21l4 -18l16 -37l21 -35l43 -41l18 -10l37 -16l21 -6l20 -2
l23 -2l43 4l20 6l21 8l34 18l31 27l13 14l12 17l10 18l16 37l5 18zM522 840h-45l-22 2l-21 4l-43 12l-20 8l-58 31l-18 12l-16 15l-17 14l-43 49l-10 19l-12 18l-9 20l-10 19l-6 20l-6 23l-2 20l-4 21v49l4 23l2 20l12 41l19 39l22 37l14 18l15 15l14 16l17 14l16 15l18 12
l58 31l20 8l43 12l21 4l22 2h45l23 -2l20 -4l23 -6l20 -6l21 -8l57 -31l19 -12l32 -29l29 -31l14 -18l23 -37l10 -19l8 -20l6 -20l7 -21l4 -20l2 -23v-49l-2 -21l-4 -20l-13 -43l-8 -19l-10 -20l-12 -18l-11 -19l-28 -33l-15 -16l-32 -29l-76 -43l-21 -8l-20 -6l-23 -6
l-20 -4z" />
    <glyph glyph-name="plusminus" unicode="&#xb1;" horiz-adv-x="1353" 
d="M170 0v168h1014v-168h-1014zM766 780v-409h-178v409h-418v174h418v410h178v-410h418v-174h-418z" />
    <glyph glyph-name="two.sup" unicode="&#xb2;" 
d="M725 1016v-113h-598v107l31 26l14 13l16 12l29 26l16 13l15 14l16 12l15 15l14 12l16 12l15 15l16 12l14 12l15 15l47 38l86 78l14 17l27 26l30 47l7 19l6 18l4 39l-2 23l-4 22l-21 37l-16 16l-15 11l-16 10l-16 6l-19 6l-41 4h-20l-21 -4l-18 -4l-21 -8l-34 -18l-15 -11
l-57 -55l-12 -18l-15 -19l-14 10l-16 13l-31 20l-14 12l-17 11l39 53l43 45l31 27l16 12l17 10l18 8l18 9l39 12l45 8l23 2h47l23 -2l20 -4l23 -6l20 -6l18 -9l19 -8l49 -33l25 -28l12 -15l10 -16l17 -35l4 -18l4 -21l4 -18v-41l-2 -21l-4 -20l-4 -18l-9 -19l-6 -18l-10 -19
l-10 -16l-10 -14l-13 -15l-10 -14l-14 -14l-13 -15l-86 -78l-16 -12l-14 -14l-78 -64l-14 -14l-17 -12l-61 -52l-15 -14l-16 -12h428z" />
    <glyph glyph-name="three.sup" unicode="&#xb3;" 
d="M158 1616v113h547v-99l-115 -112l-86 -84l-58 -56l23 -2l61 -12l21 -6l18 -6l19 -9l35 -20l14 -10l14 -15l13 -12l12 -14l10 -17l10 -14l13 -37l8 -41v-45l-8 -43l-7 -20l-8 -19l-10 -20l-10 -17l-12 -16l-15 -16l-14 -13l-17 -14l-34 -22l-41 -17l-19 -6l-39 -8l-18 -2
l-21 -2h-43l-43 4l-22 4l-19 4l-57 18l-16 11l-21 10l-18 10l-35 25l-47 43l-14 16l14 14l12 15l53 57l43 -45l17 -12l16 -13l17 -10l16 -8l16 -10l37 -12l19 -5l18 -4l19 -2h20l23 2l20 2l20 7l19 8l35 22l14 13l12 16l9 16l6 19l4 20l2 21l-2 22l-4 21l-9 18l-10 17
l-14 16l-49 29l-35 12l-18 2l-21 4l-20 2h-99l-4 21l-6 18l-4 20l-6 19l57 57l43 43l14 15l29 26l43 43l43 43l14 15l15 14h-389z" />
    <glyph glyph-name="acute" unicode="&#xb4;" horiz-adv-x="1081" 
d="M530 1268h-147l10 16l13 16l10 19l98 151l10 17l23 33l10 16l10 18l13 17l10 16l37 -16l151 -70l-14 -14l-43 -41l-31 -27l-28 -28l-89 -82l-14 -15z" />
    <glyph glyph-name="mu" unicode="&#xb5;" horiz-adv-x="1433" 
d="M375 -340h-191v1448h193v-655l6 -58l4 -18l6 -19l13 -34l10 -19l8 -18l12 -17l10 -16l15 -14l12 -15l14 -12l33 -23l17 -10l36 -16l21 -6l18 -4l21 -4l20 -3h45l21 3l39 8l20 6l19 8l16 8l33 21l31 24l26 29l12 16l11 17l10 18l16 37l6 16l5 19l8 37l2 18l2 21v655h192
v-823l2 -23l5 -20l6 -19l6 -16l8 -14l12 -11l15 -12l16 -8l20 -8l48 -4h24l21 2l18 2l14 4v-158l-16 -4l-18 -4l-19 -2l-45 -4h-51l-25 2l-43 8l-39 12l-18 8l-16 9l-31 22l-25 29l-10 14l-10 19l-8 18l-7 18l-6 21l-22 -35l-12 -16l-15 -15l-12 -14l-14 -12l-15 -15
l-31 -22l-32 -19l-19 -10l-20 -8l-19 -6l-61 -12l-21 -2h-43l-41 4l-18 4l-20 4l-37 12l-37 16l-17 11l-18 10l-16 12l-43 41l-25 33l-12 18l-21 39h-4l4 -22l2 -23l4 -20l2 -21l3 -18l2 -19l2 -16l4 -39v-22l2 -21v-303z" />
    <glyph glyph-name="paragraph" unicode="&#xb6;" horiz-adv-x="1132" 
d="M733 551h-69l-121 12l-37 8l-21 4l-16 7l-23 6l-20 6l-20 8l-21 6l-18 10l-56 29l-16 10l-16 13l-17 12l-14 12l-15 15l-14 12l-12 14l-12 17l-13 14l-20 33l-8 18l-11 17l-8 18l-6 18l-6 21l-4 18l-8 43l-2 21l-3 22v49l3 21l4 41l8 41l12 37l25 55l10 18l37 52l14 14
l14 16l33 29l15 10l16 13l33 20l35 19l18 8l20 8l21 6l20 8l19 4l18 6l21 5l20 4l21 2l20 4l43 4h21l22 2h283v-1491h-199v551z" />
    <glyph glyph-name="periodcentered" unicode="&#xb7;" horiz-adv-x="552" 
d="M166 766h223v-244h-223v244z" />
    <glyph glyph-name="cedilla" unicode="&#xb8;" horiz-adv-x="1081" 
d="M512 31h147l-32 -74l-49 -111l-11 -16l-32 -74l-41 -92l-21 8l-39 19l-59 24l-21 11l-18 8l-21 8l13 16l10 19l70 100l22 35l25 35l34 49l11 18z" />
    <glyph glyph-name="one.sup" unicode="&#xb9;" horiz-adv-x="700" 
d="M461 1743v-840h-123v709l-80 -31l-98 -37l-6 21l-9 22l-6 21l-8 22l-6 21l18 6l19 8l74 29l18 6l18 8l19 6l18 8l19 7l18 8l19 6h96z" />
    <glyph glyph-name="ordmasculine" unicode="&#xba;" horiz-adv-x="847" 
d="M406 975h40l21 4l18 4l19 6l16 10l15 11l14 12l14 14l12 15l11 16l8 16l8 19l12 57v45l-8 41l-12 37l-21 33l-12 16l-45 35l-18 10l-17 6l-39 9h-41l-20 -5l-19 -4l-18 -6l-16 -8l-15 -10l-14 -12l-27 -29l-10 -17l-8 -18l-8 -16l-8 -39l-5 -21v-45l5 -20l4 -21l12 -37
l20 -32l13 -15l14 -14l14 -12l33 -21l19 -6l18 -4zM117 717h614v-107h-614v107zM444 864h-45l-20 2l-23 4l-20 4l-21 7l-18 8l-21 8l-18 10l-33 23l-14 12l-14 14l-13 15l-24 33l-10 16l-25 55l-6 21l-8 41l-2 20v47l2 21l8 41l6 20l8 21l8 18l9 18l10 17l24 33l29 28l16 13
l17 12l55 31l59 18l23 4l20 2h46l20 -2l23 -4l20 -4l20 -6l19 -8l37 -19l16 -10l17 -12l30 -27l13 -14l24 -33l10 -16l9 -19l10 -18l12 -39l8 -41l2 -21v-49l-2 -20l-8 -41l-6 -21l-6 -18l-19 -37l-34 -49l-29 -29l-49 -35l-19 -10l-18 -8l-21 -8l-41 -13l-20 -4z" />
    <glyph glyph-name="guillemotright" unicode="&#xbb;" horiz-adv-x="1224" 
d="M129 164l61 84l11 18l24 33l13 16l12 19l24 33l13 16l24 35l13 16l12 17l10 18l37 49l12 19l13 16l-13 16l-49 68l-10 18l-12 17l-13 16l-24 35l-37 49l-12 19l-25 32l-12 17l-72 102l35 21l35 18l32 20l19 9l16 10l13 -16l12 -17l14 -16l88 -115l27 -33l12 -16l64 -80
l24 -33l15 -16l49 -66l39 -49v-18l-25 -33l-51 -66l-27 -30l-24 -33l-103 -131l-24 -33l-52 -63l-12 -17l-14 -16l-12 -17l-13 -16l-16 10l-19 9l-16 10l-51 26l-19 11zM623 164l12 16l59 86l37 49l12 19l13 16l10 17l86 118l47 68l-37 51l-10 17l-86 118l-10 17l-13 16
l-49 68l-12 18l-12 16l-11 17l-12 16l-12 19l-12 16l34 21l17 8l35 20l16 10l18 9l17 10l24 -33l15 -16l24 -33l27 -33l76 -98l12 -14l76 -99l63 -82l15 -16l24 -33v-18l-24 -33l-15 -16l-37 -50l-26 -30l-88 -115l-52 -65l-51 -64l-24 -33l-15 -16l-24 -33l-17 10l-18 9
l-16 10l-17 8l-18 10l-17 8l-18 11z" />
    <glyph glyph-name="onequarter" unicode="&#xbc;" horiz-adv-x="1775" 
d="M1444 283v407l-98 -131l-74 -96l-135 -180h307zM1559 838v-553h114v-103h-114v-186h-117v186h-402l-22 111l49 65l12 17l37 49l49 68l49 65l15 16l86 115l12 19l49 65l49 66h134zM1305 1491h125l-13 -16l-10 -17l-25 -35l-10 -16l-12 -16l-10 -17l-13 -16l-12 -17
l-10 -18l-25 -33l-45 -65l-22 -35l-13 -16l-12 -17l-80 -117l-35 -51l-12 -16l-57 -82l-10 -19l-25 -32l-10 -17l-13 -16l-22 -35l-12 -16l-35 -49l-10 -19l-13 -16l-10 -19l-25 -32l-10 -19l-35 -51l-12 -16l-10 -19l-25 -35l-67 -102l-70 -105l-35 -51l-12 -16l-10 -19
l-13 -16l-22 -35l-12 -16l-11 -19l-24 -32l-10 -19l-13 -16l-10 -19l-12 -16h-125l12 16l10 17l13 16l22 35l12 16l35 50l11 18l24 33l10 16l13 16l10 17l59 84l10 16l13 17l10 18l25 33l45 65l12 19l12 16l10 17l13 16l10 16l12 17l13 16l10 18l24 33l11 17l12 16l22 35
l13 16l10 17l25 32l10 19l12 16l10 19l25 32l10 19l25 35l10 16l12 16l10 19l13 16l22 35l13 16l114 175l13 16l22 35l12 16l11 19l12 16l22 35l13 16l10 19l25 32l10 19l12 16l10 19zM459 1503v-837h-123v708l-21 -8l-18 -6l-21 -8l-20 -9l-59 -22l-19 -6l-20 -8l-6 20
l-9 23l-6 20l-8 23l-6 20l74 29l36 12l19 8l37 13l18 8l19 6l18 8l18 6h97z" />
    <glyph glyph-name="onehalf" unicode="&#xbd;" horiz-adv-x="1775" 
d="M459 1503v-837h-123v708l-21 -8l-18 -6l-21 -8l-20 -9l-59 -22l-19 -6l-20 -8l-6 20l-9 23l-6 20l-8 23l-6 20l74 29l36 12l19 8l37 13l18 8l19 6l18 8l18 6h97zM1284 1491h125l-12 -16l-11 -17l-12 -16l-22 -35l-13 -16l-10 -17l-24 -33l-11 -18l-24 -33l-10 -16
l-13 -17l-35 -51l-79 -116l-13 -17l-10 -16l-12 -17l-13 -16l-22 -35l-12 -16l-11 -17l-12 -16l-10 -16l-12 -17l-13 -16l-10 -19l-25 -32l-10 -17l-35 -51l-12 -16l-10 -17l-25 -32l-10 -19l-12 -16l-10 -19l-25 -32l-10 -19l-13 -16l-22 -35l-12 -16l-11 -19l-12 -16
l-22 -35l-13 -16l-114 -175l-13 -16l-22 -35l-13 -16l-10 -19l-35 -51l-12 -16l-10 -19l-25 -32l-10 -19l-12 -16l-10 -19l-13 -16h-125l13 16l10 17l35 51l12 16l10 17l25 33l10 18l25 33l10 16l12 16l10 17l13 16l22 35l25 33l10 16l12 17l11 18l24 33l10 16l25 33l22 35
l13 16l57 82l10 18l25 33l10 17l23 32l12 19l12 16l10 17l25 32l10 19l13 16l10 19l24 32l11 19l12 16l22 35l13 16l10 19l25 35l10 16l69 104l13 17l32 51l48 70l12 16l10 19l23 32l12 19l12 16l10 19l25 32l10 19l13 16l10 19zM1655 113v-113h-598v106l30 27l31 25l29 26
l16 13l15 14l16 12l14 15l31 24l14 14l17 13l14 12l14 14l48 39l34 31l52 47l14 17l27 26l10 14l20 33l6 19l7 18l4 39l-2 23l-5 22l-20 37l-16 16l-15 11l-16 10l-16 6l-19 6l-41 4h-20l-21 -4l-18 -4l-21 -8l-16 -8l-19 -11l-14 -10l-29 -26l-28 -29l-13 -19l-14 -18
l-31 22l-14 11l-16 10l-15 12l-16 11l12 18l15 18l12 17l14 16l15 14l14 15l47 39l16 10l37 16l39 13l45 8l23 2h47l22 -2l21 -4l22 -6l21 -7l37 -16l16 -10l16 -12l17 -11l37 -43l10 -16l8 -16l8 -19l13 -57v-41l-2 -21l-5 -20l-4 -19l-8 -18l-6 -18l-10 -19l-10 -16
l-11 -15l-12 -14l-10 -14l-15 -15l-12 -14l-14 -12l-72 -66l-16 -12l-62 -53l-14 -13l-16 -12l-76 -65l-17 -13l-14 -14l-16 -12h428z" />
    <glyph glyph-name="threequarters" unicode="&#xbe;" horiz-adv-x="1935" 
d="M162 1376v115h547v-98l-29 -29l-86 -84l-86 -84l-57 -55l22 -2l21 -4l20 -5l21 -4l20 -6l18 -6l19 -8l18 -10l17 -11l14 -10l27 -26l12 -15l10 -16l10 -14l7 -19l6 -18l8 -41v-45l-4 -23l-4 -20l-6 -21l-19 -39l-10 -16l-12 -17l-15 -16l-30 -27l-17 -12l-18 -10l-60 -23
l-20 -6l-19 -4l-18 -2l-20 -2h-43l-44 4l-22 4l-18 4l-39 13l-56 26l-34 25l-19 12l-16 14l-15 15l-16 14l-14 17l14 14l12 14l15 15l12 14l14 14l13 15l14 -17l29 -29l32 -24l33 -19l16 -10l37 -12l37 -8l19 -2h20l23 2l20 2l21 6l18 8l35 23l14 12l12 16l9 17l6 18l4 21
l2 20l-2 23l-4 20l-8 19l-11 16l-14 16l-18 13l-31 16l-35 12l-18 2l-21 4l-20 2h-99l-4 19l-6 20l-4 19l-6 18l43 43l43 43l86 84l43 43l43 43h-389zM1454 1491h125l-12 -16l-11 -17l-12 -16l-22 -35l-13 -16l-10 -17l-24 -33l-11 -18l-24 -33l-10 -16l-13 -17l-35 -51
l-79 -116l-13 -17l-10 -16l-12 -17l-13 -16l-22 -35l-12 -16l-11 -17l-12 -16l-10 -16l-12 -17l-13 -16l-10 -19l-25 -32l-10 -17l-35 -51l-12 -16l-10 -17l-25 -32l-10 -19l-12 -16l-10 -19l-25 -32l-10 -19l-13 -16l-22 -35l-12 -16l-11 -19l-12 -16l-22 -35l-13 -16
l-114 -175l-13 -16l-22 -35l-13 -16l-10 -19l-35 -51l-12 -16l-10 -19l-25 -32l-10 -19l-12 -16l-10 -19l-13 -16h-125l13 16l10 17l35 51l12 16l10 17l25 33l10 18l25 33l10 16l12 16l10 17l13 16l22 35l25 33l10 16l12 17l11 18l24 33l10 16l25 33l22 35l13 16l10 17
l12 16l10 16l25 33l10 18l25 33l10 17l23 32l12 19l12 16l10 17l25 32l10 19l13 16l10 19l24 32l11 19l12 16l22 35l13 16l10 19l25 35l10 16l69 104l13 17l32 51l48 70l12 16l10 19l23 32l12 19l12 16l10 19l25 32l10 19l13 16l10 19zM1604 283v407l-37 -49l-74 -98
l-135 -178l-12 -17l-37 -49l-13 -16h308zM1718 838v-553h115v-103h-115v-186h-116v186h-402l-22 111l36 49l62 82l24 35l37 49l37 49l15 16l36 50l25 32l12 17l13 16l110 150h133z" />
    <glyph glyph-name="questiondown" unicode="&#xbf;" horiz-adv-x="1163" 
d="M612 -18h-45l-20 2h-21l-20 2l-21 4l-18 2l-21 4l-18 6l-18 4l-17 6l-20 6l-37 17l-19 10l-32 21l-17 10l-45 39l-14 14l-37 49l-12 19l-10 18l-9 18l-8 19l-6 16l-4 19l-6 18l-4 21l-2 18l-2 21l-3 20v49l3 21l4 41l4 20l6 19l4 18l6 16l8 19l19 35l10 16l25 33l41 43
l14 12l51 35l35 18l18 8l21 11l55 18l19 4l18 6l57 13l21 2l2 20l2 23l2 20l14 150h129l8 -82l3 -21l24 -243l-10 -11l-27 -2h-24l-23 -2l-24 -4l-23 -2l-61 -12l-37 -12l-35 -13l-14 -8l-17 -8l-14 -8l-29 -23l-29 -26l-22 -31l-23 -51l-6 -21l-4 -18l-2 -21v-45l4 -20
l2 -21l6 -20l7 -17l10 -18l8 -16l12 -17l13 -16l30 -27l15 -12l16 -8l18 -11l17 -8l20 -6l41 -8l23 -4l22 -2h47l46 4l40 8l60 18l39 19l30 18l17 13l16 10l17 12l45 41l14 14l14 17l15 16l125 -125l-41 -45l-29 -26l-14 -15l-62 -49l-67 -41l-33 -16l-35 -15l-55 -18
l-21 -4l-18 -4l-21 -2l-20 -4l-23 -2h-20zM520 1491h223v-246h-223v246z" />
    <glyph glyph-name="Agrave" unicode="&#xc0;" horiz-adv-x="1699" 
d="M930 1640h-156l-47 37l-16 15l-17 12l-30 25l-33 24l-31 25l-16 14l-17 12l-14 13l-33 24l19 8l18 9l21 8l18 8l18 10l19 8l18 9l58 24l49 -63l12 -17l25 -30l12 -17l12 -14l74 -96l12 -17l13 -14zM530 561h631l-65 150l-19 37l-24 57l-41 92l-8 21l-41 92l-9 18l-16 39
l-27 55l-65 150l-8 -19l-9 -18l-8 -18l-24 -58l-25 -55l-67 -150l-9 -18l-8 -18l-24 -58l-41 -94l-19 -37l-41 -92zM758 1501h184l16 -37l9 -18l8 -21l10 -18l16 -37l58 -131l10 -18l49 -113l8 -21l9 -18l8 -18l67 -150l9 -18l8 -21l10 -18l41 -92l33 -76l10 -19l8 -18
l8 -21l41 -92l8 -20l9 -19l10 -18l16 -37l9 -18l40 -95l19 -38l24 -56l9 -18l32 -76l19 -37l8 -18l33 -76h-209l-16 37l-41 92l-25 55l-63 146l-25 55h-778l-49 -111l-33 -73l-6 -17l-41 -92l-41 -92h-203l16 37l9 18l8 21l10 18l33 74l16 39l17 37l10 18l57 131l8 21l11 18
l32 74l33 76l59 131l43 94l25 55l8 21l8 18l11 19l24 55l41 94l51 113l9 18l8 21l8 18l10 18l8 19l58 131l10 18z" />
    <glyph glyph-name="Aacute" unicode="&#xc1;" horiz-adv-x="1699" 
d="M928 1640h-158l12 17l13 14l36 49l37 47l27 31l12 17l25 30l61 80l56 -24l18 -9l20 -8l19 -10l37 -16l18 -9l19 -8l-17 -12l-30 -25l-17 -12l-14 -14l-33 -25l-14 -12l-64 -49l-16 -15l-17 -12zM530 561h631l-65 150l-19 37l-24 57l-41 92l-8 21l-41 92l-9 18l-16 39
l-27 55l-65 150l-8 -19l-9 -18l-8 -18l-24 -58l-25 -55l-67 -150l-9 -18l-8 -18l-24 -58l-41 -94l-19 -37l-41 -92zM758 1501h184l16 -37l9 -18l8 -21l10 -18l16 -37l58 -131l10 -18l49 -113l8 -21l9 -18l8 -18l67 -150l9 -18l8 -21l10 -18l41 -92l33 -76l10 -19l8 -18
l8 -21l41 -92l8 -20l9 -19l10 -18l16 -37l9 -18l40 -95l19 -38l24 -56l9 -18l32 -76l19 -37l8 -18l33 -76h-209l-16 37l-41 92l-25 55l-63 146l-25 55h-778l-49 -111l-33 -73l-6 -17l-41 -92l-41 -92h-203l16 37l9 18l8 21l10 18l33 74l16 39l17 37l10 18l57 131l8 21l11 18
l32 74l33 76l59 131l43 94l25 55l8 21l8 18l11 19l24 55l41 94l51 113l9 18l8 21l8 18l10 18l8 19l58 131l10 18z" />
    <glyph glyph-name="Acircumflex" unicode="&#xc2;" horiz-adv-x="1699" 
d="M760 1898h180l14 -16l15 -14l71 -78l15 -14l12 -17l43 -45l14 -16l15 -15l14 -16l14 -14l15 -17h-174l-33 25l-14 14l-66 49l-14 15l-33 24l-33 -24l-14 -15l-66 -49l-14 -14l-33 -25h-170l14 17l86 92l15 14l12 17l43 45l14 16l15 14l14 17zM530 561h631l-65 150l-19 37
l-24 57l-41 92l-8 21l-41 92l-9 18l-16 39l-27 55l-65 150l-8 -19l-9 -18l-8 -18l-24 -58l-25 -55l-67 -150l-9 -18l-8 -18l-24 -58l-41 -94l-19 -37l-41 -92zM758 1501h184l16 -37l9 -18l8 -21l10 -18l16 -37l58 -131l10 -18l49 -113l8 -21l9 -18l8 -18l67 -150l9 -18
l8 -21l10 -18l41 -92l33 -76l10 -19l8 -18l8 -21l41 -92l8 -20l9 -19l10 -18l16 -37l9 -18l40 -95l19 -38l24 -56l9 -18l32 -76l19 -37l8 -18l33 -76h-209l-16 37l-41 92l-25 55l-63 146l-25 55h-778l-49 -111l-33 -73l-6 -17l-41 -92l-41 -92h-203l16 37l9 18l8 21l10 18
l33 74l16 39l17 37l10 18l57 131l8 21l11 18l32 74l33 76l59 131l43 94l25 55l8 21l8 18l11 19l24 55l41 94l51 113l9 18l8 21l8 18l10 18l8 19l58 131l10 18z" />
    <glyph glyph-name="Atilde" unicode="&#xc3;" horiz-adv-x="1699" 
d="M1014 1640h-21l-20 5l-23 4l-20 8l-37 12l-16 6l-19 6l-82 31l-20 6l-21 2l-16 2l-25 -2l-22 -8l-19 -12l-12 -14l-12 -19l-11 -20l-12 -25l-18 6l-21 4l-39 13l-18 4l-21 6l9 24l8 25l16 43l21 37l8 16l10 15l12 14l15 14l14 15l16 10l19 8l20 6l43 4h21l20 -4l23 -4
l22 -6l17 -8l18 -6l17 -7l102 -36l18 -7l21 -2l16 -2l21 2l18 4l15 7l14 12l10 12l12 19l11 20l12 25l20 -7l19 -6l20 -4l58 -18l-15 -49l-8 -23l-10 -20l-8 -19l-19 -35l-10 -14l-10 -12l-17 -17l-14 -12l-18 -10l-19 -8l-18 -6l-23 -3zM530 561h631l-65 150l-19 37l-24 57
l-41 92l-8 21l-41 92l-9 18l-16 39l-27 55l-65 150l-8 -19l-9 -18l-8 -18l-24 -58l-25 -55l-67 -150l-9 -18l-8 -18l-24 -58l-41 -94l-19 -37l-41 -92zM758 1501h184l16 -37l9 -18l8 -21l10 -18l16 -37l58 -131l10 -18l49 -113l8 -21l9 -18l8 -18l67 -150l9 -18l8 -21
l10 -18l41 -92l33 -76l10 -19l8 -18l8 -21l41 -92l8 -20l9 -19l10 -18l16 -37l9 -18l40 -95l19 -38l24 -56l9 -18l32 -76l19 -37l8 -18l33 -76h-209l-16 37l-41 92l-25 55l-63 146l-25 55h-778l-49 -111l-33 -73l-6 -17l-41 -92l-41 -92h-203l16 37l9 18l8 21l10 18l33 74
l16 39l17 37l10 18l57 131l8 21l11 18l32 74l33 76l59 131l43 94l25 55l8 21l8 18l11 19l24 55l41 94l51 113l9 18l8 21l8 18l10 18l8 19l58 131l10 18z" />
    <glyph glyph-name="Adieresis" unicode="&#xc4;" horiz-adv-x="1699" 
d="M535 1847h219v-207h-219v207zM946 1847h217v-207h-217v207zM530 561h631l-65 150l-19 37l-24 57l-41 92l-8 21l-41 92l-9 18l-16 39l-27 55l-65 150l-8 -19l-9 -18l-8 -18l-24 -58l-25 -55l-67 -150l-9 -18l-8 -18l-24 -58l-41 -94l-19 -37l-41 -92zM758 1501h184l16 -37
l9 -18l8 -21l10 -18l16 -37l58 -131l10 -18l49 -113l8 -21l9 -18l8 -18l67 -150l9 -18l8 -21l10 -18l41 -92l33 -76l10 -19l8 -18l8 -21l41 -92l8 -20l9 -19l10 -18l16 -37l9 -18l40 -95l19 -38l24 -56l9 -18l32 -76l19 -37l8 -18l33 -76h-209l-16 37l-41 92l-25 55l-63 146
l-25 55h-778l-49 -111l-33 -73l-6 -17l-41 -92l-41 -92h-203l16 37l9 18l8 21l10 18l33 74l16 39l17 37l10 18l57 131l8 21l11 18l32 74l33 76l59 131l43 94l25 55l8 21l8 18l11 19l24 55l41 94l51 113l9 18l8 21l8 18l10 18l8 19l58 131l10 18z" />
    <glyph glyph-name="Aring" unicode="&#xc5;" horiz-adv-x="1699" 
d="M850 1466l22 2l23 5l18 6l37 24l15 17l10 16l8 18l4 21l2 20l-2 21l-4 20l-8 17l-10 16l-15 17l-37 24l-18 6l-23 4l-22 2l-25 -2l-20 -4l-21 -6l-18 -12l-16 -12l-17 -17l-10 -16l-8 -17l-4 -20l-2 -21l2 -20l4 -21l8 -18l10 -16l17 -17l16 -12l18 -12l21 -6l20 -5z
M530 561h631l-65 150l-19 37l-24 57l-41 92l-8 21l-41 92l-9 18l-16 39l-27 55l-65 150l-8 -19l-9 -18l-8 -18l-24 -58l-25 -55l-67 -150l-9 -18l-8 -18l-24 -58l-41 -94l-19 -37l-41 -92zM831 1810h39l19 -2l37 -8l18 -6l21 -8l20 -10l19 -13l32 -28l13 -17l24 -37l8 -20
l6 -23l3 -20l2 -23l-2 -22l-3 -23l-6 -22l-10 -21l-10 -18l-12 -19l-15 -16l-35 -29l-18 -12l16 -37l33 -73l8 -21l11 -18l81 -185l9 -18l8 -21l16 -36l11 -19l65 -147l49 -113l10 -18l41 -93l9 -18l32 -76l41 -92l11 -18l81 -187l33 -73l68 -150h-209l-16 37l-41 92l-25 55
l-63 146l-25 55h-778l-49 -111l-33 -73l-6 -17l-41 -92l-41 -92h-203l16 37l41 94l11 19l114 260l10 18l66 147l49 113l19 37l32 74l9 18l32 76l41 92l11 19l16 36l24 58l41 92l33 74l68 149l-19 12l-18 15l-29 30l-24 37l-9 21l-6 22l-4 45l2 23l2 20l6 23l21 39l12 18
l13 17l32 28l19 13l20 10l39 14l37 8z" />
    <glyph glyph-name="AE" unicode="&#xc6;" horiz-adv-x="2242" 
d="M1053 561v756h-49l-82 -141l-52 -89l-71 -122l-11 -17l-8 -18l-30 -53l-41 -70l-11 -16l-71 -125l-41 -70l-11 -16l-10 -19h488zM2097 1491v-178h-848v-473h752v-178h-752v-484h858v-178h-1054v385h-584l-82 -139l-10 -19l-10 -16l-19 -37l-10 -16l-10 -19l-11 -16
l-10 -19l-10 -16l-10 -18l-41 -70h-205l31 53l10 19l31 53l30 53l52 88l10 19l53 88l10 18l62 107l30 53l11 16l20 37l62 107l30 53l11 16l20 37l51 88l10 19l11 16l20 37l72 123l12 18l10 19l11 16l20 37l72 123l20 37l11 16l20 37l10 16l41 72h1192z" />
    <glyph glyph-name="Ccedilla" unicode="&#xc7;" horiz-adv-x="1595" 
d="M147 700v86l3 21l6 61l16 80l18 58l39 96l41 74l49 65l27 33l43 43l17 14l16 12l14 15l51 35l19 12l37 20l18 11l19 10l20 8l18 8l19 6l20 9l39 12l101 20l43 4h22l21 3h67l21 -3l43 -4l18 -2l21 -2l18 -4l21 -2l20 -6l18 -4l95 -31l18 -8l21 -8l73 -41l19 -12l49 -37
l16 -15l17 -12l32 -29l17 -14l-57 -65l-72 -80l-33 28l-14 15l-68 49l-35 22l-16 11l-18 8l-17 10l-35 16l-18 7l-37 12l-37 8l-20 4l-21 2l-20 4h-23l-20 2h-43l-64 -6l-41 -8l-18 -4l-21 -6l-37 -13l-36 -16l-17 -10l-18 -8l-17 -11l-16 -12l-16 -10l-58 -51l-41 -45
l-45 -64l-10 -18l-8 -19l-10 -18l-9 -19l-6 -18l-8 -21l-12 -38l-6 -21l-4 -20l-5 -21l-2 -20l-2 -23l-2 -20l-2 -23v-47l2 -20v-21l2 -18l4 -21l2 -18l5 -19l4 -20l6 -19l4 -18l6 -19l8 -16l6 -20l9 -19l10 -18l8 -19l21 -34l24 -33l10 -15l41 -45l43 -39l31 -24l33 -21
l90 -43l18 -6l21 -6l59 -12l41 -4l23 -2h41l20 2h21l20 2l19 4l18 2l18 4l21 6l20 4l41 15l37 16l19 10l18 8l18 13l52 34l14 13l45 35l14 14l15 12l14 15l43 -43l14 -15l15 -12l57 -57l-14 -15l-29 -26l-12 -15l-17 -12l-28 -25l-15 -10l-16 -14l-72 -47l-20 -11l-19 -8
l-16 -10l-18 -6l-19 -8l-16 -6l-19 -9l-20 -6l-19 -4l-18 -6l-55 -12l-78 -8l-21 -3h-20l-57 -129l-9 -18l-10 -18l-24 -56l-41 -92l-21 8l-39 19l-59 24l-21 11l-18 8l-21 8l13 16l10 19l37 51l10 18l12 17l13 16l10 19l12 16l12 18l13 17l10 18l12 17l-20 4l-64 12l-59 18
l-19 9l-20 6l-18 8l-19 10l-18 8l-17 11l-37 20l-49 35l-30 27l-15 12l-57 57l-12 17l-13 14l-24 33l-13 16l-30 53l-19 37l-24 55l-15 39l-12 37l-16 78l-4 21l-4 38l-2 21z" />
    <glyph glyph-name="Egrave" unicode="&#xc8;" horiz-adv-x="1443" 
d="M213 1491h1085v-178h-888v-473h792v-178h-792v-484h899v-178h-1096v1491zM840 1620h-156l-16 12l-15 13l-16 12l-16 14l-17 12l-14 13l-80 61l-16 15l-17 12l-14 12l-17 12l-16 13l76 32l18 11l37 16l21 8l18 8l18 9l13 -17l123 -157l12 -17z" />
    <glyph glyph-name="Eacute" unicode="&#xc9;" horiz-adv-x="1443" 
d="M213 1491h1085v-178h-888v-473h792v-178h-792v-484h899v-178h-1096v1491zM838 1620h-158l12 16l49 64l13 14l24 33l15 16l36 47l13 15l24 33l25 30l12 17l55 -25l39 -16l19 -11l74 -32l-17 -13l-14 -12l-33 -24l-14 -15l-33 -24l-14 -13l-50 -37l-30 -26l-17 -12l-14 -13
z" />
    <glyph glyph-name="Ecircumflex" unicode="&#xca;" horiz-adv-x="1443" 
d="M1092 1620h-174l-17 12l-16 13l-15 14l-65 49l-14 14l-33 25l-17 -12l-16 -13l-14 -14l-49 -37l-17 -12l-14 -14l-33 -25h-170l14 16l15 15l14 16l14 14l15 17l14 14l14 17l15 14l12 16l43 45l14 17l58 61h180l14 -16l15 -15l14 -16l14 -14l15 -17l14 -14l14 -16l15 -15
l12 -16l14 -14l15 -17l14 -14l14 -17zM213 1491h1085v-178h-888v-473h792v-178h-792v-484h899v-178h-1096v1491z" />
    <glyph glyph-name="Edieresis" unicode="&#xcb;" horiz-adv-x="1443" 
d="M213 1491h1085v-178h-888v-473h792v-178h-792v-484h899v-178h-1096v1491zM446 1827h220v-207h-220v207zM858 1827h217v-207h-217v207z" />
    <glyph glyph-name="Igrave" unicode="&#xcc;" horiz-adv-x="653" 
d="M406 1620h-156l-17 12l-63 51l-14 13l-50 37l-14 12l-16 12l-17 15l-16 12l-14 12l-17 12l-16 13l76 32l18 11l76 32l18 9l13 -17l12 -14l123 -160l12 -14zM227 1491h199v-1491h-199v1491z" />
    <glyph glyph-name="Iacute" unicode="&#xcd;" horiz-adv-x="653" 
d="M403 1620h-157l49 63l12 17l37 47l27 31l24 32l49 64l13 14l12 17l74 -33l20 -8l19 -11l73 -32l-30 -25l-33 -24l-14 -15l-33 -24l-64 -50l-30 -26l-17 -12l-14 -13zM227 1491h199v-1491h-199v1491z" />
    <glyph glyph-name="Icircumflex" unicode="&#xce;" horiz-adv-x="653" 
d="M236 1882h180l43 -47l14 -14l14 -17l15 -14l28 -31l13 -16l14 -14l14 -17l15 -14l71 -78h-174l-32 25l-15 14l-65 49l-15 14l-32 25l-17 -12l-16 -13l-15 -14l-65 -49l-14 -14l-33 -25h-170l14 16l15 15l14 16l14 14l15 17l14 14l14 17l15 14l12 16l43 45l14 17z
M227 1491h199v-1491h-199v1491z" />
    <glyph glyph-name="Idieresis" unicode="&#xcf;" horiz-adv-x="653" 
d="M12 1827h219v-207h-219v207zM424 1827h217v-207h-217v207zM227 1491h199v-1491h-199v1491z" />
    <glyph glyph-name="Eth" unicode="&#xd0;" horiz-adv-x="1744" 
d="M475 674v-494h354l21 2h22l21 2l20 4l21 2l20 5l19 4l76 24l92 45l16 13l17 10l16 12l14 12l17 13l28 28l54 66l40 76l9 20l6 19l8 18l4 20l6 21l4 18l4 21l2 20l5 21v22l2 21v47l-2 22v21l-5 20l-2 21l-8 41l-6 18l-4 21l-8 18l-6 21l-17 35l-8 18l-10 16l-10 19l-11 16
l-12 14l-10 17l-12 14l-15 15l-12 14l-14 14l-17 13l-14 12l-16 12l-17 10l-16 13l-19 10l-16 10l-37 16l-20 11l-56 18l-20 4l-19 6l-20 4l-21 3l-20 4l-21 2h-22l-21 2h-354v-486h424v-151h-424zM276 0v674h-159v151h159v666h574l104 -10l41 -8l39 -9l21 -4l73 -24l21 -11
l41 -16l37 -20l18 -11l19 -10l18 -12l66 -49l45 -43l41 -45l26 -33l10 -17l13 -18l10 -16l31 -54l8 -20l10 -19l6 -18l8 -18l7 -19l6 -18l4 -19l6 -20l8 -39l2 -19l4 -20l4 -41v-20l2 -21v-45l-2 -20v-21l-4 -41l-4 -20l-2 -21l-4 -18l-4 -21l-6 -18l-4 -19l-13 -39l-8 -18
l-6 -16l-18 -39l-31 -56l-10 -16l-13 -18l-10 -17l-26 -33l-41 -45l-29 -26l-14 -15l-62 -47l-67 -41l-35 -18l-39 -16l-19 -9l-18 -6l-18 -8l-19 -6l-18 -4l-21 -6l-39 -9l-41 -8l-82 -8l-22 -2h-574z" />
    <glyph glyph-name="Ntilde" unicode="&#xd1;" horiz-adv-x="1699" 
d="M213 1491h182l13 -16l51 -64l24 -33l27 -32l61 -80l76 -97l15 -16l61 -82l27 -31l36 -49l88 -112l15 -17l61 -80l15 -16l61 -82l27 -31l200 -258l15 -16l24 -33v1145h195v-1491h-162l-37 49l-14 14l-12 17l-37 49l-13 16l-14 15l-49 65l-12 17l-13 16l-14 14l-12 17
l-62 82l-14 14l-61 82l-15 14l-24 33l-50 66l-14 14l-49 65l-12 17l-13 16l-14 15l-61 81l-15 15l-73 98l-15 14l-74 99l-14 14l-24 33l-37 49l-15 14l-36 50v-1174h-193v1491zM1014 1614h-21l-20 4l-23 4l-20 8l-37 12l-16 7l-80 28l-21 9l-20 6l-21 2l-16 2l-25 -2l-22 -8
l-19 -13l-12 -14l-12 -19l-11 -20l-12 -25l-18 7l-21 4l-18 6l-21 6l-18 4l-21 6l25 72l8 20l10 19l11 18l8 17l10 14l41 43l16 10l19 8l20 6l21 3l22 2h21l20 -5l23 -4l22 -6l17 -8l53 -18l102 -37l21 -2l16 -2l21 2l18 4l15 6l14 12l10 13l12 18l11 20l12 25l39 -12l20 -4
l19 -7l39 -12l-8 -24l-7 -25l-8 -22l-18 -39l-19 -35l-10 -15l-10 -12l-31 -29l-18 -10l-19 -8l-18 -6z" />
    <glyph glyph-name="Ograve" unicode="&#xd2;" horiz-adv-x="1826" 
d="M893 156h45l20 2l23 2l20 2l62 12l39 12l76 33l51 31l47 37l29 26l26 29l12 16l13 15l12 16l10 17l11 16l20 37l16 37l9 18l6 21l8 18l4 20l6 21l8 41l2 20l5 21v22l2 21v49l-2 20l-3 23l-4 41l-8 41l-24 82l-9 18l-8 19l-20 37l-11 16l-20 35l-12 16l-13 14l-12 17
l-43 43l-14 12l-17 12l-14 13l-16 12l-51 31l-76 35l-39 12l-62 12l-20 2l-23 2l-20 2h-45l-64 -6l-61 -12l-21 -6l-18 -6l-20 -9l-19 -6l-18 -10l-19 -8l-51 -31l-47 -37l-29 -26l-12 -15l-14 -14l-37 -47l-10 -17l-11 -16l-20 -37l-25 -55l-6 -21l-8 -18l-4 -20l-6 -21
l-4 -20l-5 -21l-2 -20l-4 -21v-22l-2 -21v-49l8 -84l5 -21l4 -20l18 -61l8 -19l6 -20l11 -19l8 -18l41 -70l37 -47l28 -29l29 -26l47 -37l51 -31l76 -35l39 -12l61 -12zM954 -25h-86l-20 2l-21 3l-39 4l-20 4l-18 2l-21 4l-18 6l-21 4l-37 12l-18 7l-17 6l-18 8l-20 8
l-76 41l-17 12l-18 11l-33 24l-16 14l-17 13l-59 57l-63 82l-23 35l-39 74l-16 38l-6 19l-9 18l-6 21l-4 18l-6 19l-12 59l-4 18l-6 62l-3 20v86l3 21l6 61l16 78l12 37l6 21l7 18l8 18l24 58l31 55l35 53l24 33l15 14l28 33l13 12l14 15l29 24l16 15l15 10l16 12l16 10
l17 13l16 10l18 10l17 8l18 11l19 8l18 10l19 6l16 8l18 7l37 12l21 4l18 4l21 4l18 4l21 4l59 6l20 3h86l21 -3l41 -4l18 -2l21 -4l20 -2l19 -4l18 -6l21 -4l37 -12l73 -29l76 -41l16 -12l19 -11l33 -24l16 -15l33 -26l28 -29l15 -14l39 -49l24 -33l13 -16l30 -56l8 -18
l11 -19l8 -18l8 -21l6 -18l8 -18l7 -21l4 -18l6 -19l16 -78l8 -81v-86l-8 -82l-16 -78l-6 -19l-7 -18l-6 -21l-12 -36l-27 -58l-41 -74l-36 -51l-13 -16l-14 -14l-55 -60l-60 -49l-49 -35l-16 -10l-35 -18l-18 -11l-56 -24l-16 -8l-55 -19l-99 -20l-18 -2l-21 -2l-20 -3z
M993 1640h-155l-17 13l-14 12l-16 12l-80 64l-80 63l-47 37l37 17l20 8l18 8l56 27l39 16l18 8l12 -16l50 -64l12 -14l24 -33l13 -14l86 -113l12 -14z" />
    <glyph glyph-name="Oacute" unicode="&#xd3;" horiz-adv-x="1826" 
d="M893 156h45l20 2l23 2l20 2l62 12l39 12l76 33l51 31l47 37l29 26l26 29l12 16l13 15l12 16l10 17l11 16l20 37l16 37l9 18l6 21l8 18l4 20l6 21l8 41l2 20l5 21v22l2 21v49l-2 20l-3 23l-4 41l-8 41l-24 82l-9 18l-8 19l-20 37l-11 16l-20 35l-12 16l-13 14l-12 17
l-43 43l-14 12l-17 12l-14 13l-16 12l-51 31l-76 35l-39 12l-62 12l-20 2l-23 2l-20 2h-45l-64 -6l-61 -12l-21 -6l-18 -6l-20 -9l-19 -6l-18 -10l-19 -8l-51 -31l-47 -37l-29 -26l-12 -15l-14 -14l-37 -47l-10 -17l-11 -16l-20 -37l-25 -55l-6 -21l-8 -18l-4 -20l-6 -21
l-4 -20l-5 -21l-2 -20l-4 -21v-22l-2 -21v-49l8 -84l5 -21l4 -20l18 -61l8 -19l6 -20l11 -19l8 -18l41 -70l37 -47l28 -29l29 -26l47 -37l51 -31l76 -35l39 -12l61 -12zM954 -25h-86l-20 2l-21 3l-39 4l-20 4l-18 2l-21 4l-18 6l-21 4l-37 12l-18 7l-17 6l-18 8l-20 8
l-76 41l-17 12l-18 11l-33 24l-16 14l-17 13l-59 57l-63 82l-23 35l-39 74l-16 38l-6 19l-9 18l-6 21l-4 18l-6 19l-12 59l-4 18l-6 62l-3 20v86l3 21l6 61l16 78l12 37l6 21l7 18l8 18l24 58l31 55l35 53l24 33l15 14l28 33l13 12l14 15l29 24l16 15l15 10l16 12l16 10
l17 13l16 10l18 10l17 8l18 11l19 8l18 10l19 6l16 8l18 7l37 12l21 4l18 4l21 4l18 4l21 4l59 6l20 3h86l21 -3l41 -4l18 -2l21 -4l20 -2l19 -4l18 -6l21 -4l37 -12l73 -29l76 -41l16 -12l19 -11l33 -24l16 -15l33 -26l28 -29l15 -14l39 -49l24 -33l13 -16l30 -56l8 -18
l11 -19l8 -18l8 -21l6 -18l8 -18l7 -21l4 -18l6 -19l16 -78l8 -81v-86l-8 -82l-16 -78l-6 -19l-7 -18l-6 -21l-12 -36l-27 -58l-41 -74l-36 -51l-13 -16l-14 -14l-55 -60l-60 -49l-49 -35l-16 -10l-35 -18l-18 -11l-56 -24l-16 -8l-55 -19l-99 -20l-18 -2l-21 -2l-20 -3z
M991 1640h-157l12 17l12 14l88 113l37 47l74 94l55 -24l18 -9l21 -8l18 -10l74 -33l-63 -49l-15 -14l-96 -74l-31 -27l-16 -12l-14 -12z" />
    <glyph glyph-name="Ocircumflex" unicode="&#xd4;" horiz-adv-x="1826" 
d="M823 1903h181l14 -17l14 -14l15 -17l14 -14l14 -16l15 -15l14 -16l14 -14l12 -17l15 -14l14 -16l15 -15l14 -16l14 -14l15 -17l14 -14l14 -17h-174l-16 13l-17 12l-14 14l-66 50l-14 14l-33 24l-32 -24l-15 -14l-49 -37l-16 -13l-15 -14l-32 -25h-170l14 17l14 14l15 17
l14 14l14 16l15 15l14 16l14 14l13 17l14 14l14 16l15 15l14 16l14 14l15 17l14 14zM893 156h45l20 2l23 2l20 2l62 12l39 12l76 33l51 31l47 37l29 26l26 29l12 16l13 15l12 16l10 17l11 16l20 37l16 37l9 18l6 21l8 18l4 20l6 21l8 41l2 20l5 21v22l2 21v49l-2 20l-3 23
l-4 41l-8 41l-24 82l-9 18l-8 19l-20 37l-11 16l-20 35l-12 16l-13 14l-12 17l-43 43l-14 12l-17 12l-14 13l-16 12l-51 31l-76 35l-39 12l-62 12l-20 2l-23 2l-20 2h-45l-64 -6l-61 -12l-21 -6l-18 -6l-20 -9l-19 -6l-18 -10l-19 -8l-51 -31l-47 -37l-29 -26l-12 -15
l-14 -14l-37 -47l-10 -17l-11 -16l-20 -37l-25 -55l-6 -21l-8 -18l-4 -20l-6 -21l-4 -20l-5 -21l-2 -20l-4 -21v-22l-2 -21v-49l8 -84l5 -21l4 -20l18 -61l8 -19l6 -20l11 -19l8 -18l41 -70l37 -47l28 -29l29 -26l47 -37l51 -31l76 -35l39 -12l61 -12zM954 -25h-86l-20 2
l-21 3l-39 4l-20 4l-18 2l-21 4l-18 6l-21 4l-37 12l-18 7l-17 6l-18 8l-20 8l-76 41l-17 12l-18 11l-33 24l-16 14l-17 13l-59 57l-63 82l-23 35l-39 74l-16 38l-6 19l-9 18l-6 21l-4 18l-6 19l-12 59l-4 18l-6 62l-3 20v86l3 21l6 61l16 78l12 37l6 21l7 18l8 18l24 58
l31 55l35 53l24 33l15 14l28 33l13 12l14 15l29 24l16 15l15 10l16 12l16 10l17 13l16 10l18 10l17 8l18 11l19 8l18 10l19 6l16 8l18 7l37 12l21 4l18 4l21 4l18 4l21 4l59 6l20 3h86l21 -3l41 -4l18 -2l21 -4l20 -2l19 -4l18 -6l21 -4l37 -12l73 -29l76 -41l16 -12l19 -11
l33 -24l16 -15l33 -26l28 -29l15 -14l39 -49l24 -33l13 -16l30 -56l8 -18l11 -19l8 -18l8 -21l6 -18l8 -18l7 -21l4 -18l6 -19l16 -78l8 -81v-86l-8 -82l-16 -78l-6 -19l-7 -18l-6 -21l-12 -36l-27 -58l-41 -74l-36 -51l-13 -16l-14 -14l-55 -60l-60 -49l-49 -35l-16 -10
l-35 -18l-18 -11l-56 -24l-16 -8l-55 -19l-99 -20l-18 -2l-21 -2l-20 -3z" />
    <glyph glyph-name="Otilde" unicode="&#xd5;" horiz-adv-x="1826" 
d="M893 156h45l20 2l23 2l20 2l62 12l39 12l76 33l51 31l47 37l29 26l26 29l12 16l13 15l12 16l10 17l11 16l20 37l16 37l9 18l6 21l8 18l4 20l6 21l8 41l2 20l5 21v22l2 21v49l-2 20l-3 23l-4 41l-8 41l-24 82l-9 18l-8 19l-20 37l-11 16l-20 35l-12 16l-13 14l-12 17
l-43 43l-14 12l-17 12l-14 13l-16 12l-51 31l-76 35l-39 12l-62 12l-20 2l-23 2l-20 2h-45l-64 -6l-61 -12l-21 -6l-18 -6l-20 -9l-19 -6l-18 -10l-19 -8l-51 -31l-47 -37l-29 -26l-12 -15l-14 -14l-37 -47l-10 -17l-11 -16l-20 -37l-25 -55l-6 -21l-8 -18l-4 -20l-6 -21
l-4 -20l-5 -21l-2 -20l-4 -21v-22l-2 -21v-49l8 -84l5 -21l4 -20l18 -61l8 -19l6 -20l11 -19l8 -18l41 -70l37 -47l28 -29l29 -26l47 -37l51 -31l76 -35l39 -12l61 -12zM954 -25h-86l-20 2l-21 3l-39 4l-20 4l-18 2l-21 4l-18 6l-21 4l-37 12l-18 7l-17 6l-18 8l-20 8
l-76 41l-17 12l-18 11l-33 24l-16 14l-17 13l-59 57l-63 82l-23 35l-39 74l-16 38l-6 19l-9 18l-6 21l-4 18l-6 19l-12 59l-4 18l-6 62l-3 20v86l3 21l6 61l16 78l12 37l6 21l7 18l8 18l24 58l31 55l35 53l24 33l15 14l28 33l13 12l14 15l29 24l16 15l15 10l16 12l16 10
l17 13l16 10l18 10l17 8l18 11l19 8l18 10l19 6l16 8l18 7l37 12l21 4l18 4l21 4l18 4l21 4l59 6l20 3h86l21 -3l41 -4l18 -2l21 -4l20 -2l19 -4l18 -6l21 -4l37 -12l73 -29l76 -41l16 -12l19 -11l33 -24l16 -15l33 -26l28 -29l15 -14l39 -49l24 -33l13 -16l30 -56l8 -18
l11 -19l8 -18l8 -21l6 -18l8 -18l7 -21l4 -18l6 -19l16 -78l8 -81v-86l-8 -82l-16 -78l-6 -19l-7 -18l-6 -21l-12 -36l-27 -58l-41 -74l-36 -51l-13 -16l-14 -14l-55 -60l-60 -49l-49 -35l-16 -10l-35 -18l-18 -11l-56 -24l-16 -8l-55 -19l-99 -20l-18 -2l-21 -2l-20 -3z
M1077 1640h-20l-21 5l-22 4l-21 8l-37 12l-16 6l-18 6l-62 23l-20 8l-21 6l-20 2l-17 2l-24 -2l-23 -8l-18 -12l-12 -14l-13 -19l-22 -45l-19 6l-20 4l-39 13l-19 4l-20 6l16 49l17 43l20 37l8 16l11 15l41 43l16 10l18 8l21 6l20 2l23 2h20l43 -8l23 -6l16 -8l19 -6l16 -7
l103 -36l18 -7l20 -2l17 -2l20 2l19 4l14 7l14 12l11 12l12 19l22 45l39 -13l21 -4l18 -6l21 -6l18 -6l-8 -25l-6 -24l-8 -23l-11 -20l-8 -19l-10 -18l-8 -17l-10 -14l-27 -29l-14 -12l-19 -10l-18 -8l-19 -6l-22 -3z" />
    <glyph glyph-name="Odieresis" unicode="&#xd6;" horiz-adv-x="1826" 
d="M893 156h45l20 2l23 2l20 2l62 12l39 12l76 33l51 31l47 37l29 26l26 29l12 16l13 15l12 16l10 17l11 16l20 37l16 37l9 18l6 21l8 18l4 20l6 21l8 41l2 20l5 21v22l2 21v49l-2 20l-3 23l-4 41l-8 41l-24 82l-9 18l-8 19l-20 37l-11 16l-20 35l-12 16l-13 14l-12 17
l-43 43l-14 12l-17 12l-14 13l-16 12l-51 31l-76 35l-39 12l-62 12l-20 2l-23 2l-20 2h-45l-64 -6l-61 -12l-21 -6l-18 -6l-20 -9l-19 -6l-18 -10l-19 -8l-51 -31l-47 -37l-29 -26l-12 -15l-14 -14l-37 -47l-10 -17l-11 -16l-20 -37l-25 -55l-6 -21l-8 -18l-4 -20l-6 -21
l-4 -20l-5 -21l-2 -20l-4 -21v-22l-2 -21v-49l8 -84l5 -21l4 -20l18 -61l8 -19l6 -20l11 -19l8 -18l41 -70l37 -47l28 -29l29 -26l47 -37l51 -31l76 -35l39 -12l61 -12zM954 -25h-86l-20 2l-21 3l-39 4l-20 4l-18 2l-21 4l-18 6l-21 4l-37 12l-18 7l-17 6l-18 8l-20 8
l-76 41l-17 12l-18 11l-33 24l-16 14l-17 13l-59 57l-63 82l-23 35l-39 74l-16 38l-6 19l-9 18l-6 21l-4 18l-6 19l-12 59l-4 18l-6 62l-3 20v86l3 21l6 61l16 78l12 37l6 21l7 18l8 18l24 58l31 55l35 53l24 33l15 14l28 33l13 12l14 15l29 24l16 15l15 10l16 12l16 10
l17 13l16 10l18 10l17 8l18 11l19 8l18 10l19 6l16 8l18 7l37 12l21 4l18 4l21 4l18 4l21 4l59 6l20 3h86l21 -3l41 -4l18 -2l21 -4l20 -2l19 -4l18 -6l21 -4l37 -12l73 -29l76 -41l16 -12l19 -11l33 -24l16 -15l33 -26l28 -29l15 -14l39 -49l24 -33l13 -16l30 -56l8 -18
l11 -19l8 -18l8 -21l6 -18l8 -18l7 -21l4 -18l6 -19l16 -78l8 -81v-86l-8 -82l-16 -78l-6 -19l-7 -18l-6 -21l-12 -36l-27 -58l-41 -74l-36 -51l-13 -16l-14 -14l-55 -60l-60 -49l-49 -35l-16 -10l-35 -18l-18 -11l-56 -24l-16 -8l-55 -19l-99 -20l-18 -2l-21 -2l-20 -3z
M600 1847h219v-207h-219v207zM1012 1847h217v-207h-217v207z" />
    <glyph glyph-name="multiply" unicode="&#xd7;" horiz-adv-x="1353" 
d="M676 631l-14 -15l-15 -14l-14 -16l-15 -15l-45 -43l-145 -147l-43 -45l-16 -14l-43 -46l-15 -14l-14 17l-16 14l-15 16l-16 15l-14 16l-17 14l-14 17l-17 14l15 14l14 15l31 28l28 29l17 16l88 86l14 15l17 14l28 29l45 45l15 14l14 15l31 28l14 15l-74 71l-30 31l-43 43
l-17 14l-88 86l-45 45l-14 15l-31 28l-14 15l-15 14l43 43l41 41l43 43l15 -14l28 -31l60 -57l14 -17l88 -88l86 -88l17 -14l28 -31l15 -14l14 -15l14 15l15 14l28 31l117 116l14 17l43 43l15 14l14 17l31 28l71 74l17 -14l14 -17l17 -14l30 -31l45 -45l-28 -29l-17 -14
l-14 -14l-14 -17l-74 -71l-103 -103l-45 -43l-14 -16l-14 -14l-45 -43l28 -29l17 -14l28 -29l15 -14l14 -17l31 -28l88 -86l14 -15l31 -28l14 -17l43 -43l17 -14l28 -29l-57 -57l-55 -56l-15 -14l-71 74l-31 29l-14 16l-43 43l-15 14l-14 17l-117 116l-28 31l-15 14z" />
    <glyph glyph-name="Oslash" unicode="&#xd8;" horiz-adv-x="1826" 
d="M893 152h45l63 6l64 12l18 6l21 6l57 25l17 8l18 10l16 11l19 10l14 12l17 12l30 25l15 14l26 29l37 47l23 35l18 35l10 18l9 19l14 36l6 19l4 18l6 19l8 39l2 18l5 21l2 18v20l2 21v45l-2 20v21l-4 20l-3 23l-12 59l-18 58l-33 73l-10 17l-31 49l-12 16l-15 -14l-12 -16
l-14 -15l-15 -14l-12 -16l-14 -15l-15 -14l-12 -17l-41 -45l-41 -45l-41 -45l-41 -45l-41 -45l-14 -14l-14 -17l-27 -28l-205 -228l-41 -45l-41 -45l-14 -14l-12 -16l-29 -29l-12 -16l-29 -29l-12 -16l-15 -15l66 -43l35 -18l18 -6l19 -9l18 -6l19 -8l20 -4l21 -6l20 -4z
M348 770v-45l2 -20v-23l4 -20l2 -21l4 -20l5 -21l4 -20l18 -58l16 -37l9 -18l8 -18l41 -66l12 -16l29 30l26 31l15 14l96 109l14 14l15 17l14 14l12 16l15 15l14 16l14 14l13 17l14 14l14 17l15 14l12 16l43 45l26 31l15 14l14 17l15 14l12 16l28 31l15 15l12 16l14 14
l15 17l14 14l12 16l15 15l14 16l55 61l15 15l26 31l29 30l55 62l-30 22l-35 21l-17 8l-53 27l-18 6l-21 6l-18 6l-62 12l-61 6h-45l-64 -6l-63 -12l-39 -12l-18 -9l-19 -6l-37 -18l-18 -10l-17 -11l-18 -10l-14 -12l-17 -12l-30 -25l-15 -14l-12 -15l-14 -14l-37 -47
l-23 -35l-18 -35l-10 -18l-9 -19l-6 -18l-8 -18l-6 -19l-4 -18l-6 -19l-5 -20l-4 -19l-2 -18l-4 -21l-2 -18v-20zM1679 791v-86l-8 -82l-16 -78l-6 -19l-7 -18l-6 -21l-12 -36l-27 -58l-41 -74l-36 -51l-13 -16l-14 -14l-55 -60l-60 -49l-49 -35l-16 -10l-35 -18l-18 -11
l-56 -24l-16 -8l-55 -19l-99 -20l-18 -2l-21 -2l-20 -3l-21 -2h-65l-23 2h-20l-23 3l-20 2l-23 4l-20 2l-21 4l-20 6l-19 4l-20 6l-18 6l-23 9l-21 6l-18 8l-20 10l-19 8l-57 31l-17 10l-34 25l-15 -15l-12 -14l-53 -59l-15 -15l-12 -14l-14 -14h-203l14 16l15 14l55 64
l14 14l15 17l69 78l15 14l14 16l-61 78l-11 16l-10 19l-10 16l-8 17l-11 18l-24 55l-6 19l-9 18l-6 21l-6 18l-4 21l-6 18l-8 41l-2 20l-4 19l-4 41v22l-3 21v65l3 21l6 61l16 78l12 37l6 21l7 18l8 18l24 58l31 55l35 53l24 33l15 14l28 33l13 12l14 15l29 24l16 15l15 10
l16 12l16 10l17 13l16 10l18 10l17 8l18 11l19 8l18 10l19 6l16 8l18 7l37 12l21 4l18 4l21 4l18 4l21 4l59 6l20 3h66l23 -3h20l23 -2l20 -2l20 -4l23 -2l20 -4l19 -6l20 -4l21 -6l37 -13l18 -8l19 -6l36 -16l101 -60l16 -12l15 14l38 45l15 15l26 31l27 28h203l-56 -61
l-28 -33l-15 -14l-14 -17l-29 -30l-40 -48l-15 -14l-14 -16l24 -31l13 -14l35 -49l20 -35l8 -17l10 -18l25 -55l8 -19l6 -18l6 -21l7 -18l6 -21l16 -80l4 -38z" />
    <glyph glyph-name="Ugrave" unicode="&#xd9;" horiz-adv-x="1632" 
d="M188 1491h199v-879l2 -22v-23l2 -22l12 -64l5 -20l4 -19l6 -18l8 -18l6 -19l17 -33l18 -30l10 -15l12 -14l13 -12l12 -15l14 -14l31 -25l33 -20l37 -16l18 -9l19 -6l20 -4l21 -6l20 -4l68 -6h47l65 6l21 4l18 4l58 18l16 9l18 8l33 20l14 11l17 12l14 12l14 14l11 13
l12 12l21 29l8 16l10 14l6 19l8 16l6 19l7 18l6 19l12 61l2 23l4 20v25l2 22v889h197v-897l-6 -68l-4 -41l-5 -20l-4 -21l-4 -18l-6 -20l-4 -19l-12 -35l-25 -59l-18 -37l-11 -18l-12 -17l-10 -16l-12 -17l-13 -14l-12 -16l-57 -52l-31 -24l-33 -21l-18 -10l-53 -24l-19 -7
l-18 -8l-19 -4l-18 -6l-39 -8l-18 -4l-21 -4l-61 -6l-21 -3h-86l-20 3l-62 6l-78 16l-18 6l-19 4l-16 8l-22 7l-19 10l-20 8l-19 10l-37 23l-18 10l-16 12l-17 15l-16 12l-15 16l-14 13l-12 14l-12 16l-13 15l-20 32l-13 17l-8 18l-10 19l-8 18l-8 21l-9 20l-6 16l-6 19
l-4 18l-6 19l-4 18l-4 21l-2 20l-4 21l-4 41l-3 20l-2 23v909zM895 1614h-156l-16 12l-14 12l-17 13l-16 14l-17 12l-14 13l-49 36l-14 13l-17 12l-16 14l-17 13l-47 37l37 16l21 8l18 8l19 11l36 16l58 24l12 -16l49 -63l62 -78l24 -33l13 -14l36 -49l13 -15z" />
    <glyph glyph-name="Uacute" unicode="&#xda;" horiz-adv-x="1632" 
d="M188 1491h199v-879l2 -22v-23l2 -22l12 -64l5 -20l4 -19l6 -18l8 -18l6 -19l17 -33l18 -30l10 -15l12 -14l13 -12l12 -15l14 -14l31 -25l33 -20l37 -16l18 -9l19 -6l20 -4l21 -6l20 -4l68 -6h47l65 6l21 4l18 4l58 18l16 9l18 8l33 20l14 11l17 12l14 12l14 14l11 13
l12 12l21 29l8 16l10 14l6 19l8 16l6 19l7 18l6 19l12 61l2 23l4 20v25l2 22v889h197v-897l-6 -68l-4 -41l-5 -20l-4 -21l-4 -18l-6 -20l-4 -19l-12 -35l-25 -59l-18 -37l-11 -18l-12 -17l-10 -16l-12 -17l-13 -14l-12 -16l-57 -52l-31 -24l-33 -21l-18 -10l-53 -24l-19 -7
l-18 -8l-19 -4l-18 -6l-39 -8l-18 -4l-21 -4l-61 -6l-21 -3h-86l-20 3l-62 6l-78 16l-18 6l-19 4l-16 8l-22 7l-19 10l-20 8l-19 10l-37 23l-18 10l-16 12l-17 15l-16 12l-15 16l-14 13l-12 14l-12 16l-13 15l-20 32l-13 17l-8 18l-10 19l-8 18l-8 21l-9 20l-6 16l-6 19
l-4 18l-6 19l-4 18l-4 21l-2 20l-4 21l-4 41l-3 20l-2 23v909zM893 1614h-158l62 80l125 157l12 17l12 14l12 16l74 -32l21 -8l18 -11l74 -32l-17 -13l-47 -37l-14 -14l-33 -25l-14 -12l-33 -24l-78 -64z" />
    <glyph glyph-name="Ucircumflex" unicode="&#xdb;" horiz-adv-x="1632" 
d="M725 1876h180l43 -47l15 -14l14 -17l14 -14l15 -17l14 -14l12 -16l15 -15l14 -16l14 -14l15 -17l14 -14l14 -16l15 -15l14 -16h-174l-33 24l-14 15l-33 24l-16 13l-17 12l-14 14l-33 25l-33 -25l-14 -14l-49 -37l-17 -12l-14 -15l-33 -24h-170l43 47l15 14l57 62l12 16
l15 14l14 17l14 14l15 17l14 14l14 16l15 15zM188 1491h199v-879l2 -22v-23l2 -22l12 -64l5 -20l4 -19l6 -18l8 -18l6 -19l17 -33l18 -30l10 -15l12 -14l13 -12l12 -15l14 -14l31 -25l33 -20l37 -16l18 -9l19 -6l20 -4l21 -6l20 -4l68 -6h47l65 6l21 4l18 4l58 18l16 9l18 8
l33 20l14 11l17 12l14 12l14 14l11 13l12 12l21 29l8 16l10 14l6 19l8 16l6 19l7 18l6 19l12 61l2 23l4 20v25l2 22v889h197v-897l-6 -68l-4 -41l-5 -20l-4 -21l-4 -18l-6 -20l-4 -19l-12 -35l-25 -59l-18 -37l-11 -18l-12 -17l-10 -16l-12 -17l-13 -14l-12 -16l-57 -52
l-31 -24l-33 -21l-18 -10l-53 -24l-19 -7l-18 -8l-19 -4l-18 -6l-39 -8l-18 -4l-21 -4l-61 -6l-21 -3h-86l-20 3l-62 6l-78 16l-18 6l-19 4l-16 8l-22 7l-19 10l-20 8l-19 10l-37 23l-18 10l-16 12l-17 15l-16 12l-15 16l-14 13l-12 14l-12 16l-13 15l-20 32l-13 17l-8 18
l-10 19l-8 18l-8 21l-9 20l-6 16l-6 19l-4 18l-6 19l-4 18l-4 21l-2 20l-4 21l-4 41l-3 20l-2 23v909z" />
    <glyph glyph-name="Udieresis" unicode="&#xdc;" horiz-adv-x="1632" 
d="M188 1491h199v-879l2 -22v-23l2 -22l12 -64l5 -20l4 -19l6 -18l8 -18l6 -19l17 -33l18 -30l10 -15l12 -14l13 -12l12 -15l14 -14l31 -25l33 -20l37 -16l18 -9l19 -6l20 -4l21 -6l20 -4l68 -6h47l65 6l21 4l18 4l58 18l16 9l18 8l33 20l14 11l17 12l14 12l14 14l11 13
l12 12l21 29l8 16l10 14l6 19l8 16l6 19l7 18l6 19l12 61l2 23l4 20v25l2 22v889h197v-897l-6 -68l-4 -41l-5 -20l-4 -21l-4 -18l-6 -20l-4 -19l-12 -35l-25 -59l-18 -37l-11 -18l-12 -17l-10 -16l-12 -17l-13 -14l-12 -16l-57 -52l-31 -24l-33 -21l-18 -10l-53 -24l-19 -7
l-18 -8l-19 -4l-18 -6l-39 -8l-18 -4l-21 -4l-61 -6l-21 -3h-86l-20 3l-62 6l-78 16l-18 6l-19 4l-16 8l-22 7l-19 10l-20 8l-19 10l-37 23l-18 10l-16 12l-17 15l-16 12l-15 16l-14 13l-12 14l-12 16l-13 15l-20 32l-13 17l-8 18l-10 19l-8 18l-8 21l-9 20l-6 16l-6 19
l-4 18l-6 19l-4 18l-4 21l-2 20l-4 21l-4 41l-3 20l-2 23v909zM502 1821h219v-207h-219v207zM913 1821h217v-207h-217v207z" />
    <glyph glyph-name="Yacute" unicode="&#xdd;" horiz-adv-x="1542" 
d="M848 1614h-158l12 16l50 64l12 14l24 33l15 16l74 94l12 17l12 14l12 16l74 -32l21 -8l18 -11l74 -32l-17 -13l-47 -37l-14 -14l-33 -25l-14 -12l-33 -24l-78 -64zM870 0h-198v590l-13 16l-10 19l-24 32l-11 19l-12 16l-10 17l-25 34l-10 17l-25 35l-10 16l-47 68l-12 16
l-10 18l-13 17l-22 35l-23 32l-12 19l-12 16l-11 17l-12 16l-12 18l-10 17l-13 16l-22 35l-12 16l-93 138l-12 16l-22 35l-13 16l-10 17l-12 16l-11 18l-24 33l-10 19l-13 16h236l12 -16l10 -19l13 -16l10 -19l57 -84l11 -18l12 -16l22 -35l13 -17l10 -18l12 -16l10 -17
l13 -18l10 -17l12 -18l13 -17l22 -34l10 -17l13 -18l10 -17l12 -16l10 -18l13 -17l22 -35l12 -16l11 -18l45 -68l12 -16l10 -19l13 -16l10 -19l12 -16l12 16l11 19l12 16l10 19l25 32l10 19l12 16l10 17l25 34l10 19l13 16l10 17l12 18l35 51l10 17l12 18l13 16l45 70l10 17
l25 34l10 17l12 16l10 19l13 16l12 18l10 17l13 16l10 19l24 32l11 19l12 16l10 19l12 16h230l-13 -16l-10 -19l-47 -67l-10 -17l-25 -33l-10 -18l-25 -33l-69 -102l-10 -17l-13 -16l-10 -18l-47 -68l-12 -16l-11 -17l-12 -16l-22 -35l-13 -16l-12 -17l-10 -18l-82 -119
l-10 -16l-25 -33l-10 -19l-25 -32l-32 -51l-25 -33l-10 -19l-13 -16v-594z" />
    <glyph glyph-name="Thorn" unicode="&#xde;" horiz-adv-x="1449" 
d="M410 440h370l23 2l18 2l21 2l20 3l37 8l37 12l37 16l18 11l17 8l30 22l15 15l16 14l25 33l12 18l10 19l8 20l13 41l4 21l2 22v49l-2 23l-8 41l-5 20l-8 19l-16 32l-10 17l-13 16l-26 27l-15 12l-32 21l-17 10l-16 8l-19 6l-18 8l-18 4l-21 7l-20 4l-23 4l-68 6h-378v-623
zM213 1491h197v-250h393l22 -2h23l43 -4l82 -16l18 -7l21 -4l18 -8l21 -8l18 -8l21 -8l51 -29l16 -12l17 -11l30 -26l29 -29l14 -16l13 -17l12 -18l20 -37l11 -18l6 -19l8 -18l4 -21l6 -18l4 -21l4 -18l6 -64v-49l-2 -20l-2 -23l-2 -20l-12 -58l-12 -36l-8 -19l-19 -35
l-10 -16l-10 -19l-39 -47l-27 -28l-31 -25l-18 -12l-16 -12l-17 -11l-37 -20l-39 -19l-20 -8l-82 -24l-20 -4l-19 -5l-20 -2l-21 -4l-43 -4h-20l-21 -2h-364v-262h-197v1491z" />
    <glyph glyph-name="germandbls" unicode="&#xdf;" horiz-adv-x="1337" 
d="M377 0h-193v1090l4 45l2 20l3 21l8 41l18 57l8 20l19 39l20 35l37 49l43 43l16 13l17 12l53 31l21 8l20 10l37 12l18 4l21 6l20 5l84 8h45l23 -2l20 -2l23 -2l20 -2l19 -5l20 -6l19 -4l20 -6l39 -16l70 -41l30 -25l17 -16l14 -17l15 -16l43 -74l8 -18l6 -19l8 -36l4 -21
l2 -18l2 -21v-47l-4 -41l-12 -55l-6 -17l-11 -18l-8 -20l-20 -35l-51 -64l-31 -26l-14 -13l-52 -35l-16 -10l-18 -8l-17 -10l-18 -8l80 -25l77 -33l19 -10l82 -57l39 -43l35 -49l16 -35l6 -21l6 -18l8 -43l2 -23v-49l-4 -41l-8 -41l-6 -18l-6 -21l-17 -35l-30 -49l-25 -30
l-14 -15l-31 -24l-14 -13l-17 -12l-16 -10l-16 -8l-17 -11l-18 -8l-19 -6l-18 -8l-41 -12l-21 -7l-36 -8l-21 -4l-119 -12h-65v151l24 3h25l25 4l22 2l64 12l57 18l18 9l17 6l14 10l16 8l17 12l31 29l12 14l20 35l13 39l8 43v47l-8 41l-7 19l-8 18l-8 16l-24 33l-15 15
l-18 14l-17 12l-16 10l-16 9l-52 24l-39 15l-20 6l-20 4l-23 6l-20 4l-48 8l-24 2v140l41 16l18 10l19 8l18 11l19 10l63 45l31 27l14 14l25 33l10 16l16 35l6 20l5 19l4 20l2 21v51l-4 22l-5 21l-6 20l-16 37l-12 17l-13 16l-14 14l-31 25l-53 24l-18 7l-41 8l-23 2h-45
l-22 -2l-21 -4l-41 -13l-18 -8l-19 -10l-16 -10l-17 -13l-16 -14l-14 -14l-13 -15l-22 -30l-25 -51l-6 -19l-12 -59l-4 -45v-1096z" />
    <glyph glyph-name="agrave" unicode="&#xe0;" horiz-adv-x="1253" 
d="M707 1268h-148l-14 14l-15 12l-28 29l-148 137l-14 15l-29 26l113 51l39 19l37 16l10 -16l12 -17l10 -18l23 -33l20 -33l76 -118l13 -17l10 -16l10 -19zM535 125h40l62 6l37 8l78 31l18 10l16 10l17 13l43 41l10 14l21 35l8 16l12 37l4 21l2 18v117l-16 6l-37 8l-19 6
l-40 8l-39 9l-84 8l-23 2h-70l-45 -4l-20 -2l-41 -8l-51 -19l-17 -8l-14 -8l-12 -8l-19 -15l-14 -14l-23 -33l-8 -16l-8 -19l-8 -41v-24l2 -25l4 -22l6 -21l8 -18l11 -19l28 -32l47 -33l17 -8l18 -7l37 -12l21 -2l20 -4zM1085 0h-186v158l-51 -58l-14 -12l-17 -12l-16 -13
l-17 -12l-36 -20l-50 -23l-36 -12l-21 -6l-41 -8l-20 -2l-23 -3l-22 -2h-41l-21 2l-18 3l-39 4l-37 8l-39 12l-21 8l-18 8l-18 11l-19 10l-16 10l-17 12l-16 13l-29 28l-24 31l-23 37l-8 16l-12 33l-6 19l-4 20l-3 19l-2 20v47l2 21l3 20l4 21l18 55l8 16l11 19l12 18l26 33
l15 16l33 27l49 31l37 16l20 8l59 17l62 12l20 2l23 2h22l23 2h67l21 -2h23l92 -10l43 -8l20 -5l23 -4l61 -18v61l-2 25l-8 43l-6 20l-8 19l-9 18l-10 17l-12 16l-12 14l-15 15l-14 12l-14 10l-17 8l-16 9l-19 8l-18 6l-21 6l-20 4l-23 4l-45 4h-47l-20 -2h-21l-39 -4
l-20 -4l-19 -2l-16 -4l-18 -4l-39 -12l-39 -15l-19 -6l-18 -8l-21 -8l-18 -8l-6 18l-8 20l-13 39l-8 19l-6 18l-8 21l-6 18l37 17l18 6l18 8l39 12l19 8l18 6l19 5l20 6l53 12l19 4l102 10h70l24 -2h23l23 -4l22 -2l23 -4l20 -4l21 -6l18 -4l39 -15l16 -8l19 -8l30 -18
l31 -23l14 -12l25 -25l23 -28l20 -31l16 -33l9 -16l12 -37l6 -21l4 -18l4 -21l8 -88v-696z" />
    <glyph glyph-name="aacute" unicode="&#xe1;" horiz-adv-x="1253" 
d="M698 1268h-147l10 16l12 16l21 35l55 84l53 84l13 17l10 16l10 18l13 17l10 16l37 -16l151 -70l-14 -14l-43 -41l-148 -137l-14 -15zM535 125h40l62 6l37 8l78 31l18 10l16 10l17 13l43 41l10 14l21 35l8 16l12 37l4 21l2 18v117l-16 6l-37 8l-19 6l-40 8l-39 9l-84 8
l-23 2h-70l-45 -4l-20 -2l-41 -8l-51 -19l-17 -8l-14 -8l-12 -8l-19 -15l-14 -14l-23 -33l-8 -16l-8 -19l-8 -41v-24l2 -25l4 -22l6 -21l8 -18l11 -19l28 -32l47 -33l17 -8l18 -7l37 -12l21 -2l20 -4zM1085 0h-186v158l-51 -58l-14 -12l-17 -12l-16 -13l-17 -12l-36 -20
l-50 -23l-36 -12l-21 -6l-41 -8l-20 -2l-23 -3l-22 -2h-41l-21 2l-18 3l-39 4l-37 8l-39 12l-21 8l-18 8l-18 11l-19 10l-16 10l-17 12l-16 13l-29 28l-24 31l-23 37l-8 16l-12 33l-6 19l-4 20l-3 19l-2 20v47l2 21l3 20l4 21l18 55l8 16l11 19l12 18l26 33l15 16l33 27
l49 31l37 16l20 8l59 17l62 12l20 2l23 2h22l23 2h67l21 -2h23l92 -10l43 -8l20 -5l23 -4l61 -18v61l-2 25l-8 43l-6 20l-8 19l-9 18l-10 17l-12 16l-12 14l-15 15l-14 12l-14 10l-17 8l-16 9l-19 8l-18 6l-21 6l-20 4l-23 4l-45 4h-47l-20 -2h-21l-39 -4l-20 -4l-19 -2
l-16 -4l-18 -4l-39 -12l-39 -15l-19 -6l-18 -8l-21 -8l-18 -8l-6 18l-8 20l-13 39l-8 19l-6 18l-8 21l-6 18l37 17l18 6l18 8l39 12l19 8l18 6l19 5l20 6l53 12l19 4l102 10h70l24 -2h23l23 -4l22 -2l23 -4l20 -4l21 -6l18 -4l39 -15l16 -8l19 -8l30 -18l31 -23l14 -12
l25 -25l23 -28l20 -31l16 -33l9 -16l12 -37l6 -21l4 -18l4 -21l8 -88v-696z" />
    <glyph glyph-name="acircumflex" unicode="&#xe2;" horiz-adv-x="1253" 
d="M543 1556h172l39 -47l12 -16l131 -162l12 -14l13 -17l14 -16l12 -16h-160l-14 12l-14 14l-17 13l-14 12l-14 14l-15 13l-14 14l-14 12l-17 12l-14 15l-14 12l-15 -12l-14 -15l-31 -24l-43 -41l-59 -51h-156l27 32l12 17l27 31l24 32l15 17l39 47l24 33l15 16zM535 125h40
l62 6l37 8l78 31l18 10l16 10l17 13l43 41l10 14l21 35l8 16l12 37l4 21l2 18v117l-16 6l-37 8l-19 6l-40 8l-39 9l-84 8l-23 2h-70l-45 -4l-20 -2l-41 -8l-51 -19l-17 -8l-14 -8l-12 -8l-19 -15l-14 -14l-23 -33l-8 -16l-8 -19l-8 -41v-24l2 -25l4 -22l6 -21l8 -18l11 -19
l28 -32l47 -33l17 -8l18 -7l37 -12l21 -2l20 -4zM1085 0h-186v158l-51 -58l-14 -12l-17 -12l-16 -13l-17 -12l-36 -20l-50 -23l-36 -12l-21 -6l-41 -8l-20 -2l-23 -3l-22 -2h-41l-21 2l-18 3l-39 4l-37 8l-39 12l-21 8l-18 8l-18 11l-19 10l-16 10l-17 12l-16 13l-29 28
l-24 31l-23 37l-8 16l-12 33l-6 19l-4 20l-3 19l-2 20v47l2 21l3 20l4 21l18 55l8 16l11 19l12 18l26 33l15 16l33 27l49 31l37 16l20 8l59 17l62 12l20 2l23 2h22l23 2h67l21 -2h23l92 -10l43 -8l20 -5l23 -4l61 -18v61l-2 25l-8 43l-6 20l-8 19l-9 18l-10 17l-12 16
l-12 14l-15 15l-14 12l-14 10l-17 8l-16 9l-19 8l-18 6l-21 6l-20 4l-23 4l-45 4h-47l-20 -2h-21l-39 -4l-20 -4l-19 -2l-16 -4l-18 -4l-39 -12l-39 -15l-19 -6l-18 -8l-21 -8l-18 -8l-6 18l-8 20l-13 39l-8 19l-6 18l-8 21l-6 18l37 17l18 6l18 8l39 12l19 8l18 6l19 5
l20 6l53 12l19 4l102 10h70l24 -2h23l23 -4l22 -2l23 -4l20 -4l21 -6l18 -4l39 -15l16 -8l19 -8l30 -18l31 -23l14 -12l25 -25l23 -28l20 -31l16 -33l9 -16l12 -37l6 -21l4 -18l4 -21l8 -88v-696z" />
    <glyph glyph-name="atilde" unicode="&#xe3;" horiz-adv-x="1253" 
d="M788 1268h-20l-39 8l-41 12l-96 39l-17 6l-16 8l-22 7l-21 4l-18 2l-21 -2l-18 -4l-15 -9l-12 -10l-10 -10l-10 -14l-19 -35l-8 -23l-18 6l-19 4l-18 7l-21 6l-18 4l-19 6l7 25l8 22l6 21l24 55l17 31l10 14l10 12l15 15l14 12l18 10l19 8l20 6l23 2l22 3h21l20 -5l39 -8
l21 -8l59 -22l19 -9l18 -6l16 -8l39 -12l21 -4l18 -2l21 2l18 4l14 6l15 12l18 23l8 16l11 18l8 23l18 -6l19 -4l20 -6l19 -7l18 -4l18 -6l-6 -24l-8 -23l-6 -20l-8 -21l-8 -18l-17 -33l-8 -14l-10 -15l-8 -10l-31 -29l-19 -10l-18 -8l-20 -6zM535 125h40l62 6l37 8l78 31
l18 10l16 10l17 13l43 41l10 14l21 35l8 16l12 37l4 21l2 18v117l-16 6l-37 8l-19 6l-40 8l-39 9l-84 8l-23 2h-70l-45 -4l-20 -2l-41 -8l-51 -19l-17 -8l-14 -8l-12 -8l-19 -15l-14 -14l-23 -33l-8 -16l-8 -19l-8 -41v-24l2 -25l4 -22l6 -21l8 -18l11 -19l28 -32l47 -33
l17 -8l18 -7l37 -12l21 -2l20 -4zM1085 0h-186v158l-51 -58l-14 -12l-17 -12l-16 -13l-17 -12l-36 -20l-50 -23l-36 -12l-21 -6l-41 -8l-20 -2l-23 -3l-22 -2h-41l-21 2l-18 3l-39 4l-37 8l-39 12l-21 8l-18 8l-18 11l-19 10l-16 10l-17 12l-16 13l-29 28l-24 31l-23 37
l-8 16l-12 33l-6 19l-4 20l-3 19l-2 20v47l2 21l3 20l4 21l18 55l8 16l11 19l12 18l26 33l15 16l33 27l49 31l37 16l20 8l59 17l62 12l20 2l23 2h22l23 2h67l21 -2h23l92 -10l43 -8l20 -5l23 -4l61 -18v61l-2 25l-8 43l-6 20l-8 19l-9 18l-10 17l-12 16l-12 14l-15 15
l-14 12l-14 10l-17 8l-16 9l-19 8l-18 6l-21 6l-20 4l-23 4l-45 4h-47l-20 -2h-21l-39 -4l-20 -4l-19 -2l-16 -4l-18 -4l-39 -12l-39 -15l-19 -6l-18 -8l-21 -8l-18 -8l-6 18l-8 20l-13 39l-8 19l-6 18l-8 21l-6 18l37 17l18 6l18 8l39 12l19 8l18 6l19 5l20 6l53 12l19 4
l102 10h70l24 -2h23l23 -4l22 -2l23 -4l20 -4l21 -6l18 -4l39 -15l16 -8l19 -8l30 -18l31 -23l14 -12l25 -25l23 -28l20 -31l16 -33l9 -16l12 -37l6 -21l4 -18l4 -21l8 -88v-696z" />
    <glyph glyph-name="adieresis" unicode="&#xe4;" horiz-adv-x="1253" 
d="M330 1485h213v-217h-213v217zM715 1485h213v-217h-213v217zM535 125h40l62 6l37 8l78 31l18 10l16 10l17 13l43 41l10 14l21 35l8 16l12 37l4 21l2 18v117l-16 6l-37 8l-19 6l-40 8l-39 9l-84 8l-23 2h-70l-45 -4l-20 -2l-41 -8l-51 -19l-17 -8l-14 -8l-12 -8l-19 -15
l-14 -14l-23 -33l-8 -16l-8 -19l-8 -41v-24l2 -25l4 -22l6 -21l8 -18l11 -19l28 -32l47 -33l17 -8l18 -7l37 -12l21 -2l20 -4zM1085 0h-186v158l-51 -58l-14 -12l-17 -12l-16 -13l-17 -12l-36 -20l-50 -23l-36 -12l-21 -6l-41 -8l-20 -2l-23 -3l-22 -2h-41l-21 2l-18 3
l-39 4l-37 8l-39 12l-21 8l-18 8l-18 11l-19 10l-16 10l-17 12l-16 13l-29 28l-24 31l-23 37l-8 16l-12 33l-6 19l-4 20l-3 19l-2 20v47l2 21l3 20l4 21l18 55l8 16l11 19l12 18l26 33l15 16l33 27l49 31l37 16l20 8l59 17l62 12l20 2l23 2h22l23 2h67l21 -2h23l92 -10
l43 -8l20 -5l23 -4l61 -18v61l-2 25l-8 43l-6 20l-8 19l-9 18l-10 17l-12 16l-12 14l-15 15l-14 12l-14 10l-17 8l-16 9l-19 8l-18 6l-21 6l-20 4l-23 4l-45 4h-47l-20 -2h-21l-39 -4l-20 -4l-19 -2l-16 -4l-18 -4l-39 -12l-39 -15l-19 -6l-18 -8l-21 -8l-18 -8l-6 18l-8 20
l-13 39l-8 19l-6 18l-8 21l-6 18l37 17l18 6l18 8l39 12l19 8l18 6l19 5l20 6l53 12l19 4l102 10h70l24 -2h23l23 -4l22 -2l23 -4l20 -4l21 -6l18 -4l39 -15l16 -8l19 -8l30 -18l31 -23l14 -12l25 -25l23 -28l20 -31l16 -33l9 -16l12 -37l6 -21l4 -18l4 -21l8 -88v-696z" />
    <glyph glyph-name="aring" unicode="&#xe5;" horiz-adv-x="1253" 
d="M629 1346l37 4l18 6l16 8l17 12l14 13l25 30l8 17l6 18l4 37l-4 37l-6 18l-8 17l-25 30l-14 13l-17 12l-16 8l-18 6l-37 4l-37 -4l-19 -6l-16 -8l-16 -12l-15 -13l-12 -14l-12 -16l-8 -17l-7 -18l-4 -37l4 -37l7 -18l8 -17l12 -16l12 -14l15 -13l16 -12l16 -8l19 -6z
M647 1264h-37l-20 2l-19 4l-16 4l-16 8l-21 8l-39 25l-16 14l-17 17l-12 16l-12 20l-19 41l-6 23l-4 45l4 45l6 23l9 20l10 20l12 19l12 16l17 17l16 14l19 14l20 11l21 10l32 12l19 4l20 2h37l21 -2l18 -4l16 -6l19 -6l39 -21l35 -28l16 -17l25 -35l10 -20l8 -20l6 -23
l4 -45l-4 -45l-6 -23l-8 -20l-10 -21l-13 -20l-12 -16l-16 -17l-17 -14l-39 -25l-37 -16l-16 -4l-18 -4zM535 125h40l62 6l37 8l78 31l18 10l16 10l17 13l43 41l10 14l21 35l8 16l12 37l4 21l2 18v117l-16 6l-37 8l-19 6l-40 8l-39 9l-84 8l-23 2h-70l-45 -4l-20 -2l-41 -8
l-51 -19l-17 -8l-14 -8l-12 -8l-19 -15l-14 -14l-23 -33l-8 -16l-8 -19l-8 -41v-24l2 -25l4 -22l6 -21l8 -18l11 -19l28 -32l47 -33l17 -8l18 -7l37 -12l21 -2l20 -4zM1085 0h-186v158l-51 -58l-14 -12l-17 -12l-16 -13l-17 -12l-36 -20l-50 -23l-36 -12l-21 -6l-41 -8
l-20 -2l-23 -3l-22 -2h-41l-21 2l-18 3l-39 4l-37 8l-39 12l-21 8l-18 8l-18 11l-19 10l-16 10l-17 12l-16 13l-29 28l-24 31l-23 37l-8 16l-12 33l-6 19l-4 20l-3 19l-2 20v47l2 21l3 20l4 21l18 55l8 16l11 19l12 18l26 33l15 16l33 27l49 31l37 16l20 8l59 17l62 12l20 2
l23 2h22l23 2h67l21 -2h23l92 -10l43 -8l20 -5l23 -4l61 -18v61l-2 25l-8 43l-6 20l-8 19l-9 18l-10 17l-12 16l-12 14l-15 15l-14 12l-14 10l-17 8l-16 9l-19 8l-18 6l-21 6l-20 4l-23 4l-45 4h-47l-20 -2h-21l-39 -4l-20 -4l-19 -2l-16 -4l-18 -4l-39 -12l-39 -15l-19 -6
l-18 -8l-21 -8l-18 -8l-6 18l-8 20l-13 39l-8 19l-6 18l-8 21l-6 18l37 17l18 6l18 8l39 12l19 8l18 6l19 5l20 6l53 12l19 4l102 10h70l24 -2h23l23 -4l22 -2l23 -4l20 -4l21 -6l18 -4l39 -15l16 -8l19 -8l30 -18l31 -23l14 -12l25 -25l23 -28l20 -31l16 -33l9 -16l12 -37
l6 -21l4 -18l4 -21l8 -88v-696z" />
    <glyph glyph-name="ae" unicode="&#xe6;" horiz-adv-x="2045" 
d="M295 354v-24l2 -25l4 -20l6 -23l8 -18l11 -19l14 -16l14 -14l17 -15l16 -12l21 -10l20 -11l23 -6l18 -6l18 -4l41 -4h43l23 2l20 2l23 4l20 4l21 6l20 7l19 6l20 8l35 18l16 11l17 10l16 12l17 10l45 37l28 29l15 14l-6 19l-7 18l-6 18l-8 39l-6 21l-2 20l-4 21l-4 41
l-35 8l-19 6l-36 8l-21 4l-20 5l-19 4l-96 10h-68l-49 -4l-43 -8l-20 -5l-19 -8l-18 -6l-17 -8l-30 -18l-17 -15l-14 -14l-23 -33l-8 -16l-8 -19zM1432 971h-43l-21 -2l-22 -4l-21 -7l-20 -6l-19 -8l-39 -20l-35 -25l-30 -27l-29 -32l-12 -19l-13 -18l-10 -21l-16 -41
l-6 -18l-6 -21l-7 -18l-4 -20l-4 -23l-2 -20h668l-4 41l-8 38l-7 19l-4 18l-6 19l-10 20l-8 21l-23 37l-12 16l-12 18l-29 29l-16 14l-19 11l-18 12l-19 10l-16 6l-19 6l-18 7l-20 4zM543 -25h-41l-21 2l-20 3l-39 4l-39 8l-18 6l-21 6l-41 16l-55 31l-17 12l-16 13l-29 28
l-24 31l-23 37l-8 16l-12 33l-6 19l-4 20l-3 19l-2 20v47l2 21l3 20l4 21l4 18l6 18l8 19l8 16l8 19l25 34l14 17l15 16l32 27l50 31l55 24l61 17l60 12l20 2l23 2h20l23 2h69l23 -2h22l41 -4l19 -4l20 -2l41 -8l21 -5l20 -4l62 -18v61l-2 25l-4 22l-5 21l-12 39l-8 18
l-10 17l-11 16l-26 29l-14 12l-15 10l-31 17l-18 8l-16 6l-21 6l-41 8l-45 4h-49l-23 -2h-22l-21 -4l-22 -2l-21 -4l-36 -8l-21 -6l-37 -13l-18 -8l-19 -6l-39 -16l-18 -8l-6 18l-8 20l-13 39l-8 19l-6 18l-8 21l-6 18l55 25l18 6l19 8l55 18l19 7l18 6l33 8l18 2l19 4
l100 10h68l22 -2h23l22 -4l21 -2l59 -12l19 -6l34 -13l33 -16l35 -22l14 -13l17 -12l14 -14l25 -31l22 -35l10 -18l9 -21l10 17l24 32l27 31l29 29l49 37l35 22l16 8l18 11l21 8l18 6l19 8l20 4l21 6l20 4l43 4l21 3h45l22 -3l43 -4l21 -4l18 -4l21 -4l37 -12l55 -27l37 -20
l32 -25l17 -12l14 -14l17 -15l51 -63l22 -35l11 -19l28 -59l6 -20l9 -21l12 -41l12 -61l2 -21l4 -20l2 -21v-22l2 -21v-51l-2 -31h-860l2 -20l4 -21l8 -36l19 -54l18 -35l21 -32l24 -31l13 -14l30 -27l19 -12l18 -13l39 -20l21 -8l18 -6l19 -4l18 -5l18 -4l21 -2l18 -2h45
l45 4l21 4l80 23l18 10l17 8l16 11l18 10l33 24l47 41l15 15l28 -27l31 -24l14 -15l15 -12l28 -27l-57 -59l-16 -12l-64 -50l-35 -20l-18 -8l-16 -10l-19 -7l-18 -8l-37 -12l-62 -12l-20 -2l-23 -5h-22l-23 -2h-45l-20 2h-21l-20 5l-19 2l-39 8l-18 4l-55 18l-56 27l-16 10
l-18 10l-35 23l-15 14l-16 13l-29 28l-28 31l-13 16l-57 -51l-47 -37l-33 -20l-18 -10l-17 -11l-18 -10l-16 -10l-19 -8l-16 -9l-19 -6l-18 -8l-19 -6l-18 -4l-18 -6l-21 -2l-18 -4l-21 -4l-20 -3h-21z" />
    <glyph glyph-name="ccedilla" unicode="&#xe7;" horiz-adv-x="1232" 
d="M119 528v45l8 84l4 21l6 18l4 21l6 20l15 39l16 37l19 35l32 51l25 31l14 16l15 15l12 14l61 51l17 12l35 21l18 10l18 8l19 10l39 15l18 6l21 6l63 12l41 4l23 3h45l20 -3h21l20 -2l21 -4l18 -4l21 -2l61 -18l55 -25l19 -8l49 -31l16 -12l15 -10l71 -64l13 -14l-15 -14
l-12 -15l-29 -28l-12 -17l-29 -28l-12 -15l-14 -14l-15 14l-14 15l-16 12l-15 14l-30 23l-17 12l-16 10l-17 13l-53 24l-18 6l-21 6l-22 4l-21 3l-22 2h-47l-23 -2l-20 -5l-23 -4l-41 -12l-39 -18l-37 -23l-16 -12l-45 -43l-14 -17l-15 -16l-12 -18l-10 -19l-11 -18l-10 -21
l-8 -20l-12 -37l-6 -21l-2 -18l-5 -21l-4 -40v-46l4 -43l5 -18l2 -20l18 -58l8 -20l10 -21l35 -55l13 -16l30 -31l17 -14l16 -15l16 -12l37 -23l21 -8l18 -8l35 -12l39 -8l20 -3l21 -2h43l22 2l21 3l20 4l21 6l18 6l21 6l35 18l16 9l18 12l17 10l16 12l15 13l16 12l14 14
l17 15l14 14l14 -14l60 -58l45 -43l-43 -45l-33 -28l-14 -13l-35 -24l-17 -13l-51 -30l-18 -8l-17 -9l-18 -6l-21 -6l-18 -6l-20 -6l-43 -8l-45 -4l-23 -3l-57 -129l-9 -18l-10 -18l-24 -56l-41 -92l-21 8l-39 19l-59 24l-21 11l-18 8l-20 8l24 35l10 18l13 17l12 18l12 16
l23 37l24 35l13 16l10 19l12 16l12 19l-39 8l-57 18l-35 17l-18 8l-70 43l-16 14l-49 41l-29 33l-12 16l-15 17l-12 16l-33 55l-10 19l-31 80l-6 18l-12 58l-2 20l-4 18v21z" />
    <glyph glyph-name="egrave" unicode="&#xe8;" horiz-adv-x="1284" 
d="M729 1268h-147l-29 26l-145 138l-17 14l-29 29l-14 12l-14 14l37 17l114 53l37 16l10 -16l13 -17l10 -18l10 -16l13 -17l20 -33l88 -135l21 -35l12 -16zM672 971h-43l-23 -2l-22 -4l-21 -7l-20 -6l-19 -8l-39 -20l-16 -11l-16 -14l-17 -12l-43 -47l-24 -37l-21 -41
l-8 -21l-6 -18l-6 -21l-6 -18l-5 -20l-4 -23l-2 -20h670l-4 41l-8 38l-6 19l-5 18l-6 19l-10 20l-8 21l-10 18l-37 53l-17 15l-14 14l-16 14l-35 23l-19 10l-53 19l-20 4zM700 -25h-45l-20 2l-21 3l-41 4l-18 4l-20 4l-56 18l-39 17l-20 8l-37 20l-53 37l-17 14l-30 29
l-15 12l-24 31l-13 15l-10 16l-12 16l-21 35l-32 74l-13 37l-4 18l-6 19l-4 20l-2 18l-4 21l-2 20v21l-2 22v45l2 23v20l4 21l2 20l12 62l6 20l15 39l6 19l16 37l11 16l8 18l10 17l12 16l10 17l25 28l12 17l31 28l14 15l52 39l34 22l19 8l37 19l55 18l59 12l41 4l21 3h43
l22 -3l43 -4l60 -12l39 -12l37 -17l18 -10l20 -10l68 -47l14 -14l17 -15l39 -47l12 -16l22 -35l11 -19l28 -59l15 -41l12 -41l12 -61l2 -21l4 -20l3 -21v-22l2 -21v-51l-5 -31h-858l2 -20l4 -21l5 -18l4 -18l12 -37l6 -17l39 -67l37 -45l14 -13l17 -14l36 -25l39 -20l37 -14
l19 -4l18 -5l21 -4l36 -4h43l62 6l18 4l19 5l18 6l17 4l51 24l16 11l19 10l32 24l47 41l15 15l28 -27l31 -24l15 -15l14 -12l14 -14l15 -13l-43 -45l-15 -14l-16 -12l-64 -50l-18 -10l-16 -10l-19 -8l-16 -10l-19 -7l-18 -8l-37 -12l-61 -12l-23 -2l-23 -5h-22z" />
    <glyph glyph-name="eacute" unicode="&#xe9;" horiz-adv-x="1284" 
d="M672 971h-43l-23 -2l-22 -4l-21 -7l-20 -6l-19 -8l-39 -20l-16 -11l-16 -14l-17 -12l-43 -47l-24 -37l-21 -41l-8 -21l-6 -18l-6 -21l-6 -18l-5 -20l-4 -23l-2 -20h670l-4 41l-8 38l-6 19l-5 18l-6 19l-10 20l-8 21l-10 18l-37 53l-17 15l-14 14l-16 14l-35 23l-19 10
l-53 19l-20 4zM700 -25h-45l-20 2l-21 3l-41 4l-18 4l-20 4l-56 18l-39 17l-20 8l-37 20l-53 37l-17 14l-30 29l-15 12l-24 31l-13 15l-10 16l-12 16l-21 35l-32 74l-13 37l-4 18l-6 19l-4 20l-2 18l-4 21l-2 20v21l-2 22v45l2 23v20l4 21l2 20l12 62l6 20l15 39l6 19l16 37
l11 16l8 18l10 17l12 16l10 17l25 28l12 17l31 28l14 15l52 39l34 22l19 8l37 19l55 18l59 12l41 4l21 3h43l22 -3l43 -4l60 -12l39 -12l37 -17l18 -10l20 -10l68 -47l14 -14l17 -15l39 -47l12 -16l22 -35l11 -19l28 -59l15 -41l12 -41l12 -61l2 -21l4 -20l3 -21v-22l2 -21
v-51l-5 -31h-858l2 -20l4 -21l5 -18l4 -18l12 -37l6 -17l39 -67l37 -45l14 -13l17 -14l36 -25l39 -20l37 -14l19 -4l18 -5l21 -4l36 -4h43l62 6l18 4l19 5l18 6l17 4l51 24l16 11l19 10l32 24l47 41l15 15l28 -27l31 -24l15 -15l14 -12l14 -14l15 -13l-43 -45l-15 -14
l-16 -12l-64 -50l-18 -10l-16 -10l-19 -8l-16 -10l-19 -7l-18 -8l-37 -12l-61 -12l-23 -2l-23 -5h-22zM721 1268h-148l23 32l10 19l10 16l13 17l63 100l13 18l20 33l23 33l10 18l12 17l10 16l37 -16l133 -62l19 -8l-29 -26l-145 -138l-17 -14l-28 -29l-15 -12z" />
    <glyph glyph-name="ecircumflex" unicode="&#xea;" horiz-adv-x="1284" 
d="M672 971h-43l-23 -2l-22 -4l-21 -7l-20 -6l-19 -8l-39 -20l-16 -11l-16 -14l-17 -12l-43 -47l-24 -37l-21 -41l-8 -21l-6 -18l-6 -21l-6 -18l-5 -20l-4 -23l-2 -20h670l-4 41l-8 38l-6 19l-5 18l-6 19l-10 20l-8 21l-10 18l-37 53l-17 15l-14 14l-16 14l-35 23l-19 10
l-53 19l-20 4zM700 -25h-45l-20 2l-21 3l-41 4l-18 4l-20 4l-56 18l-39 17l-20 8l-37 20l-53 37l-17 14l-30 29l-15 12l-24 31l-13 15l-10 16l-12 16l-21 35l-32 74l-13 37l-4 18l-6 19l-4 20l-2 18l-4 21l-2 20v21l-2 22v45l2 23v20l4 21l2 20l12 62l6 20l15 39l6 19l16 37
l11 16l8 18l10 17l12 16l10 17l25 28l12 17l31 28l14 15l52 39l34 22l19 8l37 19l55 18l59 12l41 4l21 3h43l22 -3l43 -4l60 -12l39 -12l37 -17l18 -10l20 -10l68 -47l14 -14l17 -15l39 -47l12 -16l22 -35l11 -19l28 -59l15 -41l12 -41l12 -61l2 -21l4 -20l3 -21v-22l2 -21
v-51l-5 -31h-858l2 -20l4 -21l5 -18l4 -18l12 -37l6 -17l39 -67l37 -45l14 -13l17 -14l36 -25l39 -20l37 -14l19 -4l18 -5l21 -4l36 -4h43l62 6l18 4l19 5l18 6l17 4l51 24l16 11l19 10l32 24l47 41l15 15l28 -27l31 -24l15 -15l14 -12l14 -14l15 -13l-43 -45l-15 -14
l-16 -12l-64 -50l-18 -10l-16 -10l-19 -8l-16 -10l-19 -7l-18 -8l-37 -12l-61 -12l-23 -2l-23 -5h-22zM565 1556h172l39 -47l12 -16l15 -16l24 -33l27 -31l12 -16l15 -17l24 -32l27 -31l12 -17l27 -32h-160l-59 51l-43 41l-31 24l-14 15l-15 12l-14 -12l-14 -15l-17 -12
l-43 -39l-14 -14l-31 -25l-14 -14l-15 -12h-155l12 16l14 16l117 144l25 33l14 16l39 47z" />
    <glyph glyph-name="edieresis" unicode="&#xeb;" horiz-adv-x="1284" 
d="M672 971h-43l-23 -2l-22 -4l-21 -7l-20 -6l-19 -8l-39 -20l-16 -11l-16 -14l-17 -12l-43 -47l-24 -37l-21 -41l-8 -21l-6 -18l-6 -21l-6 -18l-5 -20l-4 -23l-2 -20h670l-4 41l-8 38l-6 19l-5 18l-6 19l-10 20l-8 21l-10 18l-37 53l-17 15l-14 14l-16 14l-35 23l-19 10
l-53 19l-20 4zM700 -25h-45l-20 2l-21 3l-41 4l-18 4l-20 4l-56 18l-39 17l-20 8l-37 20l-53 37l-17 14l-30 29l-15 12l-24 31l-13 15l-10 16l-12 16l-21 35l-32 74l-13 37l-4 18l-6 19l-4 20l-2 18l-4 21l-2 20v21l-2 22v45l2 23v20l4 21l2 20l12 62l6 20l15 39l6 19l16 37
l11 16l8 18l10 17l12 16l10 17l25 28l12 17l31 28l14 15l52 39l34 22l19 8l37 19l55 18l59 12l41 4l21 3h43l22 -3l43 -4l60 -12l39 -12l37 -17l18 -10l20 -10l68 -47l14 -14l17 -15l39 -47l12 -16l22 -35l11 -19l28 -59l15 -41l12 -41l12 -61l2 -21l4 -20l3 -21v-22l2 -21
v-51l-5 -31h-858l2 -20l4 -21l5 -18l4 -18l12 -37l6 -17l39 -67l37 -45l14 -13l17 -14l36 -25l39 -20l37 -14l19 -4l18 -5l21 -4l36 -4h43l62 6l18 4l19 5l18 6l17 4l51 24l16 11l19 10l32 24l47 41l15 15l28 -27l31 -24l15 -15l14 -12l14 -14l15 -13l-43 -45l-15 -14
l-16 -12l-64 -50l-18 -10l-16 -10l-19 -8l-16 -10l-19 -7l-18 -8l-37 -12l-61 -12l-23 -2l-23 -5h-22zM352 1485h213v-217h-213v217zM737 1485h213v-217h-213v217z" />
    <glyph glyph-name="igrave" unicode="&#xec;" horiz-adv-x="591" 
d="M373 1268h-148l-14 14l-43 41l-31 27l-28 28l-89 82l-14 15l-29 26l113 51l39 19l37 16l10 -16l33 -51l55 -84l53 -84l13 -17l10 -16l10 -19zM201 1108h190v-1108h-190v1108z" />
    <glyph glyph-name="iacute" unicode="&#xed;" horiz-adv-x="591" 
d="M201 1108h190v-1108h-190v1108zM367 1268h-148l10 16l13 16l10 19l98 151l10 17l23 33l10 16l10 18l13 17l10 16l37 -16l151 -70l-14 -14l-43 -41l-31 -27l-28 -28l-43 -41l-31 -27l-29 -29l-14 -12z" />
    <glyph glyph-name="icircumflex" unicode="&#xee;" horiz-adv-x="591" 
d="M201 1108h190v-1108h-190v1108zM209 1556h172l12 -16l15 -16l24 -31l53 -66l90 -110l13 -17l14 -16l12 -16h-159l-15 12l-14 14l-31 25l-43 41l-14 12l-16 12l-15 15l-14 12l-14 -12l-15 -15l-31 -24l-43 -41l-59 -51h-156l27 32l12 17l66 80l39 47l24 33l15 16l24 31
l15 16z" />
    <glyph glyph-name="idieresis" unicode="&#xef;" horiz-adv-x="591" 
d="M201 1108h190v-1108h-190v1108zM-4 1485h213v-217h-213v217zM381 1485h213v-217h-213v217z" />
    <glyph glyph-name="eth" unicode="&#xf0;" horiz-adv-x="1398" 
d="M680 145h41l22 2l19 3l59 12l17 6l39 18l53 33l16 12l17 15l14 16l14 14l13 17l24 37l10 18l9 21l10 20l6 19l4 18l6 20l4 21l2 18l4 43v45l-2 21l-2 18l-2 21l-4 18l-18 58l-8 18l-21 39l-37 51l-14 17l-49 38l-37 25l-21 10l-20 8l-19 9l-18 6l-61 12l-41 4h-43l-41 -4
l-56 -12l-18 -6l-16 -9l-21 -8l-18 -10l-52 -37l-14 -12l-14 -14l-15 -17l-24 -33l-21 -36l-8 -21l-8 -18l-12 -39l-4 -19l-5 -18l-2 -21l-2 -18l-2 -21v-47l4 -39l5 -20l8 -37l6 -20l8 -17l8 -20l10 -21l35 -55l27 -33l14 -14l17 -14l16 -15l55 -35l21 -8l16 -8l37 -12
l21 -4l18 -4l20 -3zM1278 649v-67l-2 -23v-20l-2 -23l-2 -20l-12 -64l-17 -59l-6 -19l-16 -41l-19 -39l-20 -36l-13 -17l-10 -18l-12 -17l-27 -30l-14 -17l-31 -28l-67 -50l-35 -20l-19 -10l-20 -8l-19 -9l-36 -12l-21 -6l-59 -12l-21 -2l-20 -5h-23l-20 -2h-45l-23 2l-20 3
l-21 2l-63 12l-21 6l-18 6l-21 6l-37 17l-18 10l-18 8l-35 21l-17 12l-14 12l-47 39l-41 43l-12 16l-13 15l-43 69l-32 76l-9 19l-6 20l-4 21l-6 20l-4 21l-2 20l-2 23l-2 20l-2 23v47l8 84l8 39l6 20l13 37l8 18l8 21l8 18l43 72l39 47l29 29l14 12l14 14l17 13l67 41l19 8
l18 10l19 6l20 8l19 4l18 7l41 8l59 6h45l46 -4l20 -2l23 -4l20 -4l18 -7l21 -6l35 -14l18 -10l19 -8l36 -21l17 -12l16 -10l33 -25l14 -12l-8 16l-10 16l-8 19l-23 33l-10 18l-53 70l-49 57l-15 14l-12 15l-57 57l-15 14l-14 15l-19 -8l-20 -7l-18 -8l-19 -6l-20 -8l-19 -6
l-57 -23l-19 -6l-18 -8l-20 -6l-19 -8l-24 57l-11 18l-8 21l-8 18l59 23l19 6l41 16l18 6l21 9l18 6l20 8l-16 12l-14 15l-33 24l-47 37l-78 61h268l50 -38l47 -43l18 8l21 6l18 8l20 6l39 17l19 6l18 8l21 6l18 8l21 6l18 9l16 -37l33 -76l-121 -47l-18 -6l-41 -17l29 -28
l14 -17l29 -28l14 -17l14 -14l13 -17l14 -14l12 -16l15 -17l59 -82l10 -16l12 -16l21 -35l8 -17l10 -18l9 -18l10 -17l16 -37l6 -18l9 -16l6 -19l8 -18l6 -21l4 -18l6 -19l4 -18l7 -21l4 -18l2 -20l4 -19l4 -41l2 -18z" />
    <glyph glyph-name="ntilde" unicode="&#xf1;" horiz-adv-x="1331" 
d="M831 1268h-20l-39 8l-41 12l-96 39l-17 6l-16 8l-22 7l-21 4l-18 2l-21 -2l-18 -4l-15 -9l-12 -10l-10 -10l-10 -14l-19 -35l-8 -23l-18 6l-19 4l-18 7l-21 6l-18 4l-19 6l7 25l8 22l6 21l24 55l17 31l10 14l10 12l15 15l14 12l18 10l19 8l20 6l23 2l22 3h21l20 -5l39 -8
l21 -8l59 -22l19 -9l18 -6l16 -8l39 -12l21 -4l18 -2l21 2l18 4l14 6l15 12l18 23l8 16l11 18l8 23l18 -6l19 -4l20 -6l19 -7l18 -4l18 -6l-6 -24l-8 -23l-6 -20l-8 -21l-8 -18l-17 -33l-8 -14l-10 -15l-8 -10l-31 -29l-19 -10l-18 -8l-20 -6zM184 1108h193v-186l10 16
l25 33l28 33l29 28l16 12l17 15l18 12l19 10l18 11l21 10l20 8l23 6l59 12l20 2l23 3h45l20 -3l41 -4l58 -12l16 -6l19 -6l55 -29l16 -10l17 -12l28 -27l15 -12l12 -17l25 -30l10 -19l10 -16l25 -58l4 -18l6 -18l8 -37l2 -21l4 -20v-21l2 -20v-717h-192v666l-4 45l-4 22
l-5 21l-12 37l-8 18l-18 33l-13 16l-10 14l-14 15l-17 14l-33 21l-18 10l-18 8l-21 6l-20 4l-23 4l-22 2h-47l-21 -2l-41 -8l-37 -12l-37 -16l-32 -23l-15 -12l-26 -29l-13 -16l-12 -17l-10 -18l-8 -19l-9 -18l-8 -18l-12 -56l-4 -41v-651h-193v1108z" />
    <glyph glyph-name="ograve" unicode="&#xf2;" horiz-adv-x="1400" 
d="M776 1268h-147l-29 26l-145 138l-17 14l-28 29l-15 12l-14 14l37 17l76 34l38 19l37 16l23 -33l10 -18l10 -16l13 -17l20 -33l88 -135l21 -35l12 -16zM682 145h41l22 2l19 3l41 8l37 12l37 16l55 35l47 43l12 17l15 16l10 18l12 19l10 18l9 21l10 20l6 17l4 20l6 19l4 18
l6 61v45l-4 41l-4 21l-4 18l-4 21l-6 18l-6 21l-17 35l-41 65l-24 29l-31 30l-16 13l-37 24l-19 11l-20 10l-18 8l-37 12l-39 8l-19 3l-20 2h-41l-23 -2l-59 -11l-37 -12l-37 -18l-55 -35l-16 -13l-31 -30l-27 -33l-35 -55l-16 -41l-8 -19l-4 -18l-11 -39l-6 -59v-46l4 -40
l9 -39l4 -21l6 -18l8 -19l6 -18l8 -17l41 -65l41 -43l17 -16l16 -13l55 -35l37 -18l37 -12l21 -4l18 -4l21 -3zM719 -25h-41l-21 2h-20l-21 3l-20 4l-18 4l-21 2l-18 6l-19 4l-37 12l-16 8l-21 9l-18 10l-18 8l-35 21l-33 24l-14 12l-17 13l-43 43l-24 28l-25 33l-20 35
l-11 16l-10 19l-24 55l-13 39l-4 21l-6 20l-4 18l-8 84v45l8 84l4 21l6 18l4 21l6 20l41 94l11 17l10 18l61 80l43 43l17 12l14 13l51 35l37 20l19 8l18 10l18 7l56 18l18 4l21 4l18 4l21 4l20 2h21l20 3h41l20 -3h21l20 -2l58 -12l18 -4l55 -18l19 -7l18 -10l19 -8l37 -20
l32 -23l17 -10l16 -12l14 -15l17 -12l14 -14l12 -15l15 -14l24 -31l23 -33l10 -18l10 -16l17 -37l10 -19l21 -57l4 -21l6 -20l4 -20l8 -84v-46l-8 -83l-4 -21l-6 -18l-4 -21l-7 -20l-8 -19l-6 -18l-27 -58l-10 -16l-10 -18l-12 -17l-13 -16l-10 -17l-55 -57l-15 -14l-81 -60
l-37 -20l-37 -16l-19 -9l-55 -18l-78 -16l-20 -3h-21z" />
    <glyph glyph-name="oacute" unicode="&#xf3;" horiz-adv-x="1400" 
d="M682 145h41l22 2l19 3l41 8l37 12l37 16l55 35l47 43l12 17l15 16l10 18l12 19l10 18l9 21l10 20l6 17l4 20l6 19l4 18l6 61v45l-4 41l-4 21l-4 18l-4 21l-6 18l-6 21l-17 35l-41 65l-24 29l-31 30l-16 13l-37 24l-19 11l-20 10l-18 8l-37 12l-39 8l-19 3l-20 2h-41
l-23 -2l-59 -11l-37 -12l-37 -18l-55 -35l-16 -13l-31 -30l-27 -33l-35 -55l-16 -41l-8 -19l-4 -18l-11 -39l-6 -59v-46l4 -40l9 -39l4 -21l6 -18l8 -19l6 -18l8 -17l41 -65l41 -43l17 -16l16 -13l55 -35l37 -18l37 -12l21 -4l18 -4l21 -3zM719 -25h-41l-21 2h-20l-21 3
l-20 4l-18 4l-21 2l-18 6l-19 4l-37 12l-16 8l-21 9l-18 10l-18 8l-35 21l-33 24l-14 12l-17 13l-43 43l-24 28l-25 33l-20 35l-11 16l-10 19l-24 55l-13 39l-4 21l-6 20l-4 18l-8 84v45l8 84l4 21l6 18l4 21l6 20l41 94l11 17l10 18l61 80l43 43l17 12l14 13l51 35l37 20
l19 8l18 10l18 7l56 18l18 4l21 4l18 4l21 4l20 2h21l20 3h41l20 -3h21l20 -2l58 -12l18 -4l55 -18l19 -7l18 -10l19 -8l37 -20l32 -23l17 -10l16 -12l14 -15l17 -12l14 -14l12 -15l15 -14l24 -31l23 -33l10 -18l10 -16l17 -37l10 -19l21 -57l4 -21l6 -20l4 -20l8 -84v-46
l-8 -83l-4 -21l-6 -18l-4 -21l-7 -20l-8 -19l-6 -18l-27 -58l-10 -16l-10 -18l-12 -17l-13 -16l-10 -17l-55 -57l-15 -14l-81 -60l-37 -20l-37 -16l-19 -9l-55 -18l-78 -16l-20 -3h-21zM770 1268h-147l10 16l12 16l10 19l23 33l63 100l13 18l20 33l23 33l10 18l12 17l10 16
l37 -16l39 -19l56 -24l38 -19l19 -8l-14 -14l-15 -12l-28 -29l-117 -109l-17 -14l-28 -29l-15 -12z" />
    <glyph glyph-name="ocircumflex" unicode="&#xf4;" horiz-adv-x="1400" 
d="M682 145h41l22 2l19 3l41 8l37 12l37 16l55 35l47 43l12 17l15 16l10 18l12 19l10 18l9 21l10 20l6 17l4 20l6 19l4 18l6 61v45l-4 41l-4 21l-4 18l-4 21l-6 18l-6 21l-17 35l-41 65l-24 29l-31 30l-16 13l-37 24l-19 11l-20 10l-18 8l-37 12l-39 8l-19 3l-20 2h-41
l-23 -2l-59 -11l-37 -12l-37 -18l-55 -35l-16 -13l-31 -30l-27 -33l-35 -55l-16 -41l-8 -19l-4 -18l-11 -39l-6 -59v-46l4 -40l9 -39l4 -21l6 -18l8 -19l6 -18l8 -17l41 -65l41 -43l17 -16l16 -13l55 -35l37 -18l37 -12l21 -4l18 -4l21 -3zM719 -25h-41l-21 2h-20l-21 3
l-20 4l-18 4l-21 2l-18 6l-19 4l-37 12l-16 8l-21 9l-18 10l-18 8l-35 21l-33 24l-14 12l-17 13l-43 43l-24 28l-25 33l-20 35l-11 16l-10 19l-24 55l-13 39l-4 21l-6 20l-4 18l-8 84v45l8 84l4 21l6 18l4 21l6 20l41 94l11 17l10 18l61 80l43 43l17 12l14 13l51 35l37 20
l19 8l18 10l18 7l56 18l18 4l21 4l18 4l21 4l20 2h21l20 3h41l20 -3h21l20 -2l58 -12l18 -4l55 -18l19 -7l18 -10l19 -8l37 -20l32 -23l17 -10l16 -12l14 -15l17 -12l14 -14l12 -15l15 -14l24 -31l23 -33l10 -18l10 -16l17 -37l10 -19l21 -57l4 -21l6 -20l4 -20l8 -84v-46
l-8 -83l-4 -21l-6 -18l-4 -21l-7 -20l-8 -19l-6 -18l-27 -58l-10 -16l-10 -18l-12 -17l-13 -16l-10 -17l-55 -57l-15 -14l-81 -60l-37 -20l-37 -16l-19 -9l-55 -18l-78 -16l-20 -3h-21zM614 1556h172l66 -79l63 -80l15 -17l24 -32l27 -31l12 -17l15 -16l12 -16h-160l-59 51
l-43 41l-31 24l-14 15l-15 12l-14 -12l-14 -15l-17 -12l-14 -12l-14 -14l-15 -13l-14 -14l-14 -12l-17 -13l-14 -14l-14 -12h-156l12 16l15 16l129 160l12 17l14 16l39 47z" />
    <glyph glyph-name="otilde" unicode="&#xf5;" horiz-adv-x="1400" 
d="M860 1268h-20l-21 4l-18 4l-60 18l-20 9l-21 8l-36 16l-17 6l-16 8l-23 7l-20 4l-19 2l-20 -2l-19 -4l-14 -9l-12 -10l-10 -10l-11 -14l-8 -17l-10 -18l-8 -23l-19 6l-18 4l-19 7l-20 6l-19 4l-18 6l6 25l15 43l24 55l8 16l9 15l10 14l24 27l15 12l18 10l19 8l20 6l23 2
l22 3h21l20 -5l18 -4l21 -4l20 -8l19 -6l41 -16l18 -9l19 -6l16 -8l18 -6l21 -6l20 -4l19 -2l20 2l19 4l14 6l14 12l9 10l10 13l18 34l9 23l18 -6l18 -4l21 -6l18 -7l19 -4l18 -6l-6 -24l-8 -23l-6 -20l-17 -39l-16 -33l-8 -14l-11 -15l-8 -10l-30 -29l-19 -10l-18 -8
l-21 -6zM682 145h41l22 2l19 3l41 8l37 12l37 16l55 35l47 43l12 17l15 16l10 18l12 19l10 18l9 21l10 20l6 17l4 20l6 19l4 18l6 61v45l-4 41l-4 21l-4 18l-4 21l-6 18l-6 21l-17 35l-41 65l-24 29l-31 30l-16 13l-37 24l-19 11l-20 10l-18 8l-37 12l-39 8l-19 3l-20 2h-41
l-23 -2l-59 -11l-37 -12l-37 -18l-55 -35l-16 -13l-31 -30l-27 -33l-35 -55l-16 -41l-8 -19l-4 -18l-11 -39l-6 -59v-46l4 -40l9 -39l4 -21l6 -18l8 -19l6 -18l8 -17l41 -65l41 -43l17 -16l16 -13l55 -35l37 -18l37 -12l21 -4l18 -4l21 -3zM719 -25h-41l-21 2h-20l-21 3
l-20 4l-18 4l-21 2l-18 6l-19 4l-37 12l-16 8l-21 9l-18 10l-18 8l-35 21l-33 24l-14 12l-17 13l-43 43l-24 28l-25 33l-20 35l-11 16l-10 19l-24 55l-13 39l-4 21l-6 20l-4 18l-8 84v45l8 84l4 21l6 18l4 21l6 20l41 94l11 17l10 18l61 80l43 43l17 12l14 13l51 35l37 20
l19 8l18 10l18 7l56 18l18 4l21 4l18 4l21 4l20 2h21l20 3h41l20 -3h21l20 -2l58 -12l18 -4l55 -18l19 -7l18 -10l19 -8l37 -20l32 -23l17 -10l16 -12l14 -15l17 -12l14 -14l12 -15l15 -14l24 -31l23 -33l10 -18l10 -16l17 -37l10 -19l21 -57l4 -21l6 -20l4 -20l8 -84v-46
l-8 -83l-4 -21l-6 -18l-4 -21l-7 -20l-8 -19l-6 -18l-27 -58l-10 -16l-10 -18l-12 -17l-13 -16l-10 -17l-55 -57l-15 -14l-81 -60l-37 -20l-37 -16l-19 -9l-55 -18l-78 -16l-20 -3h-21z" />
    <glyph glyph-name="odieresis" unicode="&#xf6;" horiz-adv-x="1400" 
d="M682 145h41l22 2l19 3l41 8l37 12l37 16l55 35l47 43l12 17l15 16l10 18l12 19l10 18l9 21l10 20l6 17l4 20l6 19l4 18l6 61v45l-4 41l-4 21l-4 18l-4 21l-6 18l-6 21l-17 35l-41 65l-24 29l-31 30l-16 13l-37 24l-19 11l-20 10l-18 8l-37 12l-39 8l-19 3l-20 2h-41
l-23 -2l-59 -11l-37 -12l-37 -18l-55 -35l-16 -13l-31 -30l-27 -33l-35 -55l-16 -41l-8 -19l-4 -18l-11 -39l-6 -59v-46l4 -40l9 -39l4 -21l6 -18l8 -19l6 -18l8 -17l41 -65l41 -43l17 -16l16 -13l55 -35l37 -18l37 -12l21 -4l18 -4l21 -3zM719 -25h-41l-21 2h-20l-21 3
l-20 4l-18 4l-21 2l-18 6l-19 4l-37 12l-16 8l-21 9l-18 10l-18 8l-35 21l-33 24l-14 12l-17 13l-43 43l-24 28l-25 33l-20 35l-11 16l-10 19l-24 55l-13 39l-4 21l-6 20l-4 18l-8 84v45l8 84l4 21l6 18l4 21l6 20l41 94l11 17l10 18l61 80l43 43l17 12l14 13l51 35l37 20
l19 8l18 10l18 7l56 18l18 4l21 4l18 4l21 4l20 2h21l20 3h41l20 -3h21l20 -2l58 -12l18 -4l55 -18l19 -7l18 -10l19 -8l37 -20l32 -23l17 -10l16 -12l14 -15l17 -12l14 -14l12 -15l15 -14l24 -31l23 -33l10 -18l10 -16l17 -37l10 -19l21 -57l4 -21l6 -20l4 -20l8 -84v-46
l-8 -83l-4 -21l-6 -18l-4 -21l-7 -20l-8 -19l-6 -18l-27 -58l-10 -16l-10 -18l-12 -17l-13 -16l-10 -17l-55 -57l-15 -14l-81 -60l-37 -20l-37 -16l-19 -9l-55 -18l-78 -16l-20 -3h-21zM401 1485h213v-217h-213v217zM786 1485h213v-217h-213v217z" />
    <glyph glyph-name="divide" unicode="&#xf7;" horiz-adv-x="1353" 
d="M559 438h236v-235h-236v235zM154 664v172h1046v-172h-1046zM559 1296h236v-235h-236v235z" />
    <glyph glyph-name="oslash" unicode="&#xf8;" horiz-adv-x="1400" 
d="M309 578v-43l2 -23l4 -39l4 -20l7 -21l4 -18l8 -19l6 -18l8 -19l31 -51l98 105l70 75l70 76l81 90l29 29l27 31l14 14l43 45l12 16l29 29l14 17l15 14l26 31l15 14l-17 10l-16 12l-16 9l-56 24l-18 4l-21 6l-20 5l-41 4h-45l-41 -4l-21 -5l-20 -4l-37 -12l-39 -18
l-55 -35l-17 -12l-30 -31l-15 -17l-47 -71l-24 -62l-4 -18l-7 -21l-4 -18zM680 139h43l43 4l39 9l37 12l39 18l55 35l16 12l31 31l14 16l13 17l24 37l21 39l20 59l6 21l4 18l2 20l3 21l2 20v43l-2 19l-3 20l-2 19l-8 37l-6 18l-8 21l-6 18l-19 39l-12 18l-10 19l-70 -76
l-14 -14l-12 -17l-29 -28l-55 -62l-15 -14l-14 -15l-12 -16l-56 -59l-14 -17l-29 -28l-12 -17l-29 -28l-14 -17l-41 -45l-29 -29l-12 -16l-14 -14l-15 -17l-41 -45l-14 -14l49 -31l37 -16l37 -12l20 -5l21 -4zM1282 580v-48l-8 -83l-4 -21l-6 -18l-4 -21l-7 -20l-8 -19
l-6 -18l-27 -58l-10 -16l-10 -18l-12 -17l-13 -16l-10 -17l-55 -57l-15 -14l-81 -60l-37 -20l-37 -16l-19 -9l-55 -18l-78 -16l-20 -3h-21l-20 -2h-43l-21 2h-20l-21 5l-20 2l-41 8l-76 24l-16 9l-37 16l-16 8l-17 10l-16 11l-17 10l-14 -14l-14 -17l-15 -14l-28 -31
l-15 -14h-186l14 16l15 14l14 17l14 14l15 17l55 61l14 14l15 17l14 14l-37 47l-41 68l-16 37l-6 20l-9 19l-6 18l-4 20l-6 21l-4 20l-8 82v47l8 84l4 21l6 18l4 21l6 20l41 94l11 17l10 18l61 80l43 43l17 12l14 13l51 35l37 20l19 8l18 10l18 7l56 18l18 4l21 4l18 4l21 4
l20 2h21l20 3h43l20 -3h21l20 -4l21 -2l39 -8l20 -6l19 -4l18 -8l19 -6l34 -17l19 -8l16 -10l17 -8l16 -13l16 -10l15 16l14 17l31 31l28 32h187l-29 -30l-143 -158l12 -14l12 -17l13 -16l10 -17l12 -16l8 -18l11 -19l24 -55l12 -39l7 -21l6 -20l4 -18z" />
    <glyph glyph-name="ugrave" unicode="&#xf9;" horiz-adv-x="1331" 
d="M733 1268h-147l-29 26l-145 138l-17 14l-28 29l-15 12l-14 14l37 17l76 34l38 19l37 16l23 -33l10 -18l10 -16l13 -17l20 -33l88 -135l21 -35l12 -16zM168 1108h192v-666l2 -22l3 -23l8 -43l12 -37l8 -18l19 -33l37 -45l16 -14l33 -21l18 -10l19 -8l20 -6l45 -8l23 -2h47
l20 2l41 8l19 6l20 8l35 17l16 10l17 12l14 12l27 29l12 14l12 17l29 57l6 16l12 56l4 41v651h191v-1108h-191v186l-12 -16l-10 -16l-27 -33l-28 -29l-17 -14l-16 -15l-33 -24l-33 -21l-16 -8l-17 -6l-18 -8l-18 -4l-19 -6l-20 -4l-21 -2l-20 -3l-23 -2h-45l-20 2l-21 3
l-20 2l-56 12l-18 6l-16 8l-21 8l-18 9l-33 20l-33 25l-14 14l-12 14l-15 15l-12 14l-12 16l-21 35l-16 37l-6 21l-7 18l-6 18l-8 37l-8 82v717z" />
    <glyph glyph-name="uacute" unicode="&#xfa;" horiz-adv-x="1331" 
d="M168 1108h192v-666l2 -22l3 -23l8 -43l12 -37l8 -18l19 -33l37 -45l16 -14l33 -21l18 -10l19 -8l20 -6l45 -8l23 -2h47l20 2l41 8l19 6l20 8l35 17l16 10l17 12l14 12l27 29l12 14l12 17l29 57l6 16l12 56l4 41v651h191v-1108h-191v186l-12 -16l-10 -16l-27 -33l-28 -29
l-17 -14l-16 -15l-33 -24l-33 -21l-16 -8l-17 -6l-18 -8l-18 -4l-19 -6l-20 -4l-21 -2l-20 -3l-23 -2h-45l-20 2l-21 3l-20 2l-56 12l-18 6l-16 8l-21 8l-18 9l-33 20l-33 25l-14 14l-12 14l-15 15l-12 14l-12 16l-21 35l-16 37l-6 21l-7 18l-6 18l-8 37l-8 82v717z
M727 1268h-147l10 16l12 16l10 19l23 33l63 100l13 18l20 33l23 33l10 18l12 17l10 16l37 -16l39 -19l56 -24l38 -19l19 -8l-14 -14l-15 -12l-28 -29l-117 -109l-17 -14l-28 -29l-15 -12z" />
    <glyph glyph-name="ucircumflex" unicode="&#xfb;" horiz-adv-x="1331" 
d="M168 1108h192v-666l2 -22l3 -23l8 -43l12 -37l8 -18l19 -33l37 -45l16 -14l33 -21l18 -10l19 -8l20 -6l45 -8l23 -2h47l20 2l41 8l19 6l20 8l35 17l16 10l17 12l14 12l27 29l12 14l12 17l29 57l6 16l12 56l4 41v651h191v-1108h-191v186l-12 -16l-10 -16l-27 -33l-28 -29
l-17 -14l-16 -15l-33 -24l-33 -21l-16 -8l-17 -6l-18 -8l-18 -4l-19 -6l-20 -4l-21 -2l-20 -3l-23 -2h-45l-20 2l-21 3l-20 2l-56 12l-18 6l-16 8l-21 8l-18 9l-33 20l-33 25l-14 14l-12 14l-15 15l-12 14l-12 16l-21 35l-16 37l-6 21l-7 18l-6 18l-8 37l-8 82v717z
M569 1556h172l66 -79l24 -33l27 -31l12 -16l15 -17l24 -32l27 -31l12 -17l15 -16l12 -16h-160l-59 51l-43 41l-31 24l-14 15l-15 12l-14 -12l-14 -15l-17 -12l-14 -12l-14 -14l-15 -13l-14 -14l-14 -12l-17 -13l-14 -14l-14 -12h-156l12 16l14 16l130 160l12 17l14 16l39 47
z" />
    <glyph glyph-name="udieresis" unicode="&#xfc;" horiz-adv-x="1331" 
d="M168 1108h192v-666l2 -22l3 -23l8 -43l12 -37l8 -18l19 -33l37 -45l16 -14l33 -21l18 -10l19 -8l20 -6l45 -8l23 -2h47l20 2l41 8l19 6l20 8l35 17l16 10l17 12l14 12l27 29l12 14l12 17l29 57l6 16l12 56l4 41v651h191v-1108h-191v186l-12 -16l-10 -16l-27 -33l-28 -29
l-17 -14l-16 -15l-33 -24l-33 -21l-16 -8l-17 -6l-18 -8l-18 -4l-19 -6l-20 -4l-21 -2l-20 -3l-23 -2h-45l-20 2l-21 3l-20 2l-56 12l-18 6l-16 8l-21 8l-18 9l-33 20l-33 25l-14 14l-12 14l-15 15l-12 14l-12 16l-21 35l-16 37l-6 21l-7 18l-6 18l-8 37l-8 82v717z
M356 1485h213v-217h-213v217zM741 1485h213v-217h-213v217z" />
    <glyph glyph-name="yacute" unicode="&#xfd;" horiz-adv-x="1280" 
d="M715 1268h-148l23 32l10 19l10 16l13 17l32 51l64 100l33 51l12 17l10 16l37 -16l133 -62l19 -8l-29 -26l-88 -84l-43 -41l-31 -27l-29 -29l-14 -12zM995 1108h203l-8 -18l-6 -21l-25 -55l-6 -21l-16 -37l-31 -77l-6 -19l-17 -37l-6 -20l-16 -37l-8 -21l-6 -18l-9 -18
l-8 -21l-6 -18l-25 -58l-6 -18l-16 -39l-6 -18l-25 -58l-6 -18l-16 -39l-9 -19l-6 -18l-16 -39l-6 -18l-8 -21l-9 -18l-8 -19l-6 -18l-8 -21l-8 -18l-6 -18l-25 -58l-6 -20l-8 -19l-9 -18l-6 -19l-24 -57l-6 -20l-9 -19l-8 -20l-10 -21l-16 -39l-11 -16l-8 -19l-18 -30
l-15 -19l-12 -18l-14 -16l-13 -17l-28 -29l-19 -12l-18 -14l-41 -19l-21 -8l-55 -12l-41 -4h-43l-45 4l-41 8l-18 4l-21 6l-18 7l-19 6l-59 26l57 129l9 19l20 -11l18 -8l21 -6l18 -6l41 -8l23 -2h24l23 2l20 2l21 6l18 8l17 10l16 11l23 24l12 15l35 57l22 47l-24 55l-8 21
l-25 55l-76 168l-49 113l-10 20l-8 19l-82 186l-9 18l-8 19l-10 20l-41 92l-24 58l-41 94l-19 37l-57 131h209l8 -18l88 -209l8 -21l8 -18l6 -19l9 -18l8 -21l16 -36l8 -21l25 -55l6 -21l25 -55l8 -21l16 -36l8 -21l9 -18l6 -19l8 -18l8 -21l8 -18l9 -18l41 -97l6 -18
l16 -37l8 -21l8 -18l15 39l6 18l8 19l21 57l8 19l6 18l8 21l6 18l8 18l7 21l8 18l6 19l8 18l6 21l23 57l6 18l8 19l21 57l8 19l6 18l8 21l6 18l8 18l7 21l8 18l6 19l8 18l6 21l9 18l6 19l8 20l6 18l8 19l6 18l9 21l6 18l8 19l6 18l8 21z" />
    <glyph glyph-name="thorn" unicode="&#xfe;" horiz-adv-x="1435" 
d="M727 145h41l23 2l20 3l20 4l21 6l18 6l58 24l18 11l33 24l31 29l39 47l30 59l15 39l12 41l4 21l6 67v50l-4 45l-12 61l-6 21l-7 18l-30 61l-10 19l-27 33l-12 16l-17 14l-14 15l-33 24l-37 21l-37 16l-20 6l-41 8l-21 5l-20 2h-41l-20 -2l-21 -5l-41 -8l-20 -8l-19 -6
l-55 -31l-33 -24l-45 -43l-33 -45l-20 -33l-8 -19l-9 -16l-8 -21l-12 -38l-8 -41l-4 -43v-50l4 -45l8 -41l6 -20l6 -18l8 -19l9 -18l8 -19l20 -33l21 -30l12 -15l45 -43l33 -24l37 -21l37 -16l20 -8l41 -8l21 -5zM184 1554h193v-657l10 16l12 17l25 28l12 17l29 26l14 15
l31 24l14 13l19 10l32 20l19 9l39 16l20 6l56 12l18 2l21 2l20 3h41l18 -3l21 -2l18 -2l58 -12l39 -12l18 -8l18 -9l19 -8l53 -30l16 -13l17 -12l31 -27l14 -14l12 -14l15 -15l45 -61l30 -53l17 -37l8 -19l12 -37l4 -18l6 -20l5 -21l2 -20l4 -21l2 -20v-23l2 -22v-50l-2 -22
v-23l-2 -20l-4 -21l-2 -20l-5 -21l-6 -20l-4 -18l-6 -21l-6 -18l-8 -17l-8 -20l-9 -19l-10 -18l-10 -16l-10 -19l-33 -47l-12 -14l-15 -15l-12 -14l-45 -41l-17 -12l-16 -13l-53 -30l-19 -8l-18 -9l-18 -8l-39 -12l-37 -8l-21 -4l-18 -2l-21 -3l-18 -2h-41l-23 2l-18 3
l-20 2l-56 12l-20 6l-39 16l-37 17l-33 20l-16 13l-17 10l-28 24l-12 15l-17 16l-43 51l-12 19v-541h-193v1894z" />
    <glyph glyph-name="ydieresis" unicode="&#xff;" horiz-adv-x="1280" 
d="M344 1485h213v-217h-213v217zM729 1485h213v-217h-213v217zM995 1108h203l-8 -18l-6 -21l-25 -55l-6 -21l-16 -37l-31 -77l-6 -19l-17 -37l-6 -20l-16 -37l-8 -21l-6 -18l-9 -18l-8 -21l-6 -18l-25 -58l-6 -18l-16 -39l-6 -18l-25 -58l-6 -18l-16 -39l-9 -19l-6 -18
l-16 -39l-6 -18l-8 -21l-9 -18l-8 -19l-6 -18l-8 -21l-8 -18l-6 -18l-25 -58l-6 -20l-8 -19l-9 -18l-6 -19l-24 -57l-6 -20l-9 -19l-8 -20l-10 -21l-16 -39l-11 -16l-8 -19l-18 -30l-15 -19l-12 -18l-14 -16l-13 -17l-28 -29l-19 -12l-18 -14l-41 -19l-21 -8l-55 -12l-41 -4
h-43l-45 4l-41 8l-18 4l-21 6l-18 7l-19 6l-59 26l57 129l9 19l20 -11l18 -8l21 -6l18 -6l41 -8l23 -2h24l23 2l20 2l21 6l18 8l17 10l16 11l23 24l12 15l35 57l22 47l-24 55l-8 21l-25 55l-76 168l-49 113l-10 20l-8 19l-82 186l-9 18l-8 19l-10 20l-41 92l-24 58l-41 94
l-19 37l-57 131h209l8 -18l88 -209l8 -21l8 -18l6 -19l9 -18l8 -21l16 -36l8 -21l25 -55l6 -21l25 -55l8 -21l16 -36l8 -21l9 -18l6 -19l8 -18l8 -21l8 -18l9 -18l41 -97l6 -18l16 -37l8 -21l8 -18l15 39l6 18l8 19l21 57l8 19l6 18l8 21l6 18l8 18l7 21l8 18l6 19l8 18
l6 21l23 57l6 18l8 19l21 57l8 19l6 18l8 21l6 18l8 18l7 21l8 18l6 19l8 18l6 21l9 18l6 19l8 20l6 18l8 19l6 18l9 21l6 18l8 19l6 18l8 21z" />
    <glyph glyph-name="Amacron" unicode="&#x100;" horiz-adv-x="1699" 
d="M489 1833h721v-154h-721v154zM530 561h631l-65 150l-19 37l-24 57l-41 92l-8 21l-41 92l-9 18l-16 39l-27 55l-65 150l-8 -19l-9 -18l-8 -18l-24 -58l-25 -55l-67 -150l-9 -18l-8 -18l-24 -58l-41 -94l-19 -37l-41 -92zM758 1501h184l16 -37l9 -18l8 -21l10 -18l16 -37
l58 -131l10 -18l49 -113l8 -21l9 -18l8 -18l67 -150l9 -18l8 -21l10 -18l41 -92l33 -76l10 -19l8 -18l8 -21l41 -92l8 -20l9 -19l10 -18l16 -37l9 -18l40 -95l19 -38l24 -56l9 -18l32 -76l19 -37l8 -18l33 -76h-209l-16 37l-41 92l-25 55l-63 146l-25 55h-778l-49 -111
l-33 -73l-6 -17l-41 -92l-41 -92h-203l16 37l9 18l8 21l10 18l33 74l16 39l17 37l10 18l57 131l8 21l11 18l32 74l33 76l59 131l43 94l25 55l8 21l8 18l11 19l24 55l41 94l51 113l9 18l8 21l8 18l10 18l8 19l58 131l10 18z" />
    <glyph glyph-name="amacron" unicode="&#x101;" horiz-adv-x="1253" 
d="M287 1454h684v-149h-684v149zM535 125h40l62 6l37 8l78 31l18 10l16 10l17 13l43 41l10 14l21 35l8 16l12 37l4 21l2 18v117l-16 6l-37 8l-19 6l-40 8l-39 9l-84 8l-23 2h-70l-45 -4l-20 -2l-41 -8l-51 -19l-17 -8l-14 -8l-12 -8l-19 -15l-14 -14l-23 -33l-8 -16l-8 -19
l-8 -41v-24l2 -25l4 -22l6 -21l8 -18l11 -19l28 -32l47 -33l17 -8l18 -7l37 -12l21 -2l20 -4zM1085 0h-186v158l-51 -58l-14 -12l-17 -12l-16 -13l-17 -12l-36 -20l-50 -23l-36 -12l-21 -6l-41 -8l-20 -2l-23 -3l-22 -2h-41l-21 2l-18 3l-39 4l-37 8l-39 12l-21 8l-18 8
l-18 11l-19 10l-16 10l-17 12l-16 13l-29 28l-24 31l-23 37l-8 16l-12 33l-6 19l-4 20l-3 19l-2 20v47l2 21l3 20l4 21l18 55l8 16l11 19l12 18l26 33l15 16l33 27l49 31l37 16l20 8l59 17l62 12l20 2l23 2h22l23 2h67l21 -2h23l92 -10l43 -8l20 -5l23 -4l61 -18v61l-2 25
l-8 43l-6 20l-8 19l-9 18l-10 17l-12 16l-12 14l-15 15l-14 12l-14 10l-17 8l-16 9l-19 8l-18 6l-21 6l-20 4l-23 4l-45 4h-47l-20 -2h-21l-39 -4l-20 -4l-19 -2l-16 -4l-18 -4l-39 -12l-39 -15l-19 -6l-18 -8l-21 -8l-18 -8l-6 18l-8 20l-13 39l-8 19l-6 18l-8 21l-6 18
l37 17l18 6l18 8l39 12l19 8l18 6l19 5l20 6l53 12l19 4l102 10h70l24 -2h23l23 -4l22 -2l23 -4l20 -4l21 -6l18 -4l39 -15l16 -8l19 -8l30 -18l31 -23l14 -12l25 -25l23 -28l20 -31l16 -33l9 -16l12 -37l6 -21l4 -18l4 -21l8 -88v-696z" />
    <glyph glyph-name="Abreve" unicode="&#x102;" horiz-adv-x="1699" 
d="M872 1636h-45l-45 4l-20 5l-21 4l-18 4l-37 12l-18 8l-33 19l-14 12l-17 12l-29 27l-12 16l-10 17l-8 16l-8 18l-7 19l-6 20l-4 21l-2 22h146l8 -20l10 -17l12 -16l33 -27l33 -16l41 -8l24 -4h49l25 4l41 8l33 16l33 27l12 16l10 17l8 20h146l-2 -22l-4 -21l-7 -20
l-6 -19l-8 -18l-8 -16l-10 -17l-13 -16l-28 -27l-31 -24l-33 -19l-18 -8l-37 -12l-39 -8l-20 -5zM530 561h631l-65 150l-19 37l-24 57l-41 92l-8 21l-41 92l-9 18l-16 39l-27 55l-65 150l-8 -19l-9 -18l-8 -18l-24 -58l-25 -55l-67 -150l-9 -18l-8 -18l-24 -58l-41 -94
l-19 -37l-41 -92zM758 1501h184l16 -37l9 -18l8 -21l10 -18l16 -37l58 -131l10 -18l49 -113l8 -21l9 -18l8 -18l67 -150l9 -18l8 -21l10 -18l41 -92l33 -76l10 -19l8 -18l8 -21l41 -92l8 -20l9 -19l10 -18l16 -37l9 -18l40 -95l19 -38l24 -56l9 -18l32 -76l19 -37l8 -18
l33 -76h-209l-16 37l-41 92l-25 55l-63 146l-25 55h-778l-49 -111l-33 -73l-6 -17l-41 -92l-41 -92h-203l16 37l9 18l8 21l10 18l33 74l16 39l17 37l10 18l57 131l8 21l11 18l32 74l33 76l59 131l43 94l25 55l8 21l8 18l11 19l24 55l41 94l51 113l9 18l8 21l8 18l10 18l8 19
l58 131l10 18z" />
    <glyph glyph-name="abreve" unicode="&#x103;" horiz-adv-x="1253" 
d="M299 1542h137l6 -18l11 -19l8 -16l24 -31l17 -12l12 -10l16 -9l35 -12l21 -4l20 -2h45l21 2l20 4l19 6l16 6l16 9l15 10l14 12l25 31l10 16l8 19l6 18h137l-2 -22l-8 -41l-12 -37l-8 -19l-8 -16l-21 -31l-12 -14l-43 -37l-33 -20l-18 -9l-19 -8l-37 -12l-41 -8l-45 -4
h-45l-43 4l-22 4l-19 4l-39 12l-18 8l-35 19l-31 22l-28 25l-13 14l-20 31l-8 16l-15 37l-6 19l-8 41zM535 125h40l62 6l37 8l78 31l18 10l16 10l17 13l43 41l10 14l21 35l8 16l12 37l4 21l2 18v117l-16 6l-37 8l-19 6l-40 8l-39 9l-84 8l-23 2h-70l-45 -4l-20 -2l-41 -8
l-51 -19l-17 -8l-14 -8l-12 -8l-19 -15l-14 -14l-23 -33l-8 -16l-8 -19l-8 -41v-24l2 -25l4 -22l6 -21l8 -18l11 -19l28 -32l47 -33l17 -8l18 -7l37 -12l21 -2l20 -4zM1085 0h-186v158l-51 -58l-14 -12l-17 -12l-16 -13l-17 -12l-36 -20l-50 -23l-36 -12l-21 -6l-41 -8
l-20 -2l-23 -3l-22 -2h-41l-21 2l-18 3l-39 4l-37 8l-39 12l-21 8l-18 8l-18 11l-19 10l-16 10l-17 12l-16 13l-29 28l-24 31l-23 37l-8 16l-12 33l-6 19l-4 20l-3 19l-2 20v47l2 21l3 20l4 21l18 55l8 16l11 19l12 18l26 33l15 16l33 27l49 31l37 16l20 8l59 17l62 12l20 2
l23 2h22l23 2h67l21 -2h23l92 -10l43 -8l20 -5l23 -4l61 -18v61l-2 25l-8 43l-6 20l-8 19l-9 18l-10 17l-12 16l-12 14l-15 15l-14 12l-14 10l-17 8l-16 9l-19 8l-18 6l-21 6l-20 4l-23 4l-45 4h-47l-20 -2h-21l-39 -4l-20 -4l-19 -2l-16 -4l-18 -4l-39 -12l-39 -15l-19 -6
l-18 -8l-21 -8l-18 -8l-6 18l-8 20l-13 39l-8 19l-6 18l-8 21l-6 18l37 17l18 6l18 8l39 12l19 8l18 6l19 5l20 6l53 12l19 4l102 10h70l24 -2h23l23 -4l22 -2l23 -4l20 -4l21 -6l18 -4l39 -15l16 -8l19 -8l30 -18l31 -23l14 -12l25 -25l23 -28l20 -31l16 -33l9 -16l12 -37
l6 -21l4 -18l4 -21l8 -88v-696z" />
    <glyph glyph-name="Aogonek" unicode="&#x104;" horiz-adv-x="1699" 
d="M530 561h631l-65 150l-19 37l-24 57l-41 92l-8 21l-41 92l-9 18l-16 39l-27 55l-65 150l-8 -19l-9 -18l-8 -18l-24 -58l-25 -55l-67 -150l-9 -18l-8 -18l-24 -58l-41 -94l-19 -37l-41 -92zM1235 385h-778l-49 -111l-33 -73l-6 -17l-41 -92l-41 -92h-203l16 37l9 18l8 21
l10 18l33 74l16 39l17 37l10 18l57 131l8 21l11 18l32 74l33 76l59 131l43 94l25 55l8 21l8 18l11 19l24 55l41 94l51 113l9 18l8 21l8 18l10 18l8 19l58 131l10 18l33 76h184l16 -37l9 -18l8 -21l10 -18l16 -37l58 -131l10 -18l49 -113l8 -21l9 -18l8 -18l67 -150l9 -18
l8 -21l10 -18l41 -92l33 -76l10 -19l8 -18l8 -21l41 -92l8 -20l9 -19l10 -18l16 -37l9 -18l40 -95l19 -38l24 -56l9 -18l32 -76l19 -37l8 -18l33 -76h-49l-19 -16l-28 -33l-13 -14l-18 -33l-6 -17l-4 -18l-2 -19l2 -20l8 -18l10 -17l16 -14l29 -12l21 -7l20 -4l23 -2l26 -2
v-104l-18 -2h-19l-24 2h-23l-22 4l-21 2l-18 4l-21 6l-16 4l-16 6l-17 9l-14 6l-33 22l-14 17l-15 16l-10 18l-6 19l-4 20l-2 21v18l4 21l4 18l16 33l11 18l12 17l31 35l18 16h-8l-16 37l-41 92l-25 55l-63 146z" />
    <glyph glyph-name="aogonek" unicode="&#x105;" horiz-adv-x="1253" 
d="M535 125h40l62 6l37 8l78 31l18 10l16 10l17 13l43 41l10 14l21 35l8 16l12 37l4 21l2 18v117l-16 6l-37 8l-19 6l-40 8l-39 9l-84 8l-23 2h-70l-45 -4l-20 -2l-41 -8l-51 -19l-17 -8l-14 -8l-12 -8l-19 -15l-14 -14l-23 -33l-8 -16l-8 -19l-8 -41v-24l2 -25l4 -22l6 -21
l8 -18l11 -19l28 -32l47 -33l17 -8l18 -7l37 -12l21 -2l20 -4zM1085 0h-43l-18 -16l-41 -47l-18 -33l-7 -17l-4 -18l-2 -19l2 -20l9 -18l10 -17l16 -14l29 -12l20 -7l21 -4l22 -2l27 -2v-104l-18 -2h-19l-24 2h-23l-23 4l-20 2l-18 4l-21 6l-16 4l-17 6l-16 9l-14 6l-33 22
l-29 33l-10 18l-6 19l-4 20l-2 21l4 39l6 20l8 17l18 32l25 29l12 16l31 31v150l-51 -58l-14 -12l-17 -12l-16 -13l-17 -12l-36 -20l-50 -23l-36 -12l-21 -6l-41 -8l-20 -2l-23 -3l-22 -2h-41l-21 2l-18 3l-39 4l-37 8l-39 12l-21 8l-18 8l-18 11l-19 10l-16 10l-17 12
l-16 13l-29 28l-24 31l-23 37l-8 16l-12 33l-6 19l-4 20l-3 19l-2 20v47l2 21l3 20l4 21l18 55l8 16l11 19l12 18l26 33l15 16l33 27l49 31l37 16l20 8l59 17l62 12l20 2l23 2h22l23 2h67l21 -2h23l92 -10l43 -8l20 -5l23 -4l61 -18v61l-2 25l-8 43l-6 20l-8 19l-9 18
l-10 17l-12 16l-12 14l-15 15l-14 12l-14 10l-17 8l-16 9l-19 8l-18 6l-21 6l-20 4l-23 4l-45 4h-47l-20 -2h-21l-39 -4l-20 -4l-19 -2l-16 -4l-18 -4l-39 -12l-39 -15l-19 -6l-18 -8l-21 -8l-18 -8l-6 18l-8 20l-13 39l-8 19l-6 18l-8 21l-6 18l37 17l18 6l18 8l39 12l19 8
l18 6l19 5l20 6l53 12l19 4l102 10h70l24 -2h23l23 -4l22 -2l23 -4l20 -4l21 -6l18 -4l39 -15l16 -8l19 -8l30 -18l31 -23l14 -12l25 -25l23 -28l20 -31l16 -33l9 -16l12 -37l6 -21l4 -18l4 -21l8 -88v-696z" />
    <glyph glyph-name="Cacute" unicode="&#x106;" horiz-adv-x="1595" 
d="M965 1640h-158l12 17l49 63l37 47l27 31l24 33l13 14l61 80l55 -24l19 -9l20 -8l19 -10l37 -16l18 -9l19 -8l-17 -12l-47 -37l-14 -14l-33 -25l-14 -12l-17 -12l-16 -13l-17 -12l-30 -27l-17 -12zM942 -25h-65l-23 2h-20l-21 3l-20 2l-21 4l-20 2l-21 4l-18 4l-21 6
l-18 6l-21 6l-37 13l-75 34l-37 21l-17 12l-67 47l-14 15l-31 26l-43 45l-62 84l-20 35l-10 19l-11 18l-39 96l-18 58l-16 79l-6 62l-3 20v88l3 21l6 61l16 80l18 58l39 96l41 74l49 65l27 33l43 43l17 14l16 12l14 15l51 35l19 12l37 20l18 11l19 10l20 8l18 8l19 6l20 9
l39 12l101 20l43 4h22l21 3h67l21 -3l43 -4l18 -2l21 -2l18 -4l21 -2l20 -6l18 -4l95 -31l18 -8l21 -8l73 -41l19 -12l49 -37l16 -15l17 -12l32 -29l17 -14l-57 -65l-72 -80l-33 28l-14 15l-68 49l-35 22l-16 11l-18 8l-17 10l-35 16l-18 7l-37 12l-37 8l-20 4l-21 2l-20 4
h-23l-20 2h-43l-64 -6l-41 -8l-18 -4l-21 -6l-37 -13l-36 -16l-17 -10l-18 -8l-17 -11l-16 -12l-16 -10l-58 -51l-41 -45l-45 -64l-10 -18l-8 -19l-10 -18l-9 -19l-6 -18l-8 -21l-12 -38l-6 -21l-4 -20l-5 -21l-2 -20l-2 -23l-2 -20l-2 -23v-47l2 -20v-21l2 -18l4 -21l2 -18
l5 -19l4 -20l6 -19l4 -18l6 -19l8 -16l6 -20l9 -19l10 -18l8 -19l21 -34l24 -33l10 -15l41 -45l43 -39l31 -24l33 -21l90 -43l18 -6l21 -6l59 -12l41 -4l23 -2h41l20 2h21l20 2l19 4l18 2l18 4l21 6l20 4l41 15l37 16l19 10l18 8l18 13l52 34l14 13l45 35l14 14l15 12l14 15
l43 -43l14 -15l15 -12l57 -57l-14 -15l-17 -14l-28 -29l-17 -12l-14 -14l-64 -50l-67 -41l-16 -8l-19 -8l-18 -10l-19 -6l-18 -8l-39 -13l-41 -12l-41 -8l-18 -4l-62 -6l-22 -3z" />
    <glyph glyph-name="cacute" unicode="&#x107;" horiz-adv-x="1232" 
d="M711 -25h-45l-23 2l-20 3l-21 2l-63 12l-58 18l-39 17l-16 10l-18 8l-19 10l-49 35l-45 39l-41 43l-12 14l-13 17l-20 33l-12 18l-19 35l-24 55l-13 39l-4 21l-6 20l-4 18l-8 84v45l8 84l4 21l6 18l4 21l6 20l15 39l16 37l19 35l32 51l25 31l14 16l15 15l12 14l61 51
l17 12l35 21l18 10l18 8l19 10l39 15l18 6l21 6l63 12l41 4l23 3h45l20 -3h21l20 -2l21 -4l18 -4l21 -2l61 -18l55 -25l19 -8l49 -31l16 -12l15 -10l71 -64l13 -14l-15 -14l-12 -15l-29 -28l-12 -17l-29 -28l-12 -15l-14 -14l-15 14l-14 15l-16 12l-15 14l-30 23l-17 12
l-16 10l-17 13l-53 24l-18 6l-21 6l-22 4l-21 3l-22 2h-47l-23 -2l-20 -5l-23 -4l-41 -12l-39 -18l-37 -23l-16 -12l-45 -43l-14 -17l-15 -16l-12 -18l-10 -19l-11 -18l-10 -21l-8 -20l-12 -37l-6 -21l-2 -18l-5 -21l-4 -40v-46l4 -43l5 -18l2 -20l18 -58l8 -20l10 -21
l35 -55l13 -16l30 -31l17 -14l16 -15l16 -12l37 -23l21 -8l18 -8l35 -12l39 -8l20 -3l21 -2h43l22 2l21 3l20 4l21 6l18 6l21 6l35 18l16 9l18 12l17 10l16 12l15 13l16 12l14 14l17 15l14 14l14 -14l60 -58l45 -43l-43 -45l-43 -39l-17 -14l-16 -10l-16 -12l-17 -11
l-37 -20l-18 -8l-19 -11l-20 -6l-21 -8l-40 -12l-21 -2l-18 -4l-21 -4l-20 -3h-21zM748 1268h-148l10 16l13 16l10 19l98 151l10 17l23 33l10 16l10 18l13 17l10 16l37 -16l151 -70l-14 -14l-43 -41l-31 -27l-28 -28l-43 -41l-31 -27l-29 -29l-14 -12z" />
    <glyph glyph-name="Cdotaccent" unicode="&#x10a;" horiz-adv-x="1595" 
d="M942 -25h-65l-23 2h-20l-21 3l-20 2l-21 4l-20 2l-21 4l-18 4l-21 6l-18 6l-21 6l-37 13l-75 34l-37 21l-17 12l-67 47l-14 15l-31 26l-43 45l-62 84l-20 35l-10 19l-11 18l-39 96l-18 58l-16 79l-6 62l-3 20v88l3 21l6 61l16 80l18 58l39 96l41 74l49 65l27 33l43 43
l17 14l16 12l14 15l51 35l19 12l37 20l18 11l19 10l20 8l18 8l19 6l20 9l39 12l101 20l43 4h22l21 3h67l21 -3l43 -4l18 -2l21 -2l18 -4l21 -2l20 -6l18 -4l95 -31l18 -8l21 -8l73 -41l19 -12l49 -37l16 -15l17 -12l32 -29l17 -14l-57 -65l-72 -80l-33 28l-14 15l-68 49
l-35 22l-16 11l-18 8l-17 10l-35 16l-18 7l-37 12l-37 8l-20 4l-21 2l-20 4h-23l-20 2h-43l-64 -6l-41 -8l-18 -4l-21 -6l-37 -13l-36 -16l-17 -10l-18 -8l-17 -11l-16 -12l-16 -10l-58 -51l-41 -45l-45 -64l-10 -18l-8 -19l-10 -18l-9 -19l-6 -18l-8 -21l-12 -38l-6 -21
l-4 -20l-5 -21l-2 -20l-2 -23l-2 -20l-2 -23v-47l2 -20v-21l2 -18l4 -21l2 -18l5 -19l4 -20l6 -19l4 -18l6 -19l8 -16l6 -20l9 -19l10 -18l8 -19l21 -34l24 -33l10 -15l41 -45l43 -39l31 -24l33 -21l90 -43l18 -6l21 -6l59 -12l41 -4l23 -2h41l20 2h21l20 2l19 4l18 2l18 4
l21 6l20 4l41 15l37 16l19 10l18 8l18 13l52 34l14 13l45 35l14 14l15 12l14 15l43 -43l14 -15l15 -12l57 -57l-14 -15l-17 -14l-28 -29l-17 -12l-14 -14l-64 -50l-67 -41l-16 -8l-19 -8l-18 -10l-19 -6l-18 -8l-39 -13l-41 -12l-41 -8l-18 -4l-62 -6l-22 -3zM774 1847h225
v-207h-225v207z" />
    <glyph glyph-name="cdotaccent" unicode="&#x10b;" horiz-adv-x="1232" 
d="M567 1487h221v-219h-221v219zM711 -25h-45l-23 2l-20 3l-21 2l-63 12l-58 18l-39 17l-16 10l-18 8l-19 10l-49 35l-45 39l-41 43l-12 14l-13 17l-20 33l-12 18l-19 35l-24 55l-13 39l-4 21l-6 20l-4 18l-8 84v45l8 84l4 21l6 18l4 21l6 20l15 39l16 37l19 35l32 51l25 31
l14 16l15 15l12 14l61 51l17 12l35 21l18 10l18 8l19 10l39 15l18 6l21 6l63 12l41 4l23 3h45l20 -3h21l20 -2l21 -4l18 -4l21 -2l61 -18l55 -25l19 -8l49 -31l16 -12l15 -10l71 -64l13 -14l-15 -14l-12 -15l-29 -28l-12 -17l-29 -28l-12 -15l-14 -14l-15 14l-14 15l-16 12
l-15 14l-30 23l-17 12l-16 10l-17 13l-53 24l-18 6l-21 6l-22 4l-21 3l-22 2h-47l-23 -2l-20 -5l-23 -4l-41 -12l-39 -18l-37 -23l-16 -12l-45 -43l-14 -17l-15 -16l-12 -18l-10 -19l-11 -18l-10 -21l-8 -20l-12 -37l-6 -21l-2 -18l-5 -21l-4 -40v-46l4 -43l5 -18l2 -20
l18 -58l8 -20l10 -21l35 -55l13 -16l30 -31l17 -14l16 -15l16 -12l37 -23l21 -8l18 -8l35 -12l39 -8l20 -3l21 -2h43l22 2l21 3l20 4l21 6l18 6l21 6l35 18l16 9l18 12l17 10l16 12l15 13l16 12l14 14l17 15l14 14l14 -14l60 -58l45 -43l-43 -45l-43 -39l-17 -14l-16 -10
l-16 -12l-17 -11l-37 -20l-18 -8l-19 -11l-20 -6l-21 -8l-40 -12l-21 -2l-18 -4l-21 -4l-20 -3h-21z" />
    <glyph glyph-name="Ccaron" unicode="&#x10c;" horiz-adv-x="1595" 
d="M977 1640h-180l-15 17l-14 14l-14 17l-72 75l-12 17l-72 75l-14 17l-15 14l-14 17h174l16 -13l17 -12l47 -37l16 -14l17 -12l14 -13l33 -24l33 24l127 101h170l-15 -17l-14 -14l-14 -17l-72 -75l-12 -17l-72 -75l-14 -17l-15 -14zM942 -25h-65l-23 2h-20l-21 3l-20 2
l-21 4l-20 2l-21 4l-18 4l-21 6l-18 6l-21 6l-37 13l-75 34l-37 21l-17 12l-67 47l-14 15l-31 26l-43 45l-62 84l-20 35l-10 19l-11 18l-39 96l-18 58l-16 79l-6 62l-3 20v88l3 21l6 61l16 80l18 58l39 96l41 74l49 65l27 33l43 43l17 14l16 12l14 15l51 35l19 12l37 20
l18 11l19 10l20 8l18 8l19 6l20 9l39 12l101 20l43 4h22l21 3h67l21 -3l43 -4l18 -2l21 -2l18 -4l21 -2l20 -6l18 -4l95 -31l18 -8l21 -8l73 -41l19 -12l49 -37l16 -15l17 -12l32 -29l17 -14l-57 -65l-72 -80l-33 28l-14 15l-68 49l-35 22l-16 11l-18 8l-17 10l-35 16l-18 7
l-37 12l-37 8l-20 4l-21 2l-20 4h-23l-20 2h-43l-64 -6l-41 -8l-18 -4l-21 -6l-37 -13l-36 -16l-17 -10l-18 -8l-17 -11l-16 -12l-16 -10l-58 -51l-41 -45l-45 -64l-10 -18l-8 -19l-10 -18l-9 -19l-6 -18l-8 -21l-12 -38l-6 -21l-4 -20l-5 -21l-2 -20l-2 -23l-2 -20l-2 -23
v-47l2 -20v-21l2 -18l4 -21l2 -18l5 -19l4 -20l6 -19l4 -18l6 -19l8 -16l6 -20l9 -19l10 -18l8 -19l21 -34l24 -33l10 -15l41 -45l43 -39l31 -24l33 -21l90 -43l18 -6l21 -6l59 -12l41 -4l23 -2h41l20 2h21l20 2l19 4l18 2l18 4l21 6l20 4l41 15l37 16l19 10l18 8l18 13
l52 34l14 13l45 35l14 14l15 12l14 15l43 -43l14 -15l15 -12l57 -57l-14 -15l-17 -14l-28 -29l-17 -12l-14 -14l-64 -50l-67 -41l-16 -8l-19 -8l-18 -10l-19 -6l-18 -8l-39 -13l-41 -12l-41 -8l-18 -4l-62 -6l-22 -3z" />
    <glyph glyph-name="ccaron" unicode="&#x10d;" horiz-adv-x="1232" 
d="M711 -25h-45l-23 2l-20 3l-21 2l-63 12l-58 18l-39 17l-16 10l-18 8l-19 10l-49 35l-45 39l-41 43l-12 14l-13 17l-20 33l-12 18l-19 35l-24 55l-13 39l-4 21l-6 20l-4 18l-8 84v45l8 84l4 21l6 18l4 21l6 20l15 39l16 37l19 35l32 51l25 31l14 16l15 15l12 14l61 51
l17 12l35 21l18 10l18 8l19 10l39 15l18 6l21 6l63 12l41 4l23 3h45l20 -3h21l20 -2l21 -4l18 -4l21 -2l61 -18l55 -25l19 -8l49 -31l16 -12l15 -10l71 -64l13 -14l-15 -14l-12 -15l-29 -28l-12 -17l-29 -28l-12 -15l-14 -14l-15 14l-14 15l-16 12l-15 14l-30 23l-17 12
l-16 10l-17 13l-53 24l-18 6l-21 6l-22 4l-21 3l-22 2h-47l-23 -2l-20 -5l-23 -4l-41 -12l-39 -18l-37 -23l-16 -12l-45 -43l-14 -17l-15 -16l-12 -18l-10 -19l-11 -18l-10 -21l-8 -20l-12 -37l-6 -21l-2 -18l-5 -21l-4 -40v-46l4 -43l5 -18l2 -20l18 -58l8 -20l10 -21
l35 -55l13 -16l30 -31l17 -14l16 -15l16 -12l37 -23l21 -8l18 -8l35 -12l39 -8l20 -3l21 -2h43l22 2l21 3l20 4l21 6l18 6l21 6l35 18l16 9l18 12l17 10l16 12l15 13l16 12l14 14l17 15l14 14l14 -14l60 -58l45 -43l-43 -45l-43 -39l-17 -14l-16 -10l-16 -12l-17 -11
l-37 -20l-18 -8l-19 -11l-20 -6l-21 -8l-40 -12l-21 -2l-18 -4l-21 -4l-20 -3h-21zM764 1268h-172l-12 16l-15 16l-12 17l-27 31l-24 32l-15 17l-51 63l-78 96h160l29 -26l16 -12l15 -13l14 -14l14 -12l15 -15l14 -12l16 -12l15 -15l14 -12l14 12l15 15l16 12l14 12l15 15
l14 12l14 14l15 13l16 12l14 14l15 12h155l-39 -47l-12 -16l-14 -16l-117 -146l-12 -14l-12 -17l-15 -16z" />
    <glyph glyph-name="Dcaron" unicode="&#x10e;" horiz-adv-x="1681" 
d="M410 1311v-1131h356l20 2h23l20 2l21 4l20 2l39 9l76 24l21 8l36 19l17 8l18 10l17 13l16 10l47 37l29 28l26 33l15 17l12 16l41 76l8 20l6 19l9 18l4 20l6 21l4 18l4 21l2 20l4 21v22l2 21v47l-2 22v21l-4 20l-2 21l-8 41l-6 18l-4 21l-9 18l-6 21l-24 53l-11 16l-10 19
l-10 16l-12 14l-11 17l-39 43l-14 14l-47 37l-16 10l-17 13l-35 20l-36 16l-21 11l-55 18l-21 4l-18 6l-21 4l-20 3l-21 4l-20 2h-23l-20 2h-356zM213 0v1491h573l105 -10l41 -8l20 -5l39 -8l74 -24l20 -11l41 -16l74 -41l19 -12l65 -49l45 -43l68 -78l33 -51l10 -19l10 -16
l10 -19l8 -20l11 -19l6 -18l8 -18l12 -37l4 -19l7 -20l8 -39l2 -19l4 -20l4 -41v-20l2 -21v-45l-2 -20v-21l-4 -41l-4 -20l-2 -21l-4 -18l-4 -21l-7 -18l-4 -19l-6 -18l-6 -21l-8 -18l-6 -16l-11 -21l-38 -74l-23 -34l-10 -17l-39 -47l-43 -45l-15 -12l-14 -15l-14 -12
l-31 -22l-16 -13l-68 -41l-18 -10l-35 -16l-21 -8l-18 -9l-18 -6l-19 -8l-18 -6l-19 -4l-20 -6l-19 -4l-20 -5l-41 -8l-82 -8l-23 -2h-573zM899 1620h-180l-14 16l-15 15l-14 16l-14 14l-15 17l-14 14l-15 17l-14 14l-12 16l-43 45l-14 17l-58 61h174l33 -24l14 -13l33 -24
l17 -15l16 -12l47 -37l33 25l14 12l16 12l17 15l33 24l14 13l33 24h170l-43 -47l-15 -14l-57 -62l-12 -16l-15 -14l-14 -17l-14 -14l-15 -17l-14 -14l-14 -16l-15 -15z" />
    <glyph glyph-name="dcaron" unicode="&#x10f;" horiz-adv-x="1435" 
d="M666 145h41l20 2l21 5l40 8l58 24l18 11l19 10l32 24l33 29l13 14l34 45l9 17l10 16l8 19l10 18l19 57l8 41l4 45v50l-4 43l-8 41l-13 38l-6 21l-10 16l-8 19l-10 16l-9 17l-22 30l-12 15l-13 14l-33 29l-32 24l-19 10l-18 11l-19 10l-18 6l-21 8l-40 8l-21 5l-20 2h-41
l-23 -2l-20 -3l-21 -4l-39 -12l-18 -6l-37 -18l-19 -11l-32 -24l-15 -13l-43 -47l-12 -16l-31 -59l-8 -21l-18 -59l-2 -21l-4 -22l-2 -23l-3 -22v-50l3 -22l2 -23l12 -61l6 -18l8 -19l8 -22l31 -58l12 -18l15 -17l14 -14l14 -16l15 -15l33 -24l18 -10l16 -11l21 -8l18 -8
l19 -6l41 -8l20 -5zM1059 1554h190v-1554h-190v211l-10 -16l-25 -29l-12 -16l-41 -44l-15 -12l-14 -14l-16 -12l-15 -13l-51 -30l-18 -9l-21 -8l-18 -8l-21 -6l-55 -12l-18 -2l-21 -3l-20 -2h-41l-19 2l-20 3l-19 2l-18 4l-21 4l-18 4l-39 12l-55 25l-19 10l-32 20l-19 13
l-14 12l-17 12l-30 29l-27 29l-35 45l-20 32l-10 19l-11 18l-24 56l-6 18l-7 18l-4 19l-6 20l-2 21l-8 41l-2 20v23l-2 22v50l2 22v23l2 20l4 21l2 20l4 21l6 20l4 18l13 39l24 56l29 53l10 16l23 31l39 43l30 29l17 12l14 12l51 33l74 35l21 6l18 6l18 4l21 4l18 4l41 4
l19 3h41l20 -3l21 -2l18 -2l55 -12l21 -6l18 -8l21 -6l18 -11l19 -8l32 -20l17 -13l16 -10l29 -24l51 -56l12 -16l13 -14l10 -15v647zM1583 1554v-6l-12 -41l-6 -18l-6 -21l-7 -20l-24 -80l-8 -20l-13 -39l-18 -62l-6 -18l-6 -21l-7 -20h-90l6 61v21l3 20l8 82v19l10 102v20
l4 41h172z" />
    <glyph glyph-name="Dcroat" unicode="&#x110;" horiz-adv-x="1744" 
d="M475 674v-494h354l21 2h22l21 2l20 4l21 2l20 5l19 4l76 24l92 45l16 13l17 10l16 12l14 12l17 13l28 28l54 66l40 76l9 20l6 19l8 18l4 20l6 21l4 18l4 21l2 20l5 21v22l2 21v47l-2 22v21l-5 20l-2 21l-8 41l-6 18l-4 21l-8 18l-6 21l-17 35l-8 18l-10 16l-10 19l-11 16
l-12 14l-10 17l-12 14l-15 15l-12 14l-14 14l-17 13l-14 12l-16 12l-17 10l-16 13l-19 10l-16 10l-37 16l-20 11l-56 18l-20 4l-19 6l-20 4l-21 3l-20 4l-21 2h-22l-21 2h-354v-486h424v-151h-424zM276 0v674h-159v151h159v666h574l104 -10l41 -8l39 -9l21 -4l73 -24l21 -11
l41 -16l37 -20l18 -11l19 -10l18 -12l66 -49l45 -43l41 -45l26 -33l10 -17l13 -18l10 -16l31 -54l8 -20l10 -19l6 -18l8 -18l7 -19l6 -18l4 -19l6 -20l8 -39l2 -19l4 -20l4 -41v-20l2 -21v-45l-2 -20v-21l-4 -41l-4 -20l-2 -21l-4 -18l-4 -21l-6 -18l-4 -19l-13 -39l-8 -18
l-6 -16l-18 -39l-31 -56l-10 -16l-13 -18l-10 -17l-26 -33l-41 -45l-29 -26l-14 -15l-62 -47l-67 -41l-35 -18l-39 -16l-19 -9l-18 -6l-18 -8l-19 -6l-18 -4l-21 -6l-39 -9l-41 -8l-82 -8l-22 -2h-574z" />
    <glyph glyph-name="dcroat" unicode="&#x111;" horiz-adv-x="1435" 
d="M666 145h41l20 2l21 5l40 8l58 24l18 11l19 10l32 24l33 29l13 14l34 45l9 17l10 16l8 19l10 18l19 57l8 41l4 45v50l-4 43l-8 41l-13 38l-6 21l-10 16l-8 19l-10 16l-9 17l-22 30l-12 15l-13 14l-33 29l-32 24l-19 10l-18 11l-19 10l-18 6l-21 8l-40 8l-21 5l-20 2h-41
l-23 -2l-20 -3l-21 -4l-39 -12l-18 -6l-37 -18l-19 -11l-32 -24l-15 -13l-43 -47l-12 -16l-31 -59l-8 -21l-18 -59l-2 -21l-4 -22l-2 -23l-3 -22v-50l3 -22l2 -23l12 -61l6 -18l8 -19l8 -22l31 -58l12 -18l15 -17l14 -14l14 -16l15 -15l33 -24l18 -10l16 -11l21 -8l18 -8
l19 -6l41 -8l20 -5zM690 1425h369v129h190v-129h148v-131h-148v-1294h-190v211l-10 -16l-25 -29l-12 -16l-41 -44l-15 -12l-14 -14l-16 -12l-15 -13l-51 -30l-18 -9l-21 -8l-18 -8l-21 -6l-55 -12l-18 -2l-21 -3l-20 -2h-41l-19 2l-20 3l-19 2l-18 4l-21 4l-18 4l-39 12
l-55 25l-19 10l-32 20l-19 13l-14 12l-17 12l-30 29l-27 29l-35 45l-20 32l-10 19l-11 18l-24 56l-6 18l-7 18l-4 19l-6 20l-2 21l-8 41l-2 20v23l-2 22v50l2 22v23l2 20l4 21l2 20l4 21l6 20l4 18l13 39l24 56l29 53l10 16l23 31l39 43l30 29l17 12l14 12l51 33l74 35l21 6
l18 6l18 4l21 4l18 4l41 4l19 3h41l20 -3l21 -2l18 -2l55 -12l21 -6l18 -8l21 -6l18 -11l19 -8l32 -20l17 -13l16 -10l29 -24l51 -56l12 -16l13 -14l10 -15v387h-369v131z" />
    <glyph glyph-name="Emacron" unicode="&#x112;" horiz-adv-x="1443" 
d="M213 1491h1085v-178h-888v-473h792v-178h-792v-484h899v-178h-1096v1491zM399 1812h721v-153h-721v153z" />
    </font>
</defs>
</svg>
